ISO-10303-21;
HEADER;
/* Generated by software containing ST-Developer
 * from STEP Tools, Inc. (www.steptools.com) 
 */
/* OPTION: using custom renumber hook */

FILE_DESCRIPTION(
/* description */ ('STEP AP242 Edition 2',
'CAx-IF Rec.Pracs.---Representation and Presentation of Product Manufa
cturing Information (PMI)---4.0---2014-10-13',
'CAx-IF Rec.Pracs.---3D Tessellated Geometry---0.4---2014-09-14','2;1',
'CAx-IF Rec.Pracs.---User Defined Attributes---1.5---2016-08-15'),
/* implementation_level */ '2;1');

FILE_NAME(
/* name */ 'Chassis - Power Button',
/* time_stamp */ '2026-07-28T04:28:42Z',
/* author */ (''),
/* organization */ (''),
/* preprocessor_version */ 'ST-DEVELOPER v20',
/* originating_system */ 'ONSHAPE BY PTC INC, 1.218',
/* authorisation */ '  ');

FILE_SCHEMA (('AP242_MANAGED_MODEL_BASED_3D_ENGINEERING_MIM_LF { 1 0 10303 442 3 1 4 }'));
ENDSEC;

DATA;
#10=SHAPE_REPRESENTATION_RELATIONSHIP('','',#271,#11);
#11=ADVANCED_BREP_SHAPE_REPRESENTATION('',(#269),#471);
#12=B_SPLINE_CURVE_WITH_KNOTS('',3,(#457,#458,#459,#460,#461),
 .UNSPECIFIED.,.F.,.F.,(4,1,4),(0.,0.00227464876307961,0.00454929752615921),
 .UNSPECIFIED.);
#13=B_SPLINE_CURVE_WITH_KNOTS('',3,(#463,#464,#465,#466,#467),
 .UNSPECIFIED.,.F.,.F.,(4,1,4),(0.,0.00227464876307963,0.00454929752615925),
 .UNSPECIFIED.);
#14=SPHERICAL_SURFACE('',#282,0.0420199999999913);
#15=TOROIDAL_SURFACE('',#280,0.0092,0.0008);
#16=TOROIDAL_SURFACE('',#305,0.014,0.002);
#17=CYLINDRICAL_SURFACE('',#278,0.01);
#18=CYLINDRICAL_SURFACE('',#283,0.012);
#19=CYLINDRICAL_SURFACE('',#300,0.005);
#20=CYLINDRICAL_SURFACE('',#301,0.005);
#21=CYLINDRICAL_SURFACE('',#302,0.005);
#22=CYLINDRICAL_SURFACE('',#303,0.005);
#23=CYLINDRICAL_SURFACE('',#304,0.0025);
#24=CIRCLE('',#276,0.01);
#25=CIRCLE('',#277,0.012);
#26=CIRCLE('',#279,0.01);
#27=CIRCLE('',#281,0.00902811770200837);
#28=CIRCLE('',#284,0.012);
#29=CIRCLE('',#285,0.012);
#30=CIRCLE('',#287,0.0025);
#31=CIRCLE('',#288,0.005);
#32=CIRCLE('',#289,0.014);
#33=CIRCLE('',#290,0.005);
#34=CIRCLE('',#291,0.005);
#35=CIRCLE('',#292,0.005);
#36=CIRCLE('',#294,0.0025);
#37=CIRCLE('',#295,0.005);
#38=CIRCLE('',#296,0.005);
#39=CIRCLE('',#297,0.005);
#40=CIRCLE('',#298,0.005);
#41=ORIENTED_EDGE('',*,*,#107,.T.);
#42=ORIENTED_EDGE('',*,*,#108,.T.);
#43=ORIENTED_EDGE('',*,*,#109,.F.);
#44=ORIENTED_EDGE('',*,*,#110,.T.);
#45=ORIENTED_EDGE('',*,*,#111,.T.);
#46=ORIENTED_EDGE('',*,*,#112,.T.);
#47=ORIENTED_EDGE('',*,*,#113,.F.);
#48=ORIENTED_EDGE('',*,*,#114,.T.);
#49=ORIENTED_EDGE('',*,*,#115,.T.);
#50=ORIENTED_EDGE('',*,*,#116,.F.);
#51=ORIENTED_EDGE('',*,*,#117,.T.);
#52=ORIENTED_EDGE('',*,*,#115,.F.);
#53=ORIENTED_EDGE('',*,*,#118,.T.);
#54=ORIENTED_EDGE('',*,*,#117,.F.);
#55=ORIENTED_EDGE('',*,*,#118,.F.);
#56=ORIENTED_EDGE('',*,*,#119,.T.);
#57=ORIENTED_EDGE('',*,*,#120,.T.);
#58=ORIENTED_EDGE('',*,*,#121,.T.);
#59=ORIENTED_EDGE('',*,*,#122,.T.);
#60=ORIENTED_EDGE('',*,*,#116,.T.);
#61=ORIENTED_EDGE('',*,*,#123,.T.);
#62=ORIENTED_EDGE('',*,*,#124,.T.);
#63=ORIENTED_EDGE('',*,*,#125,.T.);
#64=ORIENTED_EDGE('',*,*,#126,.T.);
#65=ORIENTED_EDGE('',*,*,#109,.T.);
#66=ORIENTED_EDGE('',*,*,#127,.T.);
#67=ORIENTED_EDGE('',*,*,#128,.T.);
#68=ORIENTED_EDGE('',*,*,#129,.T.);
#69=ORIENTED_EDGE('',*,*,#111,.F.);
#70=ORIENTED_EDGE('',*,*,#130,.T.);
#71=ORIENTED_EDGE('',*,*,#113,.T.);
#72=ORIENTED_EDGE('',*,*,#131,.T.);
#73=ORIENTED_EDGE('',*,*,#132,.F.);
#74=ORIENTED_EDGE('',*,*,#133,.T.);
#75=ORIENTED_EDGE('',*,*,#107,.F.);
#76=ORIENTED_EDGE('',*,*,#134,.T.);
#77=ORIENTED_EDGE('',*,*,#122,.F.);
#78=ORIENTED_EDGE('',*,*,#135,.T.);
#79=ORIENTED_EDGE('',*,*,#132,.T.);
#80=ORIENTED_EDGE('',*,*,#136,.T.);
#81=ORIENTED_EDGE('',*,*,#128,.F.);
#82=ORIENTED_EDGE('',*,*,#137,.T.);
#83=ORIENTED_EDGE('',*,*,#131,.F.);
#84=ORIENTED_EDGE('',*,*,#112,.F.);
#85=ORIENTED_EDGE('',*,*,#129,.F.);
#86=ORIENTED_EDGE('',*,*,#136,.F.);
#87=ORIENTED_EDGE('',*,*,#133,.F.);
#88=ORIENTED_EDGE('',*,*,#137,.F.);
#89=ORIENTED_EDGE('',*,*,#127,.F.);
#90=ORIENTED_EDGE('',*,*,#108,.F.);
#91=ORIENTED_EDGE('',*,*,#135,.F.);
#92=ORIENTED_EDGE('',*,*,#121,.F.);
#93=ORIENTED_EDGE('',*,*,#138,.T.);
#94=ORIENTED_EDGE('',*,*,#124,.F.);
#95=ORIENTED_EDGE('',*,*,#114,.F.);
#96=ORIENTED_EDGE('',*,*,#134,.F.);
#97=ORIENTED_EDGE('',*,*,#110,.F.);
#98=ORIENTED_EDGE('',*,*,#126,.F.);
#99=ORIENTED_EDGE('',*,*,#139,.T.);
#100=ORIENTED_EDGE('',*,*,#119,.F.);
#101=ORIENTED_EDGE('',*,*,#123,.F.);
#102=ORIENTED_EDGE('',*,*,#130,.F.);
#103=ORIENTED_EDGE('',*,*,#138,.F.);
#104=ORIENTED_EDGE('',*,*,#120,.F.);
#105=ORIENTED_EDGE('',*,*,#139,.F.);
#106=ORIENTED_EDGE('',*,*,#125,.F.);
#107=EDGE_CURVE('',#140,#141,#164,.T.);
#108=EDGE_CURVE('',#141,#142,#165,.T.);
#109=EDGE_CURVE('',#143,#142,#166,.T.);
#110=EDGE_CURVE('',#143,#140,#167,.F.);
#111=EDGE_CURVE('',#144,#145,#168,.T.);
#112=EDGE_CURVE('',#145,#146,#169,.F.);
#113=EDGE_CURVE('',#147,#146,#170,.T.);
#114=EDGE_CURVE('',#147,#144,#171,.F.);
#115=EDGE_CURVE('',#148,#148,#24,.T.);
#116=EDGE_CURVE('',#149,#149,#25,.F.);
#117=EDGE_CURVE('',#150,#150,#26,.T.);
#118=EDGE_CURVE('',#151,#151,#27,.T.);
#119=EDGE_CURVE('',#152,#153,#172,.T.);
#120=EDGE_CURVE('',#153,#154,#28,.T.);
#121=EDGE_CURVE('',#154,#155,#173,.F.);
#122=EDGE_CURVE('',#155,#152,#29,.T.);
#123=EDGE_CURVE('',#156,#156,#30,.F.);
#124=EDGE_CURVE('',#144,#157,#31,.F.);
#125=EDGE_CURVE('',#157,#158,#32,.F.);
#126=EDGE_CURVE('',#158,#143,#33,.F.);
#127=EDGE_CURVE('',#142,#159,#34,.T.);
#128=EDGE_CURVE('',#159,#160,#174,.T.);
#129=EDGE_CURVE('',#160,#145,#35,.T.);
#130=EDGE_CURVE('',#161,#161,#36,.T.);
#131=EDGE_CURVE('',#146,#162,#37,.F.);
#132=EDGE_CURVE('',#163,#162,#175,.T.);
#133=EDGE_CURVE('',#163,#141,#38,.F.);
#134=EDGE_CURVE('',#140,#152,#39,.T.);
#135=EDGE_CURVE('',#155,#147,#40,.T.);
#136=EDGE_CURVE('',#162,#160,#176,.T.);
#137=EDGE_CURVE('',#159,#163,#177,.F.);
#138=EDGE_CURVE('',#154,#157,#12,.F.);
#139=EDGE_CURVE('',#158,#153,#13,.T.);
#140=VERTEX_POINT('',#391);
#141=VERTEX_POINT('',#392);
#142=VERTEX_POINT('',#394);
#143=VERTEX_POINT('',#396);
#144=VERTEX_POINT('',#400);
#145=VERTEX_POINT('',#401);
#146=VERTEX_POINT('',#403);
#147=VERTEX_POINT('',#405);
#148=VERTEX_POINT('',#409);
#149=VERTEX_POINT('',#411);
#150=VERTEX_POINT('',#414);
#151=VERTEX_POINT('',#417);
#152=VERTEX_POINT('',#421);
#153=VERTEX_POINT('',#422);
#154=VERTEX_POINT('',#424);
#155=VERTEX_POINT('',#426);
#156=VERTEX_POINT('',#430);
#157=VERTEX_POINT('',#432);
#158=VERTEX_POINT('',#434);
#159=VERTEX_POINT('',#437);
#160=VERTEX_POINT('',#439);
#161=VERTEX_POINT('',#443);
#162=VERTEX_POINT('',#445);
#163=VERTEX_POINT('',#447);
#164=LINE('',#390,#178);
#165=LINE('',#393,#179);
#166=LINE('',#395,#180);
#167=LINE('',#397,#181);
#168=LINE('',#399,#182);
#169=LINE('',#402,#183);
#170=LINE('',#404,#184);
#171=LINE('',#406,#185);
#172=LINE('',#420,#186);
#173=LINE('',#425,#187);
#174=LINE('',#438,#188);
#175=LINE('',#446,#189);
#176=LINE('',#452,#190);
#177=LINE('',#453,#191);
#178=VECTOR('',#310,1.);
#179=VECTOR('',#311,1.);
#180=VECTOR('',#312,1.);
#181=VECTOR('',#313,1.);
#182=VECTOR('',#316,1.);
#183=VECTOR('',#317,1.);
#184=VECTOR('',#318,1.);
#185=VECTOR('',#319,1.);
#186=VECTOR('',#338,1.);
#187=VECTOR('',#341,1.);
#188=VECTOR('',#356,1.);
#189=VECTOR('',#365,1.);
#190=VECTOR('',#374,1.);
#191=VECTOR('',#375,1.);
#192=EDGE_LOOP('',(#41,#42,#43,#44));
#193=EDGE_LOOP('',(#45,#46,#47,#48));
#194=EDGE_LOOP('',(#49));
#195=EDGE_LOOP('',(#50));
#196=EDGE_LOOP('',(#51));
#197=EDGE_LOOP('',(#52));
#198=EDGE_LOOP('',(#53));
#199=EDGE_LOOP('',(#54));
#200=EDGE_LOOP('',(#55));
#201=EDGE_LOOP('',(#56,#57,#58,#59));
#202=EDGE_LOOP('',(#60));
#203=EDGE_LOOP('',(#61));
#204=EDGE_LOOP('',(#62,#63,#64,#65,#66,#67,#68,#69));
#205=EDGE_LOOP('',(#70));
#206=EDGE_LOOP('',(#71,#72,#73,#74,#75,#76,#77,#78));
#207=EDGE_LOOP('',(#79,#80,#81,#82));
#208=EDGE_LOOP('',(#83,#84,#85,#86));
#209=EDGE_LOOP('',(#87,#88,#89,#90));
#210=EDGE_LOOP('',(#91,#92,#93,#94,#95));
#211=EDGE_LOOP('',(#96,#97,#98,#99,#100));
#212=EDGE_LOOP('',(#101));
#213=EDGE_LOOP('',(#102));
#214=EDGE_LOOP('',(#103,#104,#105,#106));
#215=FACE_BOUND('',#192,.T.);
#216=FACE_BOUND('',#193,.T.);
#217=FACE_BOUND('',#194,.T.);
#218=FACE_BOUND('',#195,.T.);
#219=FACE_BOUND('',#196,.T.);
#220=FACE_BOUND('',#197,.T.);
#221=FACE_BOUND('',#198,.T.);
#222=FACE_BOUND('',#199,.T.);
#223=FACE_BOUND('',#200,.T.);
#224=FACE_BOUND('',#201,.T.);
#225=FACE_BOUND('',#202,.T.);
#226=FACE_BOUND('',#203,.T.);
#227=FACE_BOUND('',#204,.T.);
#228=FACE_BOUND('',#205,.T.);
#229=FACE_BOUND('',#206,.T.);
#230=FACE_BOUND('',#207,.T.);
#231=FACE_BOUND('',#208,.T.);
#232=FACE_BOUND('',#209,.T.);
#233=FACE_BOUND('',#210,.T.);
#234=FACE_BOUND('',#211,.T.);
#235=FACE_BOUND('',#212,.T.);
#236=FACE_BOUND('',#213,.T.);
#237=FACE_BOUND('',#214,.T.);
#238=PLANE('',#273);
#239=PLANE('',#274);
#240=PLANE('',#275);
#241=PLANE('',#286);
#242=PLANE('',#293);
#243=PLANE('',#299);
#244=ADVANCED_FACE('',(#215),#238,.T.);
#245=ADVANCED_FACE('',(#216),#239,.F.);
#246=ADVANCED_FACE('',(#217,#218),#240,.F.);
#247=ADVANCED_FACE('',(#219,#220),#17,.T.);
#248=ADVANCED_FACE('',(#221,#222),#15,.T.);
#249=ADVANCED_FACE('',(#223),#14,.F.);
#250=ADVANCED_FACE('',(#224,#225),#18,.T.);
#251=ADVANCED_FACE('',(#226,#227),#241,.T.);
#252=ADVANCED_FACE('',(#228,#229),#242,.F.);
#253=ADVANCED_FACE('',(#230),#243,.F.);
#254=ADVANCED_FACE('',(#231),#19,.T.);
#255=ADVANCED_FACE('',(#232),#20,.T.);
#256=ADVANCED_FACE('',(#233),#21,.F.);
#257=ADVANCED_FACE('',(#234),#22,.F.);
#258=ADVANCED_FACE('',(#235,#236),#23,.F.);
#259=ADVANCED_FACE('',(#237),#16,.F.);
#260=CLOSED_SHELL('',(#244,#245,#246,#247,#248,#249,#250,#251,#252,#253,
#254,#255,#256,#257,#258,#259));
#261=STYLED_ITEM('',(#262),#269);
#262=PRESENTATION_STYLE_ASSIGNMENT((#263));
#263=SURFACE_STYLE_USAGE(.BOTH.,#264);
#264=SURFACE_SIDE_STYLE('',(#265));
#265=SURFACE_STYLE_FILL_AREA(#266);
#266=FILL_AREA_STYLE('',(#267));
#267=FILL_AREA_STYLE_COLOUR('',#268);
#268=COLOUR_RGB('',0.0627450980392157,0.0627450980392157,0.0627450980392157);
#269=MANIFOLD_SOLID_BREP('Power Button',#260);
#270=SHAPE_DEFINITION_REPRESENTATION(#476,#271);
#271=SHAPE_REPRESENTATION('Power Button',(#272),#471);
#272=AXIS2_PLACEMENT_3D('',#388,#306,#307);
#273=AXIS2_PLACEMENT_3D('',#389,#308,#309);
#274=AXIS2_PLACEMENT_3D('',#398,#314,#315);
#275=AXIS2_PLACEMENT_3D('',#407,#320,#321);
#276=AXIS2_PLACEMENT_3D('',#408,#322,#323);
#277=AXIS2_PLACEMENT_3D('',#410,#324,#325);
#278=AXIS2_PLACEMENT_3D('',#412,#326,#327);
#279=AXIS2_PLACEMENT_3D('',#413,#328,#329);
#280=AXIS2_PLACEMENT_3D('',#415,#330,#331);
#281=AXIS2_PLACEMENT_3D('',#416,#332,#333);
#282=AXIS2_PLACEMENT_3D('',#418,#334,#335);
#283=AXIS2_PLACEMENT_3D('',#419,#336,#337);
#284=AXIS2_PLACEMENT_3D('',#423,#339,#340);
#285=AXIS2_PLACEMENT_3D('',#427,#342,#343);
#286=AXIS2_PLACEMENT_3D('',#428,#344,#345);
#287=AXIS2_PLACEMENT_3D('',#429,#346,#347);
#288=AXIS2_PLACEMENT_3D('',#431,#348,#349);
#289=AXIS2_PLACEMENT_3D('',#433,#350,#351);
#290=AXIS2_PLACEMENT_3D('',#435,#352,#353);
#291=AXIS2_PLACEMENT_3D('',#436,#354,#355);
#292=AXIS2_PLACEMENT_3D('',#440,#357,#358);
#293=AXIS2_PLACEMENT_3D('',#441,#359,#360);
#294=AXIS2_PLACEMENT_3D('',#442,#361,#362);
#295=AXIS2_PLACEMENT_3D('',#444,#363,#364);
#296=AXIS2_PLACEMENT_3D('',#448,#366,#367);
#297=AXIS2_PLACEMENT_3D('',#449,#368,#369);
#298=AXIS2_PLACEMENT_3D('',#450,#370,#371);
#299=AXIS2_PLACEMENT_3D('',#451,#372,#373);
#300=AXIS2_PLACEMENT_3D('',#454,#376,#377);
#301=AXIS2_PLACEMENT_3D('',#455,#378,#379);
#302=AXIS2_PLACEMENT_3D('',#456,#380,#381);
#303=AXIS2_PLACEMENT_3D('',#462,#382,#383);
#304=AXIS2_PLACEMENT_3D('',#468,#384,#385);
#305=AXIS2_PLACEMENT_3D('',#469,#386,#387);
#306=DIRECTION('',(0.,0.,1.));
#307=DIRECTION('',(1.,0.,0.));
#308=DIRECTION('',(0.,0.,-1.));
#309=DIRECTION('',(1.,0.,0.));
#310=DIRECTION('',(1.,0.,0.));
#311=DIRECTION('',(0.,-1.,0.));
#312=DIRECTION('',(1.,0.,0.));
#313=DIRECTION('',(1.77920356510442E-16,-1.,0.));
#314=DIRECTION('',(0.,0.,-1.));
#315=DIRECTION('',(1.,0.,0.));
#316=DIRECTION('',(1.,0.,0.));
#317=DIRECTION('',(0.,-1.,0.));
#318=DIRECTION('',(1.,0.,0.));
#319=DIRECTION('',(-1.77920356510442E-16,1.,0.));
#320=DIRECTION('',(-1.77920356510442E-16,1.,0.));
#321=DIRECTION('',(-1.,-1.77920356510442E-16,0.));
#322=DIRECTION('',(0.,1.,0.));
#323=DIRECTION('',(0.,0.,1.));
#324=DIRECTION('',(1.77920356510442E-16,-1.,0.));
#325=DIRECTION('',(1.,1.77920356510442E-16,0.));
#326=DIRECTION('',(0.,1.,0.));
#327=DIRECTION('',(0.,0.,1.));
#328=DIRECTION('',(0.,1.,0.));
#329=DIRECTION('',(0.,0.,1.));
#330=DIRECTION('',(0.,1.,0.));
#331=DIRECTION('',(0.,0.,1.));
#332=DIRECTION('',(0.,1.,0.));
#333=DIRECTION('',(0.,0.,1.));
#334=DIRECTION('',(0.,1.,0.));
#335=DIRECTION('',(1.,0.,0.));
#336=DIRECTION('',(1.77920356510442E-16,-1.,0.));
#337=DIRECTION('',(1.,1.77920356510442E-16,0.));
#338=DIRECTION('',(1.77920356510442E-16,-1.,0.));
#339=DIRECTION('',(0.,-1.,0.));
#340=DIRECTION('',(0.,0.,-1.));
#341=DIRECTION('',(1.77920356510442E-16,-1.,0.));
#342=DIRECTION('',(0.,-1.,0.));
#343=DIRECTION('',(0.,0.,-1.));
#344=DIRECTION('',(0.,-1.,0.));
#345=DIRECTION('',(0.,0.,-1.));
#346=DIRECTION('',(0.,-1.,0.));
#347=DIRECTION('',(0.,0.,-1.));
#348=DIRECTION('',(0.,-1.,0.));
#349=DIRECTION('',(0.,0.,-1.));
#350=DIRECTION('',(0.,-1.,0.));
#351=DIRECTION('',(0.,0.,-1.));
#352=DIRECTION('',(0.,-1.,0.));
#353=DIRECTION('',(0.,0.,-1.));
#354=DIRECTION('',(0.,-1.,0.));
#355=DIRECTION('',(0.,0.,-1.));
#356=DIRECTION('',(0.,0.,1.));
#357=DIRECTION('',(0.,-1.,0.));
#358=DIRECTION('',(0.,0.,-1.));
#359=DIRECTION('',(0.,-1.,0.));
#360=DIRECTION('',(0.,0.,-1.));
#361=DIRECTION('',(0.,-1.,0.));
#362=DIRECTION('',(0.,0.,-1.));
#363=DIRECTION('',(0.,-1.,0.));
#364=DIRECTION('',(0.,0.,-1.));
#365=DIRECTION('',(0.,0.,1.));
#366=DIRECTION('',(0.,-1.,0.));
#367=DIRECTION('',(0.,0.,-1.));
#368=DIRECTION('',(0.,-1.,0.));
#369=DIRECTION('',(0.,0.,-1.));
#370=DIRECTION('',(0.,-1.,0.));
#371=DIRECTION('',(0.,0.,-1.));
#372=DIRECTION('',(-1.,0.,0.));
#373=DIRECTION('',(0.,0.,1.));
#374=DIRECTION('',(0.,-1.,0.));
#375=DIRECTION('',(0.,-1.,0.));
#376=DIRECTION('',(0.,-1.,0.));
#377=DIRECTION('',(0.,0.,-1.));
#378=DIRECTION('',(0.,1.,0.));
#379=DIRECTION('',(0.,0.,1.));
#380=DIRECTION('',(1.77920356510442E-16,-1.,0.));
#381=DIRECTION('',(1.,1.77920356510442E-16,0.));
#382=DIRECTION('',(1.77920356510442E-16,-1.,0.));
#383=DIRECTION('',(1.,1.77920356510442E-16,0.));
#384=DIRECTION('',(1.77920356510442E-16,-1.,0.));
#385=DIRECTION('',(1.,1.77920356510442E-16,0.));
#386=DIRECTION('',(0.,-1.,0.));
#387=DIRECTION('',(0.,0.,-1.));
#388=CARTESIAN_POINT('',(0.,0.,0.));
#389=CARTESIAN_POINT('',(-0.044,-0.069575,0.1355));
#390=CARTESIAN_POINT('',(-0.044,-0.06915,0.1355));
#391=CARTESIAN_POINT('',(-0.0486302580428791,-0.06915,0.1355));
#392=CARTESIAN_POINT('',(-0.039,-0.06915,0.1355));
#393=CARTESIAN_POINT('',(-0.039,-0.07,0.1355));
#394=CARTESIAN_POINT('',(-0.039,-0.07,0.1355));
#395=CARTESIAN_POINT('',(-0.0365,-0.07,0.1355));
#396=CARTESIAN_POINT('',(-0.0486302580428791,-0.07,0.1355));
#397=CARTESIAN_POINT('',(-0.0486302580428791,-0.069575,0.1355));
#398=CARTESIAN_POINT('',(-0.044,-0.069575,0.1465));
#399=CARTESIAN_POINT('',(-0.0365,-0.07,0.1465));
#400=CARTESIAN_POINT('',(-0.0486302580428791,-0.07,0.1465));
#401=CARTESIAN_POINT('',(-0.039,-0.07,0.1465));
#402=CARTESIAN_POINT('',(-0.039,-0.069575,0.1465));
#403=CARTESIAN_POINT('',(-0.039,-0.06915,0.1465));
#404=CARTESIAN_POINT('',(-0.044,-0.06915,0.1465));
#405=CARTESIAN_POINT('',(-0.0486302580428791,-0.06915,0.1465));
#406=CARTESIAN_POINT('',(-0.0486302580428791,-0.07,0.1465));
#407=CARTESIAN_POINT('',(0.,-0.078,0.0785));
#408=CARTESIAN_POINT('',(-0.062,-0.078,0.141));
#409=CARTESIAN_POINT('',(-0.062,-0.078,0.151));
#410=CARTESIAN_POINT('',(-0.062,-0.078,0.141));
#411=CARTESIAN_POINT('',(-0.05,-0.078,0.141));
#412=CARTESIAN_POINT('',(-0.062,-0.08,0.141));
#413=CARTESIAN_POINT('',(-0.062,-0.0822,0.141));
#414=CARTESIAN_POINT('',(-0.062,-0.0822,0.151));
#415=CARTESIAN_POINT('',(-0.062,-0.0822,0.141));
#416=CARTESIAN_POINT('',(-0.062,-0.0829813171415229,0.141));
#417=CARTESIAN_POINT('',(-0.062,-0.0829813171415229,0.150028117702008));
#418=CARTESIAN_POINT('',(-0.062,-0.124019999999991,0.141));
#419=CARTESIAN_POINT('',(-0.062,-0.07,0.141));
#420=CARTESIAN_POINT('',(-0.0525625350890911,-0.07,0.133588235294118));
#421=CARTESIAN_POINT('',(-0.0525625350890911,-0.06915,0.133588235294118));
#422=CARTESIAN_POINT('',(-0.0525625350890911,-0.072,0.133588235294118));
#423=CARTESIAN_POINT('',(-0.062,-0.072,0.141));
#424=CARTESIAN_POINT('',(-0.0525625350890911,-0.072,0.148411764705882));
#425=CARTESIAN_POINT('',(-0.0525625350890911,-0.07,0.148411764705882));
#426=CARTESIAN_POINT('',(-0.0525625350890911,-0.06915,0.148411764705882));
#427=CARTESIAN_POINT('',(-0.062,-0.06915,0.141));
#428=CARTESIAN_POINT('',(-0.0365,-0.07,0.1355));
#429=CARTESIAN_POINT('',(-0.039,-0.07,0.141));
#430=CARTESIAN_POINT('',(-0.039,-0.07,0.1385));
#431=CARTESIAN_POINT('',(-0.0486302580428791,-0.07,0.1515));
#432=CARTESIAN_POINT('',(-0.0491366190005173,-0.07,0.146525706222932));
#433=CARTESIAN_POINT('',(-0.062,-0.07,0.141));
#434=CARTESIAN_POINT('',(-0.0491366190005173,-0.07,0.135474293777068));
#435=CARTESIAN_POINT('',(-0.0486302580428791,-0.07,0.1305));
#436=CARTESIAN_POINT('',(-0.039,-0.07,0.1405));
#437=CARTESIAN_POINT('',(-0.034,-0.07,0.1405));
#438=CARTESIAN_POINT('',(-0.034,-0.07,0.1355));
#439=CARTESIAN_POINT('',(-0.034,-0.07,0.1415));
#440=CARTESIAN_POINT('',(-0.039,-0.07,0.1415));
#441=CARTESIAN_POINT('',(-0.044,-0.06915,0.1355));
#442=CARTESIAN_POINT('',(-0.039,-0.06915,0.141));
#443=CARTESIAN_POINT('',(-0.039,-0.06915,0.1385));
#444=CARTESIAN_POINT('',(-0.039,-0.06915,0.1415));
#445=CARTESIAN_POINT('',(-0.034,-0.06915,0.1415));
#446=CARTESIAN_POINT('',(-0.034,-0.06915,0.1355));
#447=CARTESIAN_POINT('',(-0.034,-0.06915,0.1405));
#448=CARTESIAN_POINT('',(-0.039,-0.06915,0.1405));
#449=CARTESIAN_POINT('',(-0.0486302580428791,-0.06915,0.1305));
#450=CARTESIAN_POINT('',(-0.0486302580428791,-0.06915,0.1515));
#451=CARTESIAN_POINT('',(-0.034,-0.069575,0.1355));
#452=CARTESIAN_POINT('',(-0.034,-0.069575,0.1415));
#453=CARTESIAN_POINT('',(-0.034,-0.06915,0.1405));
#454=CARTESIAN_POINT('',(-0.039,-0.069575,0.1415));
#455=CARTESIAN_POINT('',(-0.039,-0.069575,0.1405));
#456=CARTESIAN_POINT('',(-0.0486302580428791,-0.07,0.1515));
#457=CARTESIAN_POINT('',(-0.0491366190005173,-0.07,0.146525706222932));
#458=CARTESIAN_POINT('',(-0.0499058611267254,-0.07,0.146604011646202));
#459=CARTESIAN_POINT('',(-0.0512790304535791,-0.0706290528100169,0.147108290881877));
#460=CARTESIAN_POINT('',(-0.0521883852928355,-0.0715439963111407,0.147935356493573));
#461=CARTESIAN_POINT('',(-0.0525625350890911,-0.072,0.148411764705882));
#462=CARTESIAN_POINT('',(-0.0486302580428791,-0.07,0.1305));
#463=CARTESIAN_POINT('',(-0.0491366190005173,-0.07,0.135474293777068));
#464=CARTESIAN_POINT('',(-0.0499058611267254,-0.07,0.135395988353798));
#465=CARTESIAN_POINT('',(-0.0512790304535792,-0.0706290528100166,0.134891709118122));
#466=CARTESIAN_POINT('',(-0.0521883852928352,-0.0715439963111413,0.134064643506427));
#467=CARTESIAN_POINT('',(-0.0525625350890911,-0.072,0.133588235294118));
#468=CARTESIAN_POINT('',(-0.039,-0.069148,0.141));
#469=CARTESIAN_POINT('',(-0.062,-0.072,0.141));
#470=MECHANICAL_DESIGN_GEOMETRIC_PRESENTATION_REPRESENTATION('',(#261),
#471);
#471=(
GEOMETRIC_REPRESENTATION_CONTEXT(3)
GLOBAL_UNCERTAINTY_ASSIGNED_CONTEXT((#472))
GLOBAL_UNIT_ASSIGNED_CONTEXT((#475,#474,#473))
REPRESENTATION_CONTEXT('Power Button','TOP_LEVEL_ASSEMBLY_PART')
);
#472=UNCERTAINTY_MEASURE_WITH_UNIT(LENGTH_MEASURE(2.E-5),#475,
'DISTANCE_ACCURACY_VALUE','Maximum Tolerance applied to model');
#473=(
NAMED_UNIT(*)
SI_UNIT($,.STERADIAN.)
SOLID_ANGLE_UNIT()
);
#474=(
NAMED_UNIT(*)
PLANE_ANGLE_UNIT()
SI_UNIT($,.RADIAN.)
);
#475=(
LENGTH_UNIT()
NAMED_UNIT(*)
SI_UNIT($,.METRE.)
);
#476=PRODUCT_DEFINITION_SHAPE('','',#477);
#477=PRODUCT_DEFINITION('','',#479,#478);
#478=PRODUCT_DEFINITION_CONTEXT('',#485,'design');
#479=PRODUCT_DEFINITION_FORMATION_WITH_SPECIFIED_SOURCE('','',#481,
 .NOT_KNOWN.);
#480=PRODUCT_RELATED_PRODUCT_CATEGORY('','',(#481));
#481=PRODUCT('Power Button','Power Button','Power Button',(#483));
#482=PRODUCT_CATEGORY('','');
#483=PRODUCT_CONTEXT('',#485,'mechanical');
#484=APPLICATION_PROTOCOL_DEFINITION('international standard',
'ap242_managed_model_based_3d_engineering',2020,#485);
#485=APPLICATION_CONTEXT('managed model based 3d engineering');
ENDSEC;
END-ISO-10303-21;
