ISO-10303-21;
HEADER;
/* Generated by software containing ST-Developer
 * from STEP Tools, Inc. (www.steptools.com) 
 */
/* OPTION: using custom renumber hook */

FILE_DESCRIPTION(
/* description */ ('STEP AP242 Edition 2',
'CAx-IF Rec.Pracs.---Representation and Presentation of Product Manufa
cturing Information (PMI)---4.0---2014-10-13',
'CAx-IF Rec.Pracs.---3D Tessellated Geometry---0.4---2014-09-14','2;1',
'CAx-IF Rec.Pracs.---User Defined Attributes---1.5---2016-08-15'),
/* implementation_level */ '2;1');

FILE_NAME(
/* name */ 'Chassis - Front Port Cover',
/* time_stamp */ '2026-07-28T04:28:15Z',
/* author */ (''),
/* organization */ (''),
/* preprocessor_version */ 'ST-DEVELOPER v20',
/* originating_system */ 'ONSHAPE BY PTC INC, 1.218',
/* authorisation */ '  ');

FILE_SCHEMA (('AP242_MANAGED_MODEL_BASED_3D_ENGINEERING_MIM_LF { 1 0 10303 442 3 1 4 }'));
ENDSEC;

DATA;
#10=SHAPE_REPRESENTATION_RELATIONSHIP('','',#921,#11);
#11=ADVANCED_BREP_SHAPE_REPRESENTATION('',(#919),#1613);
#12=CYLINDRICAL_SURFACE('',#957,0.007);
#13=CYLINDRICAL_SURFACE('',#962,0.00325);
#14=CYLINDRICAL_SURFACE('',#974,0.007);
#15=CYLINDRICAL_SURFACE('',#979,0.00225);
#16=CYLINDRICAL_SURFACE('',#981,0.00225);
#17=CYLINDRICAL_SURFACE('',#984,0.00225);
#18=CYLINDRICAL_SURFACE('',#986,0.00225);
#19=CYLINDRICAL_SURFACE('',#1006,0.00125);
#20=CYLINDRICAL_SURFACE('',#1007,0.00125);
#21=CYLINDRICAL_SURFACE('',#1008,0.00125);
#22=CYLINDRICAL_SURFACE('',#1009,0.00125);
#23=CYLINDRICAL_SURFACE('',#1010,0.00125);
#24=CYLINDRICAL_SURFACE('',#1011,0.00125);
#25=CYLINDRICAL_SURFACE('',#1012,0.00125);
#26=CYLINDRICAL_SURFACE('',#1013,0.00125);
#27=LINE('',#1320,#93);
#28=LINE('',#1321,#94);
#29=LINE('',#1347,#95);
#30=LINE('',#1348,#96);
#31=LINE('',#1350,#97);
#32=LINE('',#1355,#98);
#33=LINE('',#1361,#99);
#34=LINE('',#1362,#100);
#35=LINE('',#1366,#101);
#36=LINE('',#1373,#102);
#37=LINE('',#1374,#103);
#38=LINE('',#1379,#104);
#39=LINE('',#1383,#105);
#40=LINE('',#1387,#106);
#41=LINE('',#1390,#107);
#42=LINE('',#1395,#108);
#43=LINE('',#1399,#109);
#44=LINE('',#1403,#110);
#45=LINE('',#1409,#111);
#46=LINE('',#1411,#112);
#47=LINE('',#1413,#113);
#48=LINE('',#1415,#114);
#49=LINE('',#1418,#115);
#50=LINE('',#1419,#116);
#51=LINE('',#1421,#117);
#52=LINE('',#1424,#118);
#53=LINE('',#1425,#119);
#54=LINE('',#1427,#120);
#55=LINE('',#1429,#121);
#56=LINE('',#1431,#122);
#57=LINE('',#1433,#123);
#58=LINE('',#1436,#124);
#59=LINE('',#1437,#125);
#60=LINE('',#1439,#126);
#61=LINE('',#1442,#127);
#62=LINE('',#1443,#128);
#63=LINE('',#1445,#129);
#64=LINE('',#1450,#130);
#65=LINE('',#1454,#131);
#66=LINE('',#1457,#132);
#67=LINE('',#1458,#133);
#68=LINE('',#1460,#134);
#69=LINE('',#1462,#135);
#70=LINE('',#1464,#136);
#71=LINE('',#1472,#137);
#72=LINE('',#1479,#138);
#73=LINE('',#1487,#139);
#74=LINE('',#1488,#140);
#75=LINE('',#1490,#141);
#76=LINE('',#1491,#142);
#77=LINE('',#1493,#143);
#78=LINE('',#1505,#144);
#79=LINE('',#1517,#145);
#80=LINE('',#1521,#146);
#81=LINE('',#1522,#147);
#82=LINE('',#1525,#148);
#83=LINE('',#1537,#149);
#84=LINE('',#1549,#150);
#85=LINE('',#1553,#151);
#86=LINE('',#1554,#152);
#87=LINE('',#1573,#153);
#88=LINE('',#1591,#154);
#89=LINE('',#1597,#155);
#90=LINE('',#1598,#156);
#91=LINE('',#1600,#157);
#92=LINE('',#1602,#158);
#93=VECTOR('',#1034,1.);
#94=VECTOR('',#1035,1.);
#95=VECTOR('',#1042,1.);
#96=VECTOR('',#1043,1.);
#97=VECTOR('',#1046,1.);
#98=VECTOR('',#1049,1.);
#99=VECTOR('',#1054,1.);
#100=VECTOR('',#1055,1.);
#101=VECTOR('',#1058,1.);
#102=VECTOR('',#1063,1.);
#103=VECTOR('',#1064,1.);
#104=VECTOR('',#1067,1.);
#105=VECTOR('',#1070,1.);
#106=VECTOR('',#1073,1.);
#107=VECTOR('',#1076,1.);
#108=VECTOR('',#1079,1.);
#109=VECTOR('',#1082,1.);
#110=VECTOR('',#1085,1.);
#111=VECTOR('',#1092,1.);
#112=VECTOR('',#1093,1.);
#113=VECTOR('',#1094,1.);
#114=VECTOR('',#1097,1.);
#115=VECTOR('',#1098,1.);
#116=VECTOR('',#1099,1.);
#117=VECTOR('',#1102,1.);
#118=VECTOR('',#1103,1.);
#119=VECTOR('',#1104,1.);
#120=VECTOR('',#1107,1.);
#121=VECTOR('',#1108,1.);
#122=VECTOR('',#1109,1.);
#123=VECTOR('',#1112,1.);
#124=VECTOR('',#1113,1.);
#125=VECTOR('',#1114,1.);
#126=VECTOR('',#1117,1.);
#127=VECTOR('',#1118,1.);
#128=VECTOR('',#1119,1.);
#129=VECTOR('',#1122,1.);
#130=VECTOR('',#1125,1.);
#131=VECTOR('',#1130,1.);
#132=VECTOR('',#1131,1.);
#133=VECTOR('',#1132,1.);
#134=VECTOR('',#1135,1.);
#135=VECTOR('',#1136,1.);
#136=VECTOR('',#1137,1.);
#137=VECTOR('',#1148,1.);
#138=VECTOR('',#1157,1.);
#139=VECTOR('',#1170,1.);
#140=VECTOR('',#1171,1.);
#141=VECTOR('',#1174,1.);
#142=VECTOR('',#1175,1.);
#143=VECTOR('',#1178,1.);
#144=VECTOR('',#1179,1.);
#145=VECTOR('',#1180,1.);
#146=VECTOR('',#1187,1.);
#147=VECTOR('',#1188,1.);
#148=VECTOR('',#1193,1.);
#149=VECTOR('',#1194,1.);
#150=VECTOR('',#1195,1.);
#151=VECTOR('',#1202,1.);
#152=VECTOR('',#1203,1.);
#153=VECTOR('',#1216,1.);
#154=VECTOR('',#1227,1.);
#155=VECTOR('',#1238,1.);
#156=VECTOR('',#1239,1.);
#157=VECTOR('',#1242,1.);
#158=VECTOR('',#1245,1.);
#159=PLANE('',#931);
#160=PLANE('',#934);
#161=PLANE('',#935);
#162=PLANE('',#951);
#163=PLANE('',#952);
#164=PLANE('',#953);
#165=PLANE('',#954);
#166=PLANE('',#955);
#167=PLANE('',#956);
#168=PLANE('',#960);
#169=PLANE('',#961);
#170=PLANE('',#964);
#171=PLANE('',#976);
#172=PLANE('',#977);
#173=PLANE('',#978);
#174=PLANE('',#982);
#175=PLANE('',#983);
#176=PLANE('',#987);
#177=PLANE('',#992);
#178=PLANE('',#995);
#179=PLANE('',#996);
#180=PLANE('',#997);
#181=PLANE('',#1000);
#182=PLANE('',#1001);
#183=PLANE('',#1003);
#184=PLANE('',#1004);
#185=B_SPLINE_CURVE_WITH_KNOTS('',3,(#1269,#1270,#1271,#1272),
 .UNSPECIFIED.,.F.,.F.,(4,4),(0.00566366093751391,0.00769526789807126),
 .UNSPECIFIED.);
#186=B_SPLINE_CURVE_WITH_KNOTS('',3,(#1276,#1277,#1278,#1279),
 .UNSPECIFIED.,.F.,.F.,(4,4),(0.00566681282647694,0.00769842231087695),
 .UNSPECIFIED.);
#187=B_SPLINE_CURVE_WITH_KNOTS('',3,(#1284,#1285,#1286,#1287),
 .UNSPECIFIED.,.F.,.F.,(4,4),(0.00566366093751391,0.00769526789807126),
 .UNSPECIFIED.);
#188=B_SPLINE_CURVE_WITH_KNOTS('',3,(#1291,#1292,#1293,#1294),
 .UNSPECIFIED.,.F.,.F.,(4,4),(0.00566681282647694,0.00769842231087695),
 .UNSPECIFIED.);
#189=B_SPLINE_CURVE_WITH_KNOTS('',3,(#1296,#1297,#1298,#1299),
 .UNSPECIFIED.,.F.,.F.,(4,4),(0.00679917983668662,0.00816285310390908),
 .UNSPECIFIED.);
#190=B_SPLINE_CURVE_WITH_KNOTS('',3,(#1301,#1302,#1303,#1304,#1305),
 .UNSPECIFIED.,.F.,.F.,(4,1,4),(0.,0.0015033184044641,0.0030066368089282),
 .UNSPECIFIED.);
#191=B_SPLINE_CURVE_WITH_KNOTS('',3,(#1309,#1310,#1311,#1312,#1313),
 .UNSPECIFIED.,.F.,.F.,(4,1,4),(0.,0.00150331840446411,0.00300663680892822),
 .UNSPECIFIED.);
#192=B_SPLINE_CURVE_WITH_KNOTS('',3,(#1315,#1316,#1317,#1318),
 .UNSPECIFIED.,.F.,.F.,(4,4),(0.023002197641024,0.0243759730012224),
 .UNSPECIFIED.);
#193=B_SPLINE_CURVE_WITH_KNOTS('',3,(#1323,#1324,#1325,#1326),
 .UNSPECIFIED.,.F.,.F.,(4,4),(0.00679917983668662,0.00816285310390907),
 .UNSPECIFIED.);
#194=B_SPLINE_CURVE_WITH_KNOTS('',3,(#1328,#1329,#1330,#1331,#1332),
 .UNSPECIFIED.,.F.,.F.,(4,1,4),(0.,0.0015033184044641,0.00300663680892819),
 .UNSPECIFIED.);
#195=B_SPLINE_CURVE_WITH_KNOTS('',3,(#1336,#1337,#1338,#1339,#1340),
 .UNSPECIFIED.,.F.,.F.,(4,1,4),(0.,0.00150331840446409,0.00300663680892817),
 .UNSPECIFIED.);
#196=B_SPLINE_CURVE_WITH_KNOTS('',3,(#1342,#1343,#1344,#1345),
 .UNSPECIFIED.,.F.,.F.,(4,4),(0.0230021976410243,0.0243759730012227),
 .UNSPECIFIED.);
#197=B_SPLINE_CURVE_WITH_KNOTS('',3,(#1495,#1496,#1497,#1498),
 .UNSPECIFIED.,.F.,.F.,(4,4),(0.00566681282647694,0.00769842231087696),
 .UNSPECIFIED.);
#198=B_SPLINE_CURVE_WITH_KNOTS('',3,(#1500,#1501,#1502,#1503),
 .UNSPECIFIED.,.F.,.F.,(4,4),(0.00679917983668661,0.00816285310390907),
 .UNSPECIFIED.);
#199=B_SPLINE_CURVE_WITH_KNOTS('',3,(#1507,#1508,#1509,#1510),
 .UNSPECIFIED.,.F.,.F.,(4,4),(0.0230021976410539,0.0243759730012296),
 .UNSPECIFIED.);
#200=B_SPLINE_CURVE_WITH_KNOTS('',3,(#1512,#1513,#1514,#1515),
 .UNSPECIFIED.,.F.,.F.,(4,4),(0.00566366093751391,0.00769526789807126),
 .UNSPECIFIED.);
#201=B_SPLINE_CURVE_WITH_KNOTS('',3,(#1527,#1528,#1529,#1530),
 .UNSPECIFIED.,.F.,.F.,(4,4),(0.00566681282647694,0.00769842231087695),
 .UNSPECIFIED.);
#202=B_SPLINE_CURVE_WITH_KNOTS('',3,(#1532,#1533,#1534,#1535),
 .UNSPECIFIED.,.F.,.F.,(4,4),(0.00679917983668662,0.00816285310390908),
 .UNSPECIFIED.);
#203=B_SPLINE_CURVE_WITH_KNOTS('',3,(#1539,#1540,#1541,#1542),
 .UNSPECIFIED.,.F.,.F.,(4,4),(0.0230021976410526,0.0243759730012281),
 .UNSPECIFIED.);
#204=B_SPLINE_CURVE_WITH_KNOTS('',3,(#1544,#1545,#1546,#1547),
 .UNSPECIFIED.,.F.,.F.,(4,4),(0.00566366093751391,0.00769526789807125),
 .UNSPECIFIED.);
#205=B_SPLINE_CURVE_WITH_KNOTS('',3,(#1561,#1562,#1563,#1564,#1565),
 .UNSPECIFIED.,.F.,.F.,(4,1,4),(0.,0.00150331840447629,0.00300663680895258),
 .UNSPECIFIED.);
#206=B_SPLINE_CURVE_WITH_KNOTS('',3,(#1567,#1568,#1569,#1570,#1571),
 .UNSPECIFIED.,.F.,.F.,(4,1,4),(0.,0.0015033184044641,0.00300663680892821),
 .UNSPECIFIED.);
#207=B_SPLINE_CURVE_WITH_KNOTS('',3,(#1579,#1580,#1581,#1582,#1583),
 .UNSPECIFIED.,.F.,.F.,(4,1,4),(0.,0.00150331840447625,0.00300663680895249),
 .UNSPECIFIED.);
#208=B_SPLINE_CURVE_WITH_KNOTS('',3,(#1585,#1586,#1587,#1588,#1589),
 .UNSPECIFIED.,.F.,.F.,(4,1,4),(0.,0.00150331840446409,0.00300663680892818),
 .UNSPECIFIED.);
#209=ORIENTED_EDGE('',*,*,#469,.T.);
#210=ORIENTED_EDGE('',*,*,#470,.T.);
#211=ORIENTED_EDGE('',*,*,#471,.F.);
#212=ORIENTED_EDGE('',*,*,#472,.T.);
#213=ORIENTED_EDGE('',*,*,#473,.T.);
#214=ORIENTED_EDGE('',*,*,#474,.T.);
#215=ORIENTED_EDGE('',*,*,#475,.F.);
#216=ORIENTED_EDGE('',*,*,#476,.T.);
#217=ORIENTED_EDGE('',*,*,#469,.F.);
#218=ORIENTED_EDGE('',*,*,#477,.T.);
#219=ORIENTED_EDGE('',*,*,#478,.F.);
#220=ORIENTED_EDGE('',*,*,#479,.T.);
#221=ORIENTED_EDGE('',*,*,#480,.T.);
#222=ORIENTED_EDGE('',*,*,#481,.T.);
#223=ORIENTED_EDGE('',*,*,#478,.T.);
#224=ORIENTED_EDGE('',*,*,#482,.T.);
#225=ORIENTED_EDGE('',*,*,#480,.F.);
#226=ORIENTED_EDGE('',*,*,#483,.T.);
#227=ORIENTED_EDGE('',*,*,#473,.F.);
#228=ORIENTED_EDGE('',*,*,#484,.T.);
#229=ORIENTED_EDGE('',*,*,#485,.F.);
#230=ORIENTED_EDGE('',*,*,#486,.T.);
#231=ORIENTED_EDGE('',*,*,#487,.T.);
#232=ORIENTED_EDGE('',*,*,#488,.T.);
#233=ORIENTED_EDGE('',*,*,#485,.T.);
#234=ORIENTED_EDGE('',*,*,#489,.T.);
#235=ORIENTED_EDGE('',*,*,#487,.F.);
#236=ORIENTED_EDGE('',*,*,#490,.T.);
#237=ORIENTED_EDGE('',*,*,#491,.T.);
#238=ORIENTED_EDGE('',*,*,#492,.T.);
#239=ORIENTED_EDGE('',*,*,#493,.T.);
#240=ORIENTED_EDGE('',*,*,#494,.T.);
#241=ORIENTED_EDGE('',*,*,#495,.T.);
#242=ORIENTED_EDGE('',*,*,#496,.T.);
#243=ORIENTED_EDGE('',*,*,#497,.F.);
#244=ORIENTED_EDGE('',*,*,#498,.T.);
#245=ORIENTED_EDGE('',*,*,#499,.F.);
#246=ORIENTED_EDGE('',*,*,#500,.T.);
#247=ORIENTED_EDGE('',*,*,#501,.T.);
#248=ORIENTED_EDGE('',*,*,#502,.T.);
#249=ORIENTED_EDGE('',*,*,#503,.F.);
#250=ORIENTED_EDGE('',*,*,#504,.T.);
#251=ORIENTED_EDGE('',*,*,#505,.T.);
#252=ORIENTED_EDGE('',*,*,#506,.T.);
#253=ORIENTED_EDGE('',*,*,#507,.T.);
#254=ORIENTED_EDGE('',*,*,#508,.T.);
#255=ORIENTED_EDGE('',*,*,#509,.F.);
#256=ORIENTED_EDGE('',*,*,#510,.T.);
#257=ORIENTED_EDGE('',*,*,#511,.F.);
#258=ORIENTED_EDGE('',*,*,#512,.T.);
#259=ORIENTED_EDGE('',*,*,#513,.T.);
#260=ORIENTED_EDGE('',*,*,#514,.T.);
#261=ORIENTED_EDGE('',*,*,#515,.T.);
#262=ORIENTED_EDGE('',*,*,#516,.T.);
#263=ORIENTED_EDGE('',*,*,#517,.F.);
#264=ORIENTED_EDGE('',*,*,#518,.T.);
#265=ORIENTED_EDGE('',*,*,#519,.F.);
#266=ORIENTED_EDGE('',*,*,#503,.T.);
#267=ORIENTED_EDGE('',*,*,#520,.T.);
#268=ORIENTED_EDGE('',*,*,#521,.T.);
#269=ORIENTED_EDGE('',*,*,#522,.T.);
#270=ORIENTED_EDGE('',*,*,#523,.F.);
#271=ORIENTED_EDGE('',*,*,#524,.T.);
#272=ORIENTED_EDGE('',*,*,#505,.F.);
#273=ORIENTED_EDGE('',*,*,#525,.T.);
#274=ORIENTED_EDGE('',*,*,#526,.T.);
#275=ORIENTED_EDGE('',*,*,#527,.T.);
#276=ORIENTED_EDGE('',*,*,#509,.T.);
#277=ORIENTED_EDGE('',*,*,#528,.T.);
#278=ORIENTED_EDGE('',*,*,#511,.T.);
#279=ORIENTED_EDGE('',*,*,#529,.T.);
#280=ORIENTED_EDGE('',*,*,#530,.T.);
#281=ORIENTED_EDGE('',*,*,#531,.T.);
#282=ORIENTED_EDGE('',*,*,#532,.F.);
#283=ORIENTED_EDGE('',*,*,#533,.T.);
#284=ORIENTED_EDGE('',*,*,#513,.F.);
#285=ORIENTED_EDGE('',*,*,#534,.T.);
#286=ORIENTED_EDGE('',*,*,#535,.T.);
#287=ORIENTED_EDGE('',*,*,#536,.T.);
#288=ORIENTED_EDGE('',*,*,#517,.T.);
#289=ORIENTED_EDGE('',*,*,#537,.T.);
#290=ORIENTED_EDGE('',*,*,#538,.F.);
#291=ORIENTED_EDGE('',*,*,#539,.T.);
#292=ORIENTED_EDGE('',*,*,#540,.T.);
#293=ORIENTED_EDGE('',*,*,#541,.T.);
#294=ORIENTED_EDGE('',*,*,#542,.F.);
#295=ORIENTED_EDGE('',*,*,#543,.T.);
#296=ORIENTED_EDGE('',*,*,#538,.T.);
#297=ORIENTED_EDGE('',*,*,#544,.T.);
#298=ORIENTED_EDGE('',*,*,#540,.F.);
#299=ORIENTED_EDGE('',*,*,#545,.T.);
#300=ORIENTED_EDGE('',*,*,#546,.T.);
#301=ORIENTED_EDGE('',*,*,#547,.T.);
#302=ORIENTED_EDGE('',*,*,#519,.T.);
#303=ORIENTED_EDGE('',*,*,#548,.T.);
#304=ORIENTED_EDGE('',*,*,#547,.F.);
#305=ORIENTED_EDGE('',*,*,#549,.T.);
#306=ORIENTED_EDGE('',*,*,#544,.F.);
#307=ORIENTED_EDGE('',*,*,#541,.F.);
#308=ORIENTED_EDGE('',*,*,#535,.F.);
#309=ORIENTED_EDGE('',*,*,#550,.T.);
#310=ORIENTED_EDGE('',*,*,#551,.T.);
#311=ORIENTED_EDGE('',*,*,#552,.T.);
#312=ORIENTED_EDGE('',*,*,#532,.T.);
#313=ORIENTED_EDGE('',*,*,#553,.T.);
#314=ORIENTED_EDGE('',*,*,#530,.F.);
#315=ORIENTED_EDGE('',*,*,#554,.T.);
#316=ORIENTED_EDGE('',*,*,#526,.F.);
#317=ORIENTED_EDGE('',*,*,#555,.T.);
#318=ORIENTED_EDGE('',*,*,#556,.T.);
#319=ORIENTED_EDGE('',*,*,#557,.T.);
#320=ORIENTED_EDGE('',*,*,#523,.T.);
#321=ORIENTED_EDGE('',*,*,#558,.T.);
#322=ORIENTED_EDGE('',*,*,#521,.F.);
#323=ORIENTED_EDGE('',*,*,#559,.T.);
#324=ORIENTED_EDGE('',*,*,#548,.F.);
#325=ORIENTED_EDGE('',*,*,#546,.F.);
#326=ORIENTED_EDGE('',*,*,#560,.T.);
#327=ORIENTED_EDGE('',*,*,#542,.T.);
#328=ORIENTED_EDGE('',*,*,#549,.F.);
#329=ORIENTED_EDGE('',*,*,#515,.F.);
#330=ORIENTED_EDGE('',*,*,#561,.T.);
#331=ORIENTED_EDGE('',*,*,#551,.F.);
#332=ORIENTED_EDGE('',*,*,#562,.T.);
#333=ORIENTED_EDGE('',*,*,#556,.F.);
#334=ORIENTED_EDGE('',*,*,#563,.T.);
#335=ORIENTED_EDGE('',*,*,#507,.F.);
#336=ORIENTED_EDGE('',*,*,#564,.T.);
#337=ORIENTED_EDGE('',*,*,#497,.T.);
#338=ORIENTED_EDGE('',*,*,#565,.F.);
#339=ORIENTED_EDGE('',*,*,#566,.T.);
#340=ORIENTED_EDGE('',*,*,#567,.T.);
#341=ORIENTED_EDGE('',*,*,#568,.F.);
#342=ORIENTED_EDGE('',*,*,#569,.T.);
#343=ORIENTED_EDGE('',*,*,#570,.T.);
#344=ORIENTED_EDGE('',*,*,#571,.T.);
#345=ORIENTED_EDGE('',*,*,#498,.F.);
#346=ORIENTED_EDGE('',*,*,#571,.F.);
#347=ORIENTED_EDGE('',*,*,#572,.T.);
#348=ORIENTED_EDGE('',*,*,#565,.T.);
#349=ORIENTED_EDGE('',*,*,#501,.F.);
#350=ORIENTED_EDGE('',*,*,#573,.F.);
#351=ORIENTED_EDGE('',*,*,#475,.T.);
#352=ORIENTED_EDGE('',*,*,#574,.T.);
#353=ORIENTED_EDGE('',*,*,#502,.F.);
#354=ORIENTED_EDGE('',*,*,#574,.F.);
#355=ORIENTED_EDGE('',*,*,#474,.F.);
#356=ORIENTED_EDGE('',*,*,#488,.F.);
#357=ORIENTED_EDGE('',*,*,#489,.F.);
#358=ORIENTED_EDGE('',*,*,#484,.F.);
#359=ORIENTED_EDGE('',*,*,#476,.F.);
#360=ORIENTED_EDGE('',*,*,#573,.T.);
#361=ORIENTED_EDGE('',*,*,#499,.T.);
#362=ORIENTED_EDGE('',*,*,#575,.F.);
#363=ORIENTED_EDGE('',*,*,#576,.T.);
#364=ORIENTED_EDGE('',*,*,#577,.T.);
#365=ORIENTED_EDGE('',*,*,#578,.F.);
#366=ORIENTED_EDGE('',*,*,#579,.T.);
#367=ORIENTED_EDGE('',*,*,#580,.T.);
#368=ORIENTED_EDGE('',*,*,#581,.T.);
#369=ORIENTED_EDGE('',*,*,#500,.F.);
#370=ORIENTED_EDGE('',*,*,#581,.F.);
#371=ORIENTED_EDGE('',*,*,#582,.T.);
#372=ORIENTED_EDGE('',*,*,#575,.T.);
#373=ORIENTED_EDGE('',*,*,#495,.F.);
#374=ORIENTED_EDGE('',*,*,#583,.F.);
#375=ORIENTED_EDGE('',*,*,#471,.T.);
#376=ORIENTED_EDGE('',*,*,#584,.T.);
#377=ORIENTED_EDGE('',*,*,#496,.F.);
#378=ORIENTED_EDGE('',*,*,#584,.F.);
#379=ORIENTED_EDGE('',*,*,#470,.F.);
#380=ORIENTED_EDGE('',*,*,#481,.F.);
#381=ORIENTED_EDGE('',*,*,#482,.F.);
#382=ORIENTED_EDGE('',*,*,#477,.F.);
#383=ORIENTED_EDGE('',*,*,#472,.F.);
#384=ORIENTED_EDGE('',*,*,#583,.T.);
#385=ORIENTED_EDGE('',*,*,#580,.F.);
#386=ORIENTED_EDGE('',*,*,#585,.T.);
#387=ORIENTED_EDGE('',*,*,#576,.F.);
#388=ORIENTED_EDGE('',*,*,#582,.F.);
#389=ORIENTED_EDGE('',*,*,#570,.F.);
#390=ORIENTED_EDGE('',*,*,#586,.T.);
#391=ORIENTED_EDGE('',*,*,#566,.F.);
#392=ORIENTED_EDGE('',*,*,#572,.F.);
#393=ORIENTED_EDGE('',*,*,#587,.T.);
#394=ORIENTED_EDGE('',*,*,#568,.T.);
#395=ORIENTED_EDGE('',*,*,#588,.F.);
#396=ORIENTED_EDGE('',*,*,#589,.F.);
#397=ORIENTED_EDGE('',*,*,#567,.F.);
#398=ORIENTED_EDGE('',*,*,#586,.F.);
#399=ORIENTED_EDGE('',*,*,#569,.F.);
#400=ORIENTED_EDGE('',*,*,#587,.F.);
#401=ORIENTED_EDGE('',*,*,#590,.T.);
#402=ORIENTED_EDGE('',*,*,#588,.T.);
#403=ORIENTED_EDGE('',*,*,#589,.T.);
#404=ORIENTED_EDGE('',*,*,#590,.F.);
#405=ORIENTED_EDGE('',*,*,#479,.F.);
#406=ORIENTED_EDGE('',*,*,#483,.F.);
#407=ORIENTED_EDGE('',*,*,#591,.T.);
#408=ORIENTED_EDGE('',*,*,#578,.T.);
#409=ORIENTED_EDGE('',*,*,#592,.F.);
#410=ORIENTED_EDGE('',*,*,#593,.F.);
#411=ORIENTED_EDGE('',*,*,#577,.F.);
#412=ORIENTED_EDGE('',*,*,#585,.F.);
#413=ORIENTED_EDGE('',*,*,#579,.F.);
#414=ORIENTED_EDGE('',*,*,#591,.F.);
#415=ORIENTED_EDGE('',*,*,#594,.T.);
#416=ORIENTED_EDGE('',*,*,#592,.T.);
#417=ORIENTED_EDGE('',*,*,#593,.T.);
#418=ORIENTED_EDGE('',*,*,#594,.F.);
#419=ORIENTED_EDGE('',*,*,#486,.F.);
#420=ORIENTED_EDGE('',*,*,#490,.F.);
#421=ORIENTED_EDGE('',*,*,#595,.F.);
#422=ORIENTED_EDGE('',*,*,#494,.F.);
#423=ORIENTED_EDGE('',*,*,#596,.F.);
#424=ORIENTED_EDGE('',*,*,#560,.F.);
#425=ORIENTED_EDGE('',*,*,#596,.T.);
#426=ORIENTED_EDGE('',*,*,#493,.F.);
#427=ORIENTED_EDGE('',*,*,#597,.F.);
#428=ORIENTED_EDGE('',*,*,#543,.F.);
#429=ORIENTED_EDGE('',*,*,#595,.T.);
#430=ORIENTED_EDGE('',*,*,#545,.F.);
#431=ORIENTED_EDGE('',*,*,#598,.F.);
#432=ORIENTED_EDGE('',*,*,#491,.F.);
#433=ORIENTED_EDGE('',*,*,#597,.T.);
#434=ORIENTED_EDGE('',*,*,#492,.F.);
#435=ORIENTED_EDGE('',*,*,#598,.T.);
#436=ORIENTED_EDGE('',*,*,#539,.F.);
#437=ORIENTED_EDGE('',*,*,#518,.F.);
#438=ORIENTED_EDGE('',*,*,#536,.F.);
#439=ORIENTED_EDGE('',*,*,#554,.F.);
#440=ORIENTED_EDGE('',*,*,#529,.F.);
#441=ORIENTED_EDGE('',*,*,#510,.F.);
#442=ORIENTED_EDGE('',*,*,#527,.F.);
#443=ORIENTED_EDGE('',*,*,#559,.F.);
#444=ORIENTED_EDGE('',*,*,#520,.F.);
#445=ORIENTED_EDGE('',*,*,#508,.F.);
#446=ORIENTED_EDGE('',*,*,#563,.F.);
#447=ORIENTED_EDGE('',*,*,#555,.F.);
#448=ORIENTED_EDGE('',*,*,#528,.F.);
#449=ORIENTED_EDGE('',*,*,#506,.F.);
#450=ORIENTED_EDGE('',*,*,#524,.F.);
#451=ORIENTED_EDGE('',*,*,#557,.F.);
#452=ORIENTED_EDGE('',*,*,#564,.F.);
#453=ORIENTED_EDGE('',*,*,#514,.F.);
#454=ORIENTED_EDGE('',*,*,#533,.F.);
#455=ORIENTED_EDGE('',*,*,#552,.F.);
#456=ORIENTED_EDGE('',*,*,#561,.F.);
#457=ORIENTED_EDGE('',*,*,#516,.F.);
#458=ORIENTED_EDGE('',*,*,#562,.F.);
#459=ORIENTED_EDGE('',*,*,#550,.F.);
#460=ORIENTED_EDGE('',*,*,#537,.F.);
#461=ORIENTED_EDGE('',*,*,#504,.F.);
#462=ORIENTED_EDGE('',*,*,#522,.F.);
#463=ORIENTED_EDGE('',*,*,#558,.F.);
#464=ORIENTED_EDGE('',*,*,#525,.F.);
#465=ORIENTED_EDGE('',*,*,#512,.F.);
#466=ORIENTED_EDGE('',*,*,#531,.F.);
#467=ORIENTED_EDGE('',*,*,#553,.F.);
#468=ORIENTED_EDGE('',*,*,#534,.F.);
#469=EDGE_CURVE('',#599,#600,#685,.T.);
#470=EDGE_CURVE('',#600,#601,#185,.T.);
#471=EDGE_CURVE('',#602,#601,#686,.T.);
#472=EDGE_CURVE('',#602,#599,#186,.T.);
#473=EDGE_CURVE('',#603,#604,#687,.T.);
#474=EDGE_CURVE('',#604,#605,#187,.T.);
#475=EDGE_CURVE('',#606,#605,#688,.T.);
#476=EDGE_CURVE('',#606,#603,#188,.T.);
#477=EDGE_CURVE('',#599,#607,#189,.T.);
#478=EDGE_CURVE('',#608,#607,#190,.T.);
#479=EDGE_CURVE('',#608,#609,#689,.T.);
#480=EDGE_CURVE('',#609,#610,#191,.T.);
#481=EDGE_CURVE('',#610,#600,#192,.T.);
#482=EDGE_CURVE('',#607,#610,#27,.T.);
#483=EDGE_CURVE('',#609,#608,#28,.T.);
#484=EDGE_CURVE('',#603,#611,#193,.T.);
#485=EDGE_CURVE('',#612,#611,#194,.T.);
#486=EDGE_CURVE('',#612,#613,#690,.T.);
#487=EDGE_CURVE('',#613,#614,#195,.T.);
#488=EDGE_CURVE('',#614,#604,#196,.T.);
#489=EDGE_CURVE('',#611,#614,#29,.T.);
#490=EDGE_CURVE('',#613,#612,#30,.T.);
#491=EDGE_CURVE('',#615,#616,#31,.T.);
#492=EDGE_CURVE('',#616,#617,#691,.F.);
#493=EDGE_CURVE('',#617,#618,#32,.T.);
#494=EDGE_CURVE('',#618,#615,#692,.F.);
#495=EDGE_CURVE('',#619,#620,#693,.T.);
#496=EDGE_CURVE('',#620,#619,#33,.T.);
#497=EDGE_CURVE('',#621,#622,#34,.T.);
#498=EDGE_CURVE('',#621,#622,#694,.T.);
#499=EDGE_CURVE('',#623,#624,#35,.T.);
#500=EDGE_CURVE('',#623,#624,#695,.T.);
#501=EDGE_CURVE('',#625,#626,#696,.T.);
#502=EDGE_CURVE('',#626,#625,#36,.T.);
#503=EDGE_CURVE('',#627,#628,#37,.T.);
#504=EDGE_CURVE('',#627,#629,#697,.T.);
#505=EDGE_CURVE('',#629,#630,#38,.T.);
#506=EDGE_CURVE('',#630,#631,#698,.T.);
#507=EDGE_CURVE('',#631,#632,#39,.T.);
#508=EDGE_CURVE('',#632,#633,#699,.T.);
#509=EDGE_CURVE('',#634,#633,#40,.T.);
#510=EDGE_CURVE('',#634,#628,#700,.T.);
#511=EDGE_CURVE('',#635,#636,#41,.T.);
#512=EDGE_CURVE('',#635,#637,#701,.T.);
#513=EDGE_CURVE('',#637,#638,#42,.T.);
#514=EDGE_CURVE('',#638,#639,#702,.T.);
#515=EDGE_CURVE('',#639,#640,#43,.T.);
#516=EDGE_CURVE('',#640,#641,#703,.T.);
#517=EDGE_CURVE('',#642,#641,#44,.T.);
#518=EDGE_CURVE('',#642,#636,#704,.T.);
#519=EDGE_CURVE('',#643,#643,#705,.F.);
#520=EDGE_CURVE('',#628,#644,#45,.T.);
#521=EDGE_CURVE('',#644,#645,#46,.T.);
#522=EDGE_CURVE('',#645,#627,#47,.F.);
#523=EDGE_CURVE('',#646,#647,#48,.T.);
#524=EDGE_CURVE('',#646,#630,#49,.F.);
#525=EDGE_CURVE('',#629,#647,#50,.T.);
#526=EDGE_CURVE('',#648,#649,#51,.T.);
#527=EDGE_CURVE('',#649,#634,#52,.F.);
#528=EDGE_CURVE('',#633,#648,#53,.T.);
#529=EDGE_CURVE('',#636,#650,#54,.T.);
#530=EDGE_CURVE('',#650,#651,#55,.T.);
#531=EDGE_CURVE('',#651,#635,#56,.F.);
#532=EDGE_CURVE('',#652,#653,#57,.T.);
#533=EDGE_CURVE('',#652,#638,#58,.F.);
#534=EDGE_CURVE('',#637,#653,#59,.T.);
#535=EDGE_CURVE('',#654,#655,#60,.T.);
#536=EDGE_CURVE('',#655,#642,#61,.F.);
#537=EDGE_CURVE('',#641,#654,#62,.T.);
#538=EDGE_CURVE('',#656,#657,#63,.T.);
#539=EDGE_CURVE('',#656,#658,#706,.T.);
#540=EDGE_CURVE('',#658,#659,#64,.T.);
#541=EDGE_CURVE('',#659,#657,#707,.T.);
#542=EDGE_CURVE('',#660,#661,#65,.T.);
#543=EDGE_CURVE('',#660,#656,#66,.T.);
#544=EDGE_CURVE('',#657,#661,#67,.T.);
#545=EDGE_CURVE('',#658,#662,#68,.T.);
#546=EDGE_CURVE('',#662,#663,#69,.T.);
#547=EDGE_CURVE('',#663,#659,#70,.T.);
#548=EDGE_CURVE('',#664,#664,#708,.T.);
#549=EDGE_CURVE('',#663,#661,#709,.T.);
#550=EDGE_CURVE('',#654,#665,#710,.F.);
#551=EDGE_CURVE('',#665,#666,#71,.T.);
#552=EDGE_CURVE('',#666,#652,#711,.F.);
#553=EDGE_CURVE('',#653,#651,#712,.F.);
#554=EDGE_CURVE('',#650,#655,#713,.F.);
#555=EDGE_CURVE('',#648,#667,#714,.F.);
#556=EDGE_CURVE('',#667,#668,#72,.T.);
#557=EDGE_CURVE('',#668,#646,#715,.F.);
#558=EDGE_CURVE('',#647,#645,#716,.F.);
#559=EDGE_CURVE('',#644,#649,#717,.F.);
#560=EDGE_CURVE('',#662,#660,#718,.T.);
#561=EDGE_CURVE('',#639,#666,#73,.T.);
#562=EDGE_CURVE('',#665,#640,#74,.F.);
#563=EDGE_CURVE('',#667,#632,#75,.F.);
#564=EDGE_CURVE('',#631,#668,#76,.T.);
#565=EDGE_CURVE('',#669,#622,#77,.T.);
#566=EDGE_CURVE('',#669,#670,#197,.T.);
#567=EDGE_CURVE('',#670,#671,#198,.T.);
#568=EDGE_CURVE('',#672,#671,#78,.F.);
#569=EDGE_CURVE('',#672,#673,#199,.T.);
#570=EDGE_CURVE('',#673,#674,#200,.T.);
#571=EDGE_CURVE('',#674,#621,#79,.T.);
#572=EDGE_CURVE('',#674,#669,#719,.T.);
#573=EDGE_CURVE('',#606,#625,#80,.T.);
#574=EDGE_CURVE('',#605,#626,#81,.T.);
#575=EDGE_CURVE('',#675,#624,#82,.T.);
#576=EDGE_CURVE('',#675,#676,#201,.T.);
#577=EDGE_CURVE('',#676,#677,#202,.T.);
#578=EDGE_CURVE('',#678,#677,#83,.F.);
#579=EDGE_CURVE('',#678,#679,#203,.T.);
#580=EDGE_CURVE('',#679,#680,#204,.T.);
#581=EDGE_CURVE('',#680,#623,#84,.T.);
#582=EDGE_CURVE('',#680,#675,#720,.T.);
#583=EDGE_CURVE('',#602,#619,#85,.T.);
#584=EDGE_CURVE('',#601,#620,#86,.T.);
#585=EDGE_CURVE('',#679,#676,#721,.T.);
#586=EDGE_CURVE('',#673,#670,#722,.T.);
#587=EDGE_CURVE('',#681,#672,#205,.T.);
#588=EDGE_CURVE('',#682,#671,#206,.T.);
#589=EDGE_CURVE('',#681,#682,#87,.F.);
#590=EDGE_CURVE('',#681,#682,#723,.T.);
#591=EDGE_CURVE('',#683,#678,#207,.T.);
#592=EDGE_CURVE('',#684,#677,#208,.T.);
#593=EDGE_CURVE('',#683,#684,#88,.F.);
#594=EDGE_CURVE('',#683,#684,#724,.T.);
#595=EDGE_CURVE('',#615,#662,#89,.T.);
#596=EDGE_CURVE('',#660,#618,#90,.T.);
#597=EDGE_CURVE('',#656,#617,#91,.T.);
#598=EDGE_CURVE('',#616,#658,#92,.T.);
#599=VERTEX_POINT('',#1267);
#600=VERTEX_POINT('',#1268);
#601=VERTEX_POINT('',#1273);
#602=VERTEX_POINT('',#1275);
#603=VERTEX_POINT('',#1282);
#604=VERTEX_POINT('',#1283);
#605=VERTEX_POINT('',#1288);
#606=VERTEX_POINT('',#1290);
#607=VERTEX_POINT('',#1300);
#608=VERTEX_POINT('',#1306);
#609=VERTEX_POINT('',#1308);
#610=VERTEX_POINT('',#1314);
#611=VERTEX_POINT('',#1327);
#612=VERTEX_POINT('',#1333);
#613=VERTEX_POINT('',#1335);
#614=VERTEX_POINT('',#1341);
#615=VERTEX_POINT('',#1351);
#616=VERTEX_POINT('',#1352);
#617=VERTEX_POINT('',#1354);
#618=VERTEX_POINT('',#1356);
#619=VERTEX_POINT('',#1359);
#620=VERTEX_POINT('',#1360);
#621=VERTEX_POINT('',#1363);
#622=VERTEX_POINT('',#1364);
#623=VERTEX_POINT('',#1367);
#624=VERTEX_POINT('',#1368);
#625=VERTEX_POINT('',#1371);
#626=VERTEX_POINT('',#1372);
#627=VERTEX_POINT('',#1375);
#628=VERTEX_POINT('',#1376);
#629=VERTEX_POINT('',#1378);
#630=VERTEX_POINT('',#1380);
#631=VERTEX_POINT('',#1382);
#632=VERTEX_POINT('',#1384);
#633=VERTEX_POINT('',#1386);
#634=VERTEX_POINT('',#1388);
#635=VERTEX_POINT('',#1391);
#636=VERTEX_POINT('',#1392);
#637=VERTEX_POINT('',#1394);
#638=VERTEX_POINT('',#1396);
#639=VERTEX_POINT('',#1398);
#640=VERTEX_POINT('',#1400);
#641=VERTEX_POINT('',#1402);
#642=VERTEX_POINT('',#1404);
#643=VERTEX_POINT('',#1407);
#644=VERTEX_POINT('',#1410);
#645=VERTEX_POINT('',#1412);
#646=VERTEX_POINT('',#1416);
#647=VERTEX_POINT('',#1417);
#648=VERTEX_POINT('',#1422);
#649=VERTEX_POINT('',#1423);
#650=VERTEX_POINT('',#1428);
#651=VERTEX_POINT('',#1430);
#652=VERTEX_POINT('',#1434);
#653=VERTEX_POINT('',#1435);
#654=VERTEX_POINT('',#1440);
#655=VERTEX_POINT('',#1441);
#656=VERTEX_POINT('',#1446);
#657=VERTEX_POINT('',#1447);
#658=VERTEX_POINT('',#1449);
#659=VERTEX_POINT('',#1451);
#660=VERTEX_POINT('',#1455);
#661=VERTEX_POINT('',#1456);
#662=VERTEX_POINT('',#1461);
#663=VERTEX_POINT('',#1463);
#664=VERTEX_POINT('',#1467);
#665=VERTEX_POINT('',#1471);
#666=VERTEX_POINT('',#1473);
#667=VERTEX_POINT('',#1478);
#668=VERTEX_POINT('',#1480);
#669=VERTEX_POINT('',#1494);
#670=VERTEX_POINT('',#1499);
#671=VERTEX_POINT('',#1504);
#672=VERTEX_POINT('',#1506);
#673=VERTEX_POINT('',#1511);
#674=VERTEX_POINT('',#1516);
#675=VERTEX_POINT('',#1526);
#676=VERTEX_POINT('',#1531);
#677=VERTEX_POINT('',#1536);
#678=VERTEX_POINT('',#1538);
#679=VERTEX_POINT('',#1543);
#680=VERTEX_POINT('',#1548);
#681=VERTEX_POINT('',#1566);
#682=VERTEX_POINT('',#1572);
#683=VERTEX_POINT('',#1584);
#684=VERTEX_POINT('',#1590);
#685=CIRCLE('',#924,0.00260265396141693);
#686=CIRCLE('',#925,0.00225);
#687=CIRCLE('',#927,0.00260265396141693);
#688=CIRCLE('',#928,0.00225);
#689=CIRCLE('',#930,0.00153085719169244);
#690=CIRCLE('',#933,0.00153085719169244);
#691=CIRCLE('',#936,0.00625);
#692=CIRCLE('',#937,0.00625);
#693=CIRCLE('',#938,0.00225);
#694=CIRCLE('',#939,0.00225);
#695=CIRCLE('',#940,0.00225);
#696=CIRCLE('',#941,0.00225);
#697=CIRCLE('',#942,0.00125);
#698=CIRCLE('',#943,0.00125);
#699=CIRCLE('',#944,0.00125);
#700=CIRCLE('',#945,0.00125);
#701=CIRCLE('',#946,0.00125);
#702=CIRCLE('',#947,0.00125);
#703=CIRCLE('',#948,0.00125);
#704=CIRCLE('',#949,0.00125);
#705=CIRCLE('',#950,0.00325);
#706=CIRCLE('',#958,0.007);
#707=CIRCLE('',#959,0.007);
#708=CIRCLE('',#963,0.00325);
#709=CIRCLE('',#965,0.007);
#710=CIRCLE('',#966,0.00125);
#711=CIRCLE('',#967,0.00125);
#712=CIRCLE('',#968,0.00125);
#713=CIRCLE('',#969,0.00125);
#714=CIRCLE('',#970,0.00125);
#715=CIRCLE('',#971,0.00125);
#716=CIRCLE('',#972,0.00125);
#717=CIRCLE('',#973,0.00125);
#718=CIRCLE('',#975,0.007);
#719=CIRCLE('',#980,0.00225);
#720=CIRCLE('',#985,0.00225);
#721=CIRCLE('',#989,0.00260265396141693);
#722=CIRCLE('',#991,0.00260265396141693);
#723=CIRCLE('',#994,0.00153085719169244);
#724=CIRCLE('',#999,0.00153085719169244);
#725=EDGE_LOOP('',(#209,#210,#211,#212));
#726=EDGE_LOOP('',(#213,#214,#215,#216));
#727=EDGE_LOOP('',(#217,#218,#219,#220,#221,#222));
#728=EDGE_LOOP('',(#223,#224,#225,#226));
#729=EDGE_LOOP('',(#227,#228,#229,#230,#231,#232));
#730=EDGE_LOOP('',(#233,#234,#235,#236));
#731=EDGE_LOOP('',(#237,#238,#239,#240));
#732=EDGE_LOOP('',(#241,#242));
#733=EDGE_LOOP('',(#243,#244));
#734=EDGE_LOOP('',(#245,#246));
#735=EDGE_LOOP('',(#247,#248));
#736=EDGE_LOOP('',(#249,#250,#251,#252,#253,#254,#255,#256));
#737=EDGE_LOOP('',(#257,#258,#259,#260,#261,#262,#263,#264));
#738=EDGE_LOOP('',(#265));
#739=EDGE_LOOP('',(#266,#267,#268,#269));
#740=EDGE_LOOP('',(#270,#271,#272,#273));
#741=EDGE_LOOP('',(#274,#275,#276,#277));
#742=EDGE_LOOP('',(#278,#279,#280,#281));
#743=EDGE_LOOP('',(#282,#283,#284,#285));
#744=EDGE_LOOP('',(#286,#287,#288,#289));
#745=EDGE_LOOP('',(#290,#291,#292,#293));
#746=EDGE_LOOP('',(#294,#295,#296,#297));
#747=EDGE_LOOP('',(#298,#299,#300,#301));
#748=EDGE_LOOP('',(#302));
#749=EDGE_LOOP('',(#303));
#750=EDGE_LOOP('',(#304,#305,#306,#307));
#751=EDGE_LOOP('',(#308,#309,#310,#311,#312,#313,#314,#315));
#752=EDGE_LOOP('',(#316,#317,#318,#319,#320,#321,#322,#323));
#753=EDGE_LOOP('',(#324));
#754=EDGE_LOOP('',(#325,#326,#327,#328));
#755=EDGE_LOOP('',(#329,#330,#331,#332));
#756=EDGE_LOOP('',(#333,#334,#335,#336));
#757=EDGE_LOOP('',(#337,#338,#339,#340,#341,#342,#343,#344));
#758=EDGE_LOOP('',(#345,#346,#347,#348));
#759=EDGE_LOOP('',(#349,#350,#351,#352));
#760=EDGE_LOOP('',(#353,#354,#355,#356,#357,#358,#359,#360));
#761=EDGE_LOOP('',(#361,#362,#363,#364,#365,#366,#367,#368));
#762=EDGE_LOOP('',(#369,#370,#371,#372));
#763=EDGE_LOOP('',(#373,#374,#375,#376));
#764=EDGE_LOOP('',(#377,#378,#379,#380,#381,#382,#383,#384));
#765=EDGE_LOOP('',(#385,#386,#387,#388));
#766=EDGE_LOOP('',(#389,#390,#391,#392));
#767=EDGE_LOOP('',(#393,#394,#395,#396));
#768=EDGE_LOOP('',(#397,#398,#399,#400,#401,#402));
#769=EDGE_LOOP('',(#403,#404));
#770=EDGE_LOOP('',(#405,#406));
#771=EDGE_LOOP('',(#407,#408,#409,#410));
#772=EDGE_LOOP('',(#411,#412,#413,#414,#415,#416));
#773=EDGE_LOOP('',(#417,#418));
#774=EDGE_LOOP('',(#419,#420));
#775=EDGE_LOOP('',(#421,#422,#423,#424));
#776=EDGE_LOOP('',(#425,#426,#427,#428));
#777=EDGE_LOOP('',(#429,#430,#431,#432));
#778=EDGE_LOOP('',(#433,#434,#435,#436));
#779=EDGE_LOOP('',(#437,#438,#439,#440));
#780=EDGE_LOOP('',(#441,#442,#443,#444));
#781=EDGE_LOOP('',(#445,#446,#447,#448));
#782=EDGE_LOOP('',(#449,#450,#451,#452));
#783=EDGE_LOOP('',(#453,#454,#455,#456));
#784=EDGE_LOOP('',(#457,#458,#459,#460));
#785=EDGE_LOOP('',(#461,#462,#463,#464));
#786=EDGE_LOOP('',(#465,#466,#467,#468));
#787=FACE_BOUND('',#725,.T.);
#788=FACE_BOUND('',#726,.T.);
#789=FACE_BOUND('',#727,.T.);
#790=FACE_BOUND('',#728,.T.);
#791=FACE_BOUND('',#729,.T.);
#792=FACE_BOUND('',#730,.T.);
#793=FACE_BOUND('',#731,.T.);
#794=FACE_BOUND('',#732,.T.);
#795=FACE_BOUND('',#733,.T.);
#796=FACE_BOUND('',#734,.T.);
#797=FACE_BOUND('',#735,.T.);
#798=FACE_BOUND('',#736,.T.);
#799=FACE_BOUND('',#737,.T.);
#800=FACE_BOUND('',#738,.T.);
#801=FACE_BOUND('',#739,.T.);
#802=FACE_BOUND('',#740,.T.);
#803=FACE_BOUND('',#741,.T.);
#804=FACE_BOUND('',#742,.T.);
#805=FACE_BOUND('',#743,.T.);
#806=FACE_BOUND('',#744,.T.);
#807=FACE_BOUND('',#745,.T.);
#808=FACE_BOUND('',#746,.T.);
#809=FACE_BOUND('',#747,.T.);
#810=FACE_BOUND('',#748,.T.);
#811=FACE_BOUND('',#749,.T.);
#812=FACE_BOUND('',#750,.T.);
#813=FACE_BOUND('',#751,.T.);
#814=FACE_BOUND('',#752,.T.);
#815=FACE_BOUND('',#753,.T.);
#816=FACE_BOUND('',#754,.T.);
#817=FACE_BOUND('',#755,.T.);
#818=FACE_BOUND('',#756,.T.);
#819=FACE_BOUND('',#757,.T.);
#820=FACE_BOUND('',#758,.T.);
#821=FACE_BOUND('',#759,.T.);
#822=FACE_BOUND('',#760,.T.);
#823=FACE_BOUND('',#761,.T.);
#824=FACE_BOUND('',#762,.T.);
#825=FACE_BOUND('',#763,.T.);
#826=FACE_BOUND('',#764,.T.);
#827=FACE_BOUND('',#765,.T.);
#828=FACE_BOUND('',#766,.T.);
#829=FACE_BOUND('',#767,.T.);
#830=FACE_BOUND('',#768,.T.);
#831=FACE_BOUND('',#769,.T.);
#832=FACE_BOUND('',#770,.T.);
#833=FACE_BOUND('',#771,.T.);
#834=FACE_BOUND('',#772,.T.);
#835=FACE_BOUND('',#773,.T.);
#836=FACE_BOUND('',#774,.T.);
#837=FACE_BOUND('',#775,.T.);
#838=FACE_BOUND('',#776,.T.);
#839=FACE_BOUND('',#777,.T.);
#840=FACE_BOUND('',#778,.T.);
#841=FACE_BOUND('',#779,.T.);
#842=FACE_BOUND('',#780,.T.);
#843=FACE_BOUND('',#781,.T.);
#844=FACE_BOUND('',#782,.T.);
#845=FACE_BOUND('',#783,.T.);
#846=FACE_BOUND('',#784,.T.);
#847=FACE_BOUND('',#785,.T.);
#848=FACE_BOUND('',#786,.T.);
#849=CONICAL_SURFACE('',#923,0.00225,0.174532925199433);
#850=CONICAL_SURFACE('',#926,0.00225,0.174532925199433);
#851=CONICAL_SURFACE('',#929,0.00260265396141693,0.26179938779915);
#852=CONICAL_SURFACE('',#932,0.00260265396141693,0.26179938779915);
#853=CONICAL_SURFACE('',#988,0.00225,0.174532925199433);
#854=CONICAL_SURFACE('',#990,0.00225,0.174532925199433);
#855=CONICAL_SURFACE('',#993,0.00260265396141693,0.26179938779915);
#856=CONICAL_SURFACE('',#998,0.00260265396141693,0.26179938779915);
#857=CONICAL_SURFACE('',#1002,0.00625,0.785398163397448);
#858=CONICAL_SURFACE('',#1005,0.007,0.785398163397448);
#859=ADVANCED_FACE('',(#787),#849,.T.);
#860=ADVANCED_FACE('',(#788),#850,.T.);
#861=ADVANCED_FACE('',(#789),#851,.T.);
#862=ADVANCED_FACE('',(#790),#159,.T.);
#863=ADVANCED_FACE('',(#791),#852,.T.);
#864=ADVANCED_FACE('',(#792),#160,.T.);
#865=ADVANCED_FACE('',(#793,#794,#795,#796,#797,#798,#799,#800),#161,.F.);
#866=ADVANCED_FACE('',(#801),#162,.F.);
#867=ADVANCED_FACE('',(#802),#163,.T.);
#868=ADVANCED_FACE('',(#803),#164,.F.);
#869=ADVANCED_FACE('',(#804),#165,.F.);
#870=ADVANCED_FACE('',(#805),#166,.T.);
#871=ADVANCED_FACE('',(#806),#167,.F.);
#872=ADVANCED_FACE('',(#807),#12,.T.);
#873=ADVANCED_FACE('',(#808),#168,.F.);
#874=ADVANCED_FACE('',(#809),#169,.F.);
#875=ADVANCED_FACE('',(#810,#811),#13,.F.);
#876=ADVANCED_FACE('',(#812,#813,#814,#815),#170,.T.);
#877=ADVANCED_FACE('',(#816),#14,.T.);
#878=ADVANCED_FACE('',(#817),#171,.T.);
#879=ADVANCED_FACE('',(#818),#172,.T.);
#880=ADVANCED_FACE('',(#819),#173,.F.);
#881=ADVANCED_FACE('',(#820),#15,.T.);
#882=ADVANCED_FACE('',(#821),#16,.T.);
#883=ADVANCED_FACE('',(#822),#174,.T.);
#884=ADVANCED_FACE('',(#823),#175,.F.);
#885=ADVANCED_FACE('',(#824),#17,.T.);
#886=ADVANCED_FACE('',(#825),#18,.T.);
#887=ADVANCED_FACE('',(#826),#176,.T.);
#888=ADVANCED_FACE('',(#827),#853,.T.);
#889=ADVANCED_FACE('',(#828),#854,.T.);
#890=ADVANCED_FACE('',(#829),#177,.T.);
#891=ADVANCED_FACE('',(#830),#855,.T.);
#892=ADVANCED_FACE('',(#831),#178,.F.);
#893=ADVANCED_FACE('',(#832),#179,.F.);
#894=ADVANCED_FACE('',(#833),#180,.T.);
#895=ADVANCED_FACE('',(#834),#856,.T.);
#896=ADVANCED_FACE('',(#835),#181,.F.);
#897=ADVANCED_FACE('',(#836),#182,.F.);
#898=ADVANCED_FACE('',(#837),#857,.T.);
#899=ADVANCED_FACE('',(#838),#183,.F.);
#900=ADVANCED_FACE('',(#839),#184,.F.);
#901=ADVANCED_FACE('',(#840),#858,.T.);
#902=ADVANCED_FACE('',(#841),#19,.F.);
#903=ADVANCED_FACE('',(#842),#20,.F.);
#904=ADVANCED_FACE('',(#843),#21,.F.);
#905=ADVANCED_FACE('',(#844),#22,.F.);
#906=ADVANCED_FACE('',(#845),#23,.F.);
#907=ADVANCED_FACE('',(#846),#24,.F.);
#908=ADVANCED_FACE('',(#847),#25,.F.);
#909=ADVANCED_FACE('',(#848),#26,.F.);
#910=CLOSED_SHELL('',(#859,#860,#861,#862,#863,#864,#865,#866,#867,#868,
#869,#870,#871,#872,#873,#874,#875,#876,#877,#878,#879,#880,#881,#882,#883,
#884,#885,#886,#887,#888,#889,#890,#891,#892,#893,#894,#895,#896,#897,#898,
#899,#900,#901,#902,#903,#904,#905,#906,#907,#908,#909));
#911=STYLED_ITEM('',(#912),#919);
#912=PRESENTATION_STYLE_ASSIGNMENT((#913));
#913=SURFACE_STYLE_USAGE(.BOTH.,#914);
#914=SURFACE_SIDE_STYLE('',(#915));
#915=SURFACE_STYLE_FILL_AREA(#916);
#916=FILL_AREA_STYLE('',(#917));
#917=FILL_AREA_STYLE_COLOUR('',#918);
#918=COLOUR_RGB('',0.0627450980392157,0.0627450980392157,0.0627450980392157);
#919=MANIFOLD_SOLID_BREP('Front Port Cover',#910);
#920=SHAPE_DEFINITION_REPRESENTATION(#1618,#921);
#921=SHAPE_REPRESENTATION('Front Port Cover',(#922),#1613);
#922=AXIS2_PLACEMENT_3D('',#1264,#1014,#1015);
#923=AXIS2_PLACEMENT_3D('',#1265,#1016,#1017);
#924=AXIS2_PLACEMENT_3D('',#1266,#1018,#1019);
#925=AXIS2_PLACEMENT_3D('',#1274,#1020,#1021);
#926=AXIS2_PLACEMENT_3D('',#1280,#1022,#1023);
#927=AXIS2_PLACEMENT_3D('',#1281,#1024,#1025);
#928=AXIS2_PLACEMENT_3D('',#1289,#1026,#1027);
#929=AXIS2_PLACEMENT_3D('',#1295,#1028,#1029);
#930=AXIS2_PLACEMENT_3D('',#1307,#1030,#1031);
#931=AXIS2_PLACEMENT_3D('',#1319,#1032,#1033);
#932=AXIS2_PLACEMENT_3D('',#1322,#1036,#1037);
#933=AXIS2_PLACEMENT_3D('',#1334,#1038,#1039);
#934=AXIS2_PLACEMENT_3D('',#1346,#1040,#1041);
#935=AXIS2_PLACEMENT_3D('',#1349,#1044,#1045);
#936=AXIS2_PLACEMENT_3D('',#1353,#1047,#1048);
#937=AXIS2_PLACEMENT_3D('',#1357,#1050,#1051);
#938=AXIS2_PLACEMENT_3D('',#1358,#1052,#1053);
#939=AXIS2_PLACEMENT_3D('',#1365,#1056,#1057);
#940=AXIS2_PLACEMENT_3D('',#1369,#1059,#1060);
#941=AXIS2_PLACEMENT_3D('',#1370,#1061,#1062);
#942=AXIS2_PLACEMENT_3D('',#1377,#1065,#1066);
#943=AXIS2_PLACEMENT_3D('',#1381,#1068,#1069);
#944=AXIS2_PLACEMENT_3D('',#1385,#1071,#1072);
#945=AXIS2_PLACEMENT_3D('',#1389,#1074,#1075);
#946=AXIS2_PLACEMENT_3D('',#1393,#1077,#1078);
#947=AXIS2_PLACEMENT_3D('',#1397,#1080,#1081);
#948=AXIS2_PLACEMENT_3D('',#1401,#1083,#1084);
#949=AXIS2_PLACEMENT_3D('',#1405,#1086,#1087);
#950=AXIS2_PLACEMENT_3D('',#1406,#1088,#1089);
#951=AXIS2_PLACEMENT_3D('',#1408,#1090,#1091);
#952=AXIS2_PLACEMENT_3D('',#1414,#1095,#1096);
#953=AXIS2_PLACEMENT_3D('',#1420,#1100,#1101);
#954=AXIS2_PLACEMENT_3D('',#1426,#1105,#1106);
#955=AXIS2_PLACEMENT_3D('',#1432,#1110,#1111);
#956=AXIS2_PLACEMENT_3D('',#1438,#1115,#1116);
#957=AXIS2_PLACEMENT_3D('',#1444,#1120,#1121);
#958=AXIS2_PLACEMENT_3D('',#1448,#1123,#1124);
#959=AXIS2_PLACEMENT_3D('',#1452,#1126,#1127);
#960=AXIS2_PLACEMENT_3D('',#1453,#1128,#1129);
#961=AXIS2_PLACEMENT_3D('',#1459,#1133,#1134);
#962=AXIS2_PLACEMENT_3D('',#1465,#1138,#1139);
#963=AXIS2_PLACEMENT_3D('',#1466,#1140,#1141);
#964=AXIS2_PLACEMENT_3D('',#1468,#1142,#1143);
#965=AXIS2_PLACEMENT_3D('',#1469,#1144,#1145);
#966=AXIS2_PLACEMENT_3D('',#1470,#1146,#1147);
#967=AXIS2_PLACEMENT_3D('',#1474,#1149,#1150);
#968=AXIS2_PLACEMENT_3D('',#1475,#1151,#1152);
#969=AXIS2_PLACEMENT_3D('',#1476,#1153,#1154);
#970=AXIS2_PLACEMENT_3D('',#1477,#1155,#1156);
#971=AXIS2_PLACEMENT_3D('',#1481,#1158,#1159);
#972=AXIS2_PLACEMENT_3D('',#1482,#1160,#1161);
#973=AXIS2_PLACEMENT_3D('',#1483,#1162,#1163);
#974=AXIS2_PLACEMENT_3D('',#1484,#1164,#1165);
#975=AXIS2_PLACEMENT_3D('',#1485,#1166,#1167);
#976=AXIS2_PLACEMENT_3D('',#1486,#1168,#1169);
#977=AXIS2_PLACEMENT_3D('',#1489,#1172,#1173);
#978=AXIS2_PLACEMENT_3D('',#1492,#1176,#1177);
#979=AXIS2_PLACEMENT_3D('',#1518,#1181,#1182);
#980=AXIS2_PLACEMENT_3D('',#1519,#1183,#1184);
#981=AXIS2_PLACEMENT_3D('',#1520,#1185,#1186);
#982=AXIS2_PLACEMENT_3D('',#1523,#1189,#1190);
#983=AXIS2_PLACEMENT_3D('',#1524,#1191,#1192);
#984=AXIS2_PLACEMENT_3D('',#1550,#1196,#1197);
#985=AXIS2_PLACEMENT_3D('',#1551,#1198,#1199);
#986=AXIS2_PLACEMENT_3D('',#1552,#1200,#1201);
#987=AXIS2_PLACEMENT_3D('',#1555,#1204,#1205);
#988=AXIS2_PLACEMENT_3D('',#1556,#1206,#1207);
#989=AXIS2_PLACEMENT_3D('',#1557,#1208,#1209);
#990=AXIS2_PLACEMENT_3D('',#1558,#1210,#1211);
#991=AXIS2_PLACEMENT_3D('',#1559,#1212,#1213);
#992=AXIS2_PLACEMENT_3D('',#1560,#1214,#1215);
#993=AXIS2_PLACEMENT_3D('',#1574,#1217,#1218);
#994=AXIS2_PLACEMENT_3D('',#1575,#1219,#1220);
#995=AXIS2_PLACEMENT_3D('',#1576,#1221,#1222);
#996=AXIS2_PLACEMENT_3D('',#1577,#1223,#1224);
#997=AXIS2_PLACEMENT_3D('',#1578,#1225,#1226);
#998=AXIS2_PLACEMENT_3D('',#1592,#1228,#1229);
#999=AXIS2_PLACEMENT_3D('',#1593,#1230,#1231);
#1000=AXIS2_PLACEMENT_3D('',#1594,#1232,#1233);
#1001=AXIS2_PLACEMENT_3D('',#1595,#1234,#1235);
#1002=AXIS2_PLACEMENT_3D('',#1596,#1236,#1237);
#1003=AXIS2_PLACEMENT_3D('',#1599,#1240,#1241);
#1004=AXIS2_PLACEMENT_3D('',#1601,#1243,#1244);
#1005=AXIS2_PLACEMENT_3D('',#1603,#1246,#1247);
#1006=AXIS2_PLACEMENT_3D('',#1604,#1248,#1249);
#1007=AXIS2_PLACEMENT_3D('',#1605,#1250,#1251);
#1008=AXIS2_PLACEMENT_3D('',#1606,#1252,#1253);
#1009=AXIS2_PLACEMENT_3D('',#1607,#1254,#1255);
#1010=AXIS2_PLACEMENT_3D('',#1608,#1256,#1257);
#1011=AXIS2_PLACEMENT_3D('',#1609,#1258,#1259);
#1012=AXIS2_PLACEMENT_3D('',#1610,#1260,#1261);
#1013=AXIS2_PLACEMENT_3D('',#1611,#1262,#1263);
#1014=DIRECTION('',(0.,0.,1.));
#1015=DIRECTION('',(1.,0.,0.));
#1016=DIRECTION('',(0.,1.,0.));
#1017=DIRECTION('',(0.,0.,1.));
#1018=DIRECTION('',(0.,-1.,0.));
#1019=DIRECTION('',(0.,0.,-1.));
#1020=DIRECTION('',(0.,-1.,0.));
#1021=DIRECTION('',(0.,0.,-1.));
#1022=DIRECTION('',(0.,1.,0.));
#1023=DIRECTION('',(0.,0.,1.));
#1024=DIRECTION('',(0.,-1.,0.));
#1025=DIRECTION('',(0.,0.,-1.));
#1026=DIRECTION('',(0.,-1.,0.));
#1027=DIRECTION('',(0.,0.,-1.));
#1028=DIRECTION('',(0.,-1.,0.));
#1029=DIRECTION('',(0.,0.,1.));
#1030=DIRECTION('',(0.,-1.,0.));
#1031=DIRECTION('',(0.,0.,-1.));
#1032=DIRECTION('',(0.965925826289068,0.258819045102521,0.));
#1033=DIRECTION('',(-0.258819045102521,0.965925826289068,0.));
#1034=DIRECTION('',(0.,0.,-1.));
#1035=DIRECTION('',(0.,0.,1.));
#1036=DIRECTION('',(0.,-1.,0.));
#1037=DIRECTION('',(0.,0.,1.));
#1038=DIRECTION('',(0.,-1.,0.));
#1039=DIRECTION('',(0.,0.,-1.));
#1040=DIRECTION('',(0.965925826289068,0.258819045102521,-9.44101650839037E-17));
#1041=DIRECTION('',(-0.258819045102521,0.965925826289068,2.5297127491521E-17));
#1042=DIRECTION('',(0.,-3.64772866875028E-16,-1.));
#1043=DIRECTION('',(9.77405950999492E-17,0.,1.));
#1044=DIRECTION('',(0.,-1.,0.));
#1045=DIRECTION('',(1.,0.,0.));
#1046=DIRECTION('',(1.,0.,0.));
#1047=DIRECTION('',(0.,-1.,0.));
#1048=DIRECTION('',(0.,0.,-1.));
#1049=DIRECTION('',(-1.,0.,-1.92747052886312E-16));
#1050=DIRECTION('',(0.,-1.,0.));
#1051=DIRECTION('',(0.,0.,-1.));
#1052=DIRECTION('',(0.,-1.,0.));
#1053=DIRECTION('',(0.,0.,-1.));
#1054=DIRECTION('',(0.,0.,1.));
#1055=DIRECTION('',(0.,0.,1.));
#1056=DIRECTION('',(0.,-1.,0.));
#1057=DIRECTION('',(0.,0.,-1.));
#1058=DIRECTION('',(0.,0.,1.));
#1059=DIRECTION('',(0.,-1.,0.));
#1060=DIRECTION('',(0.,0.,-1.));
#1061=DIRECTION('',(0.,-1.,0.));
#1062=DIRECTION('',(0.,0.,-1.));
#1063=DIRECTION('',(9.77405950999493E-17,0.,1.));
#1064=DIRECTION('',(1.,0.,5.13992141030165E-16));
#1065=DIRECTION('',(0.,-1.,0.));
#1066=DIRECTION('',(0.,0.,-1.));
#1067=DIRECTION('',(2.89120579329468E-16,0.,-1.));
#1068=DIRECTION('',(0.,-1.,0.));
#1069=DIRECTION('',(0.,0.,-1.));
#1070=DIRECTION('',(1.,0.,5.13992141030165E-16));
#1071=DIRECTION('',(0.,-1.,0.));
#1072=DIRECTION('',(0.,0.,-1.));
#1073=DIRECTION('',(3.0719061553756E-16,0.,-1.));
#1074=DIRECTION('',(0.,-1.,0.));
#1075=DIRECTION('',(0.,0.,-1.));
#1076=DIRECTION('',(1.,0.,0.));
#1077=DIRECTION('',(0.,-1.,0.));
#1078=DIRECTION('',(0.,0.,-1.));
#1079=DIRECTION('',(0.,0.,-1.));
#1080=DIRECTION('',(0.,-1.,0.));
#1081=DIRECTION('',(0.,0.,-1.));
#1082=DIRECTION('',(1.,0.,0.));
#1083=DIRECTION('',(0.,-1.,0.));
#1084=DIRECTION('',(0.,0.,-1.));
#1085=DIRECTION('',(0.,0.,-1.));
#1086=DIRECTION('',(0.,-1.,0.));
#1087=DIRECTION('',(0.,0.,-1.));
#1088=DIRECTION('',(0.,-1.,0.));
#1089=DIRECTION('',(0.,0.,-1.));
#1090=DIRECTION('',(-5.13992141030165E-16,0.,1.));
#1091=DIRECTION('',(1.,0.,5.13992141030165E-16));
#1092=DIRECTION('',(0.,-1.,0.));
#1093=DIRECTION('',(-1.,0.,-5.13992141030165E-16));
#1094=DIRECTION('',(0.,-1.,0.));
#1095=DIRECTION('',(1.,0.,2.89120579329468E-16));
#1096=DIRECTION('',(2.89120579329468E-16,0.,-1.));
#1097=DIRECTION('',(-2.89120579329468E-16,0.,1.));
#1098=DIRECTION('',(0.,-1.,0.));
#1099=DIRECTION('',(0.,-1.,0.));
#1100=DIRECTION('',(1.,0.,3.0719061553756E-16));
#1101=DIRECTION('',(3.0719061553756E-16,0.,-1.));
#1102=DIRECTION('',(-3.0719061553756E-16,0.,1.));
#1103=DIRECTION('',(0.,-1.,0.));
#1104=DIRECTION('',(0.,-1.,0.));
#1105=DIRECTION('',(0.,0.,1.));
#1106=DIRECTION('',(1.,0.,0.));
#1107=DIRECTION('',(0.,-1.,0.));
#1108=DIRECTION('',(-1.,0.,0.));
#1109=DIRECTION('',(0.,-1.,0.));
#1110=DIRECTION('',(1.,0.,0.));
#1111=DIRECTION('',(0.,0.,-1.));
#1112=DIRECTION('',(0.,0.,1.));
#1113=DIRECTION('',(0.,-1.,0.));
#1114=DIRECTION('',(0.,-1.,0.));
#1115=DIRECTION('',(1.,0.,0.));
#1116=DIRECTION('',(0.,0.,-1.));
#1117=DIRECTION('',(0.,0.,1.));
#1118=DIRECTION('',(0.,-1.,0.));
#1119=DIRECTION('',(0.,-1.,0.));
#1120=DIRECTION('',(0.,-1.,0.));
#1121=DIRECTION('',(0.,0.,-1.));
#1122=DIRECTION('',(0.,-1.,0.));
#1123=DIRECTION('',(0.,-1.,0.));
#1124=DIRECTION('',(0.,0.,-1.));
#1125=DIRECTION('',(0.,-1.,0.));
#1126=DIRECTION('',(0.,1.,0.));
#1127=DIRECTION('',(0.,0.,-1.));
#1128=DIRECTION('',(-1.92747052886312E-16,0.,1.));
#1129=DIRECTION('',(1.,0.,1.92747052886312E-16));
#1130=DIRECTION('',(0.,-1.,0.));
#1131=DIRECTION('',(1.,0.,1.92747052886312E-16));
#1132=DIRECTION('',(-1.,0.,-1.92747052886312E-16));
#1133=DIRECTION('',(0.,0.,-1.));
#1134=DIRECTION('',(-1.,0.,0.));
#1135=DIRECTION('',(-1.,0.,0.));
#1136=DIRECTION('',(0.,-1.,0.));
#1137=DIRECTION('',(1.,0.,0.));
#1138=DIRECTION('',(0.,-1.,0.));
#1139=DIRECTION('',(0.,0.,-1.));
#1140=DIRECTION('',(0.,-1.,0.));
#1141=DIRECTION('',(0.,0.,-1.));
#1142=DIRECTION('',(0.,-1.,0.));
#1143=DIRECTION('',(1.,0.,0.));
#1144=DIRECTION('',(0.,-1.,0.));
#1145=DIRECTION('',(0.,0.,-1.));
#1146=DIRECTION('',(0.,-1.,0.));
#1147=DIRECTION('',(0.,0.,-1.));
#1148=DIRECTION('',(-1.,0.,0.));
#1149=DIRECTION('',(0.,-1.,0.));
#1150=DIRECTION('',(0.,0.,-1.));
#1151=DIRECTION('',(0.,-1.,0.));
#1152=DIRECTION('',(0.,0.,-1.));
#1153=DIRECTION('',(0.,-1.,0.));
#1154=DIRECTION('',(0.,0.,-1.));
#1155=DIRECTION('',(0.,-1.,0.));
#1156=DIRECTION('',(0.,0.,-1.));
#1157=DIRECTION('',(-1.,0.,-5.13992141030165E-16));
#1158=DIRECTION('',(0.,-1.,0.));
#1159=DIRECTION('',(0.,0.,-1.));
#1160=DIRECTION('',(0.,-1.,0.));
#1161=DIRECTION('',(0.,0.,-1.));
#1162=DIRECTION('',(0.,-1.,0.));
#1163=DIRECTION('',(0.,0.,-1.));
#1164=DIRECTION('',(0.,-1.,0.));
#1165=DIRECTION('',(0.,0.,-1.));
#1166=DIRECTION('',(0.,-1.,0.));
#1167=DIRECTION('',(0.,0.,-1.));
#1168=DIRECTION('',(0.,0.,1.));
#1169=DIRECTION('',(1.,0.,0.));
#1170=DIRECTION('',(0.,-1.,0.));
#1171=DIRECTION('',(0.,-1.,0.));
#1172=DIRECTION('',(-5.13992141030165E-16,0.,1.));
#1173=DIRECTION('',(1.,0.,5.13992141030165E-16));
#1174=DIRECTION('',(0.,-1.,0.));
#1175=DIRECTION('',(0.,-1.,0.));
#1176=DIRECTION('',(1.,0.,0.));
#1177=DIRECTION('',(0.,0.,-1.));
#1178=DIRECTION('',(0.,-1.,0.));
#1179=DIRECTION('',(0.,0.,-1.));
#1180=DIRECTION('',(0.,-1.,0.));
#1181=DIRECTION('',(0.,-1.,0.));
#1182=DIRECTION('',(0.,0.,-1.));
#1183=DIRECTION('',(0.,-1.,0.));
#1184=DIRECTION('',(0.,0.,-1.));
#1185=DIRECTION('',(0.,-1.,0.));
#1186=DIRECTION('',(0.,0.,-1.));
#1187=DIRECTION('',(0.,-1.,0.));
#1188=DIRECTION('',(0.,-1.,0.));
#1189=DIRECTION('',(1.,0.,-9.77405950999493E-17));
#1190=DIRECTION('',(-9.77405950999493E-17,0.,-1.));
#1191=DIRECTION('',(1.,0.,0.));
#1192=DIRECTION('',(0.,0.,-1.));
#1193=DIRECTION('',(0.,-1.,0.));
#1194=DIRECTION('',(0.,0.,-1.));
#1195=DIRECTION('',(0.,-1.,0.));
#1196=DIRECTION('',(0.,-1.,0.));
#1197=DIRECTION('',(0.,0.,-1.));
#1198=DIRECTION('',(0.,-1.,0.));
#1199=DIRECTION('',(0.,0.,-1.));
#1200=DIRECTION('',(0.,-1.,0.));
#1201=DIRECTION('',(0.,0.,-1.));
#1202=DIRECTION('',(0.,-1.,0.));
#1203=DIRECTION('',(0.,-1.,0.));
#1204=DIRECTION('',(1.,0.,0.));
#1205=DIRECTION('',(0.,0.,-1.));
#1206=DIRECTION('',(0.,1.,0.));
#1207=DIRECTION('',(0.,0.,1.));
#1208=DIRECTION('',(0.,-1.,0.));
#1209=DIRECTION('',(0.,0.,-1.));
#1210=DIRECTION('',(0.,1.,0.));
#1211=DIRECTION('',(0.,0.,1.));
#1212=DIRECTION('',(0.,-1.,0.));
#1213=DIRECTION('',(0.,0.,-1.));
#1214=DIRECTION('',(-0.965925826289068,0.258819045102521,0.));
#1215=DIRECTION('',(0.258819045102521,0.965925826289068,0.));
#1216=DIRECTION('',(0.,0.,-1.));
#1217=DIRECTION('',(0.,-1.,0.));
#1218=DIRECTION('',(0.,0.,1.));
#1219=DIRECTION('',(0.,-1.,0.));
#1220=DIRECTION('',(0.,0.,-1.));
#1221=DIRECTION('',(0.,-1.,0.));
#1222=DIRECTION('',(1.,0.,0.));
#1223=DIRECTION('',(0.,-1.,0.));
#1224=DIRECTION('',(1.,0.,0.));
#1225=DIRECTION('',(-0.965925826289068,0.258819045102521,0.));
#1226=DIRECTION('',(0.258819045102521,0.965925826289068,0.));
#1227=DIRECTION('',(0.,0.,-1.));
#1228=DIRECTION('',(0.,-1.,0.));
#1229=DIRECTION('',(0.,0.,1.));
#1230=DIRECTION('',(0.,-1.,0.));
#1231=DIRECTION('',(0.,0.,-1.));
#1232=DIRECTION('',(0.,-1.,0.));
#1233=DIRECTION('',(1.,0.,0.));
#1234=DIRECTION('',(0.,-1.,0.));
#1235=DIRECTION('',(1.,0.,0.));
#1236=DIRECTION('',(0.,-1.,0.));
#1237=DIRECTION('',(0.,0.,-1.));
#1238=DIRECTION('',(0.,-0.707106781186548,0.707106781186548));
#1239=DIRECTION('',(0.,0.707106781186548,0.707106781186548));
#1240=DIRECTION('',(-1.36292748149633E-16,-0.707106781186547,0.707106781186548));
#1241=DIRECTION('',(1.,0.,1.92747052886312E-16));
#1242=DIRECTION('',(-8.17756488897799E-16,0.707106781186548,0.707106781186548));
#1243=DIRECTION('',(0.,-0.707106781186548,-0.707106781186548));
#1244=DIRECTION('',(-1.,0.,0.));
#1245=DIRECTION('',(0.,-0.707106781186548,0.707106781186548));
#1246=DIRECTION('',(0.,-1.,0.));
#1247=DIRECTION('',(0.,0.,-1.));
#1248=DIRECTION('',(0.,1.,0.));
#1249=DIRECTION('',(0.,0.,1.));
#1250=DIRECTION('',(0.,1.,0.));
#1251=DIRECTION('',(0.,0.,1.));
#1252=DIRECTION('',(0.,-1.,0.));
#1253=DIRECTION('',(0.,0.,-1.));
#1254=DIRECTION('',(0.,1.,0.));
#1255=DIRECTION('',(0.,0.,1.));
#1256=DIRECTION('',(0.,1.,0.));
#1257=DIRECTION('',(0.,0.,1.));
#1258=DIRECTION('',(0.,-1.,0.));
#1259=DIRECTION('',(0.,0.,-1.));
#1260=DIRECTION('',(0.,-1.,0.));
#1261=DIRECTION('',(0.,0.,-1.));
#1262=DIRECTION('',(0.,-1.,0.));
#1263=DIRECTION('',(0.,0.,-1.));
#1264=CARTESIAN_POINT('',(0.,0.,0.));
#1265=CARTESIAN_POINT('',(-0.04975,-0.078125,0.019765));
#1266=CARTESIAN_POINT('',(-0.04975,-0.076125,0.019765));
#1267=CARTESIAN_POINT('',(-0.050125,-0.076125,0.0223404965818031));
#1268=CARTESIAN_POINT('',(-0.050125,-0.076125,0.017189503418197));
#1269=CARTESIAN_POINT('',(-0.050125,-0.076125,0.0171895034181969));
#1270=CARTESIAN_POINT('',(-0.050125,-0.0767917011000791,0.0173083003966808));
#1271=CARTESIAN_POINT('',(-0.050125,-0.0774583734824416,0.017427258462755));
#1272=CARTESIAN_POINT('',(-0.050125,-0.078125,0.0175464700813376));
#1273=CARTESIAN_POINT('',(-0.050125,-0.078125,0.0175464700813376));
#1274=CARTESIAN_POINT('',(-0.04975,-0.078125,0.019765));
#1275=CARTESIAN_POINT('',(-0.050125,-0.078125,0.0219835299186623));
#1276=CARTESIAN_POINT('',(-0.050125,-0.078125,0.0219835299186624));
#1277=CARTESIAN_POINT('',(-0.050125,-0.0774583731657301,0.022102741593882));
#1278=CARTESIAN_POINT('',(-0.050125,-0.0767917009820658,0.0222216996243475));
#1279=CARTESIAN_POINT('',(-0.050125,-0.076125,0.0223404965818031));
#1280=CARTESIAN_POINT('',(0.00425,-0.078125,0.01919));
#1281=CARTESIAN_POINT('',(0.00425,-0.076125,0.01919));
#1282=CARTESIAN_POINT('',(0.003875,-0.076125,0.0217654965818031));
#1283=CARTESIAN_POINT('',(0.003875,-0.076125,0.0166145034181969));
#1284=CARTESIAN_POINT('',(0.003875,-0.076125,0.0166145034181969));
#1285=CARTESIAN_POINT('',(0.003875,-0.0767917011000791,0.0167333003966808));
#1286=CARTESIAN_POINT('',(0.003875,-0.0774583734824416,0.016852258462755));
#1287=CARTESIAN_POINT('',(0.003875,-0.078125,0.0169714700813376));
#1288=CARTESIAN_POINT('',(0.003875,-0.078125,0.0169714700813376));
#1289=CARTESIAN_POINT('',(0.00425,-0.078125,0.01919));
#1290=CARTESIAN_POINT('',(0.003875,-0.078125,0.0214085299186624));
#1291=CARTESIAN_POINT('',(0.003875,-0.078125,0.0214085299186624));
#1292=CARTESIAN_POINT('',(0.003875,-0.0774583731657301,0.021527741593882));
#1293=CARTESIAN_POINT('',(0.003875,-0.0767917009820658,0.0216466996243475));
#1294=CARTESIAN_POINT('',(0.003875,-0.076125,0.0217654965818031));
#1295=CARTESIAN_POINT('',(-0.04975,-0.076125,0.019765));
#1296=CARTESIAN_POINT('',(-0.050125,-0.076125,0.0223404965818031));
#1297=CARTESIAN_POINT('',(-0.050125,-0.0756862421219038,0.0222216920979074));
#1298=CARTESIAN_POINT('',(-0.050125,-0.0752475264010547,0.0221027327930411));
#1299=CARTESIAN_POINT('',(-0.050125,-0.0748088774985016,0.0219835299186624));
#1300=CARTESIAN_POINT('',(-0.050125,-0.0748088774985016,0.0219835299186623));
#1301=CARTESIAN_POINT('',(-0.0508441428083076,-0.072125,0.0208356891502154));
#1302=CARTESIAN_POINT('',(-0.0507333250205512,-0.0725385776142891,0.0211073802314243));
#1303=CARTESIAN_POINT('',(-0.0504963062466521,-0.0734231437208284,0.0215138499471446));
#1304=CARTESIAN_POINT('',(-0.0502494460148312,-0.0743444386483522,0.0218362834081763));
#1305=CARTESIAN_POINT('',(-0.050125,-0.0748088774985016,0.0219835299186624));
#1306=CARTESIAN_POINT('',(-0.0508441428083076,-0.072125,0.0208356891502154));
#1307=CARTESIAN_POINT('',(-0.04975,-0.072125,0.019765));
#1308=CARTESIAN_POINT('',(-0.0508441428083076,-0.072125,0.0186943108497846));
#1309=CARTESIAN_POINT('',(-0.0508441428083076,-0.072125,0.0186943108497846));
#1310=CARTESIAN_POINT('',(-0.0507333250205512,-0.0725385776142892,0.0184226197685757));
#1311=CARTESIAN_POINT('',(-0.0504963062466521,-0.0734231437208284,0.0180161500528554));
#1312=CARTESIAN_POINT('',(-0.0502494460148312,-0.0743444386483522,0.0176937165918237));
#1313=CARTESIAN_POINT('',(-0.050125,-0.0748088774985016,0.0175464700813376));
#1314=CARTESIAN_POINT('',(-0.050125,-0.0748088774985016,0.0175464700813376));
#1315=CARTESIAN_POINT('',(-0.050125,-0.0748088774985016,0.0175464700813376));
#1316=CARTESIAN_POINT('',(-0.050125,-0.0752475271551858,0.0174272670020237));
#1317=CARTESIAN_POINT('',(-0.050125,-0.07568624266067,0.0173083077562085));
#1318=CARTESIAN_POINT('',(-0.050125,-0.076125,0.0171895034181969));
#1319=CARTESIAN_POINT('',(-0.0497723460385831,-0.076125,0.019765));
#1320=CARTESIAN_POINT('',(-0.050125,-0.0748088774985016,0.019765));
#1321=CARTESIAN_POINT('',(-0.0508441428083076,-0.072125,0.013095));
#1322=CARTESIAN_POINT('',(0.00425,-0.076125,0.01919));
#1323=CARTESIAN_POINT('',(0.003875,-0.076125,0.0217654965818031));
#1324=CARTESIAN_POINT('',(0.003875,-0.0756862421219038,0.0216466920979074));
#1325=CARTESIAN_POINT('',(0.003875,-0.0752475264010547,0.0215277327930411));
#1326=CARTESIAN_POINT('',(0.003875,-0.0748088774985016,0.0214085299186624));
#1327=CARTESIAN_POINT('',(0.003875,-0.0748088774985016,0.0214085299186624));
#1328=CARTESIAN_POINT('',(0.00315585719169246,-0.072125,0.0202606891502154));
#1329=CARTESIAN_POINT('',(0.00326667497944883,-0.0725385776142892,0.0205323802314243));
#1330=CARTESIAN_POINT('',(0.00350369375334795,-0.0734231437208284,0.0209388499471447));
#1331=CARTESIAN_POINT('',(0.00375055398516884,-0.0743444386483522,0.0212612834081764));
#1332=CARTESIAN_POINT('',(0.00387500000000002,-0.0748088774985016,0.0214085299186624));
#1333=CARTESIAN_POINT('',(0.00315585719169246,-0.072125,0.0202606891502154));
#1334=CARTESIAN_POINT('',(0.00425,-0.072125,0.01919));
#1335=CARTESIAN_POINT('',(0.00315585719169246,-0.072125,0.0181193108497845));
#1336=CARTESIAN_POINT('',(0.00315585719169246,-0.072125,0.0181193108497845));
#1337=CARTESIAN_POINT('',(0.00326667497944883,-0.0725385776142892,0.0178476197685757));
#1338=CARTESIAN_POINT('',(0.00350369375334795,-0.0734231437208284,0.0174411500528554));
#1339=CARTESIAN_POINT('',(0.00375055398516884,-0.0743444386483522,0.0171187165918236));
#1340=CARTESIAN_POINT('',(0.00387500000000002,-0.0748088774985016,0.0169714700813376));
#1341=CARTESIAN_POINT('',(0.003875,-0.0748088774985016,0.0169714700813376));
#1342=CARTESIAN_POINT('',(0.003875,-0.0748088774985016,0.0169714700813376));
#1343=CARTESIAN_POINT('',(0.003875,-0.0752475271551858,0.0168522670020237));
#1344=CARTESIAN_POINT('',(0.003875,-0.07568624266067,0.0167333077562085));
#1345=CARTESIAN_POINT('',(0.003875,-0.076125,0.0166145034181969));
#1346=CARTESIAN_POINT('',(0.00422765396141694,-0.076125,0.01919));
#1347=CARTESIAN_POINT('',(0.003875,-0.0748088774985016,0.01919));
#1348=CARTESIAN_POINT('',(0.00315585719169245,-0.072125,0.013095));
#1349=CARTESIAN_POINT('',(-0.0377750603854657,-0.081875,0.013095));
#1350=CARTESIAN_POINT('',(-0.0377750603854657,-0.081875,0.02544));
#1351=CARTESIAN_POINT('',(-0.04975,-0.081875,0.02544));
#1352=CARTESIAN_POINT('',(0.00425,-0.081875,0.02544));
#1353=CARTESIAN_POINT('',(0.00425,-0.081875,0.01919));
#1354=CARTESIAN_POINT('',(0.00425,-0.081875,0.01294));
#1355=CARTESIAN_POINT('',(-0.0377750603854657,-0.081875,0.01294));
#1356=CARTESIAN_POINT('',(-0.04975,-0.081875,0.01294));
#1357=CARTESIAN_POINT('',(-0.04975,-0.081875,0.01919));
#1358=CARTESIAN_POINT('',(-0.04975,-0.081875,0.019765));
#1359=CARTESIAN_POINT('',(-0.050125,-0.081875,0.0219835299186623));
#1360=CARTESIAN_POINT('',(-0.050125,-0.081875,0.0175464700813376));
#1361=CARTESIAN_POINT('',(-0.050125,-0.081875,0.019765));
#1362=CARTESIAN_POINT('',(-0.049375,-0.081875,0.019765));
#1363=CARTESIAN_POINT('',(-0.049375,-0.081875,0.0175464700813376));
#1364=CARTESIAN_POINT('',(-0.049375,-0.081875,0.0219835299186623));
#1365=CARTESIAN_POINT('',(-0.04975,-0.081875,0.019765));
#1366=CARTESIAN_POINT('',(0.004625,-0.081875,0.01919));
#1367=CARTESIAN_POINT('',(0.004625,-0.081875,0.0169714700813376));
#1368=CARTESIAN_POINT('',(0.004625,-0.081875,0.0214085299186624));
#1369=CARTESIAN_POINT('',(0.00425,-0.081875,0.01919));
#1370=CARTESIAN_POINT('',(0.00425,-0.081875,0.01919));
#1371=CARTESIAN_POINT('',(0.003875,-0.081875,0.0214085299186624));
#1372=CARTESIAN_POINT('',(0.003875,-0.081875,0.0169714700813376));
#1373=CARTESIAN_POINT('',(0.003875,-0.081875,0.01919));
#1374=CARTESIAN_POINT('',(-0.006,-0.081875,0.022765));
#1375=CARTESIAN_POINT('',(-0.0115,-0.081875,0.022765));
#1376=CARTESIAN_POINT('',(-0.0005,-0.081875,0.022765));
#1377=CARTESIAN_POINT('',(-0.0115,-0.081875,0.021515));
#1378=CARTESIAN_POINT('',(-0.01275,-0.081875,0.021515));
#1379=CARTESIAN_POINT('',(-0.01275,-0.081875,0.019765));
#1380=CARTESIAN_POINT('',(-0.01275,-0.081875,0.018015));
#1381=CARTESIAN_POINT('',(-0.0115,-0.081875,0.018015));
#1382=CARTESIAN_POINT('',(-0.0115,-0.081875,0.016765));
#1383=CARTESIAN_POINT('',(-0.006,-0.081875,0.016765));
#1384=CARTESIAN_POINT('',(-0.0005,-0.081875,0.016765));
#1385=CARTESIAN_POINT('',(-0.0005,-0.081875,0.018015));
#1386=CARTESIAN_POINT('',(0.00075,-0.081875,0.018015));
#1387=CARTESIAN_POINT('',(0.00075,-0.081875,0.019765));
#1388=CARTESIAN_POINT('',(0.00075,-0.081875,0.021515));
#1389=CARTESIAN_POINT('',(-0.0005,-0.081875,0.021515));
#1390=CARTESIAN_POINT('',(-0.024,-0.081875,0.022765));
#1391=CARTESIAN_POINT('',(-0.0295,-0.081875,0.022765));
#1392=CARTESIAN_POINT('',(-0.0185,-0.081875,0.022765));
#1393=CARTESIAN_POINT('',(-0.0295,-0.081875,0.021515));
#1394=CARTESIAN_POINT('',(-0.03075,-0.081875,0.021515));
#1395=CARTESIAN_POINT('',(-0.03075,-0.081875,0.019765));
#1396=CARTESIAN_POINT('',(-0.03075,-0.081875,0.018015));
#1397=CARTESIAN_POINT('',(-0.0295,-0.081875,0.018015));
#1398=CARTESIAN_POINT('',(-0.0295,-0.081875,0.016765));
#1399=CARTESIAN_POINT('',(-0.024,-0.081875,0.016765));
#1400=CARTESIAN_POINT('',(-0.0185,-0.081875,0.016765));
#1401=CARTESIAN_POINT('',(-0.0185,-0.081875,0.018015));
#1402=CARTESIAN_POINT('',(-0.01725,-0.081875,0.018015));
#1403=CARTESIAN_POINT('',(-0.01725,-0.081875,0.019765));
#1404=CARTESIAN_POINT('',(-0.01725,-0.081875,0.021515));
#1405=CARTESIAN_POINT('',(-0.0185,-0.081875,0.021515));
#1406=CARTESIAN_POINT('',(-0.0395,-0.081875,0.01865));
#1407=CARTESIAN_POINT('',(-0.0395,-0.081875,0.0154));
#1408=CARTESIAN_POINT('',(-0.006,-0.081873,0.022765));
#1409=CARTESIAN_POINT('',(-0.0005,-0.083,0.022765));
#1410=CARTESIAN_POINT('',(-0.0005,-0.083,0.022765));
#1411=CARTESIAN_POINT('',(-0.006,-0.083,0.022765));
#1412=CARTESIAN_POINT('',(-0.0115,-0.083,0.022765));
#1413=CARTESIAN_POINT('',(-0.0115,-0.081873,0.022765));
#1414=CARTESIAN_POINT('',(-0.01275,-0.081873,0.019765));
#1415=CARTESIAN_POINT('',(-0.01275,-0.083,0.019765));
#1416=CARTESIAN_POINT('',(-0.01275,-0.083,0.018015));
#1417=CARTESIAN_POINT('',(-0.01275,-0.083,0.021515));
#1418=CARTESIAN_POINT('',(-0.01275,-0.081875,0.018015));
#1419=CARTESIAN_POINT('',(-0.01275,-0.081873,0.021515));
#1420=CARTESIAN_POINT('',(0.00075,-0.081873,0.019765));
#1421=CARTESIAN_POINT('',(0.00075,-0.083,0.019765));
#1422=CARTESIAN_POINT('',(0.00075,-0.083,0.018015));
#1423=CARTESIAN_POINT('',(0.00075,-0.083,0.021515));
#1424=CARTESIAN_POINT('',(0.00075,-0.081875,0.021515));
#1425=CARTESIAN_POINT('',(0.00075,-0.081873,0.018015));
#1426=CARTESIAN_POINT('',(-0.024,-0.081873,0.022765));
#1427=CARTESIAN_POINT('',(-0.0185,-0.083,0.022765));
#1428=CARTESIAN_POINT('',(-0.0185,-0.083,0.022765));
#1429=CARTESIAN_POINT('',(-0.024,-0.083,0.022765));
#1430=CARTESIAN_POINT('',(-0.0295,-0.083,0.022765));
#1431=CARTESIAN_POINT('',(-0.0295,-0.081873,0.022765));
#1432=CARTESIAN_POINT('',(-0.03075,-0.081873,0.019765));
#1433=CARTESIAN_POINT('',(-0.03075,-0.083,0.019765));
#1434=CARTESIAN_POINT('',(-0.03075,-0.083,0.018015));
#1435=CARTESIAN_POINT('',(-0.03075,-0.083,0.021515));
#1436=CARTESIAN_POINT('',(-0.03075,-0.081875,0.018015));
#1437=CARTESIAN_POINT('',(-0.03075,-0.081873,0.021515));
#1438=CARTESIAN_POINT('',(-0.01725,-0.081873,0.019765));
#1439=CARTESIAN_POINT('',(-0.01725,-0.083,0.019765));
#1440=CARTESIAN_POINT('',(-0.01725,-0.083,0.018015));
#1441=CARTESIAN_POINT('',(-0.01725,-0.083,0.021515));
#1442=CARTESIAN_POINT('',(-0.01725,-0.081875,0.021515));
#1443=CARTESIAN_POINT('',(-0.01725,-0.081873,0.018015));
#1444=CARTESIAN_POINT('',(0.00425,-0.081873,0.01919));
#1445=CARTESIAN_POINT('',(0.00425,-0.081873,0.01219));
#1446=CARTESIAN_POINT('',(0.00425,-0.082625,0.01219));
#1447=CARTESIAN_POINT('',(0.00425,-0.083,0.01219));
#1448=CARTESIAN_POINT('',(0.00425,-0.082625,0.01919));
#1449=CARTESIAN_POINT('',(0.00425,-0.082625,0.02619));
#1450=CARTESIAN_POINT('',(0.00425,-0.081873,0.02619));
#1451=CARTESIAN_POINT('',(0.00425,-0.083,0.02619));
#1452=CARTESIAN_POINT('',(0.00425,-0.083,0.01919));
#1453=CARTESIAN_POINT('',(-0.02275,-0.081873,0.01219));
#1454=CARTESIAN_POINT('',(-0.04975,-0.081873,0.01219));
#1455=CARTESIAN_POINT('',(-0.04975,-0.082625,0.01219));
#1456=CARTESIAN_POINT('',(-0.04975,-0.083,0.01219));
#1457=CARTESIAN_POINT('',(-0.02275,-0.082625,0.01219));
#1458=CARTESIAN_POINT('',(-0.02275,-0.083,0.01219));
#1459=CARTESIAN_POINT('',(-0.02275,-0.081873,0.02619));
#1460=CARTESIAN_POINT('',(-0.02275,-0.082625,0.02619));
#1461=CARTESIAN_POINT('',(-0.04975,-0.082625,0.02619));
#1462=CARTESIAN_POINT('',(-0.04975,-0.081873,0.02619));
#1463=CARTESIAN_POINT('',(-0.04975,-0.083,0.02619));
#1464=CARTESIAN_POINT('',(-0.02275,-0.083,0.02619));
#1465=CARTESIAN_POINT('',(-0.0395,-0.081873,0.01865));
#1466=CARTESIAN_POINT('',(-0.0395,-0.083,0.01865));
#1467=CARTESIAN_POINT('',(-0.0395,-0.083,0.0154));
#1468=CARTESIAN_POINT('',(-0.0377750603854657,-0.083,0.013095));
#1469=CARTESIAN_POINT('',(-0.04975,-0.083,0.01919));
#1470=CARTESIAN_POINT('',(-0.0185,-0.083,0.018015));
#1471=CARTESIAN_POINT('',(-0.0185,-0.083,0.016765));
#1472=CARTESIAN_POINT('',(-0.024,-0.083,0.016765));
#1473=CARTESIAN_POINT('',(-0.0295,-0.083,0.016765));
#1474=CARTESIAN_POINT('',(-0.0295,-0.083,0.018015));
#1475=CARTESIAN_POINT('',(-0.0295,-0.083,0.021515));
#1476=CARTESIAN_POINT('',(-0.0185,-0.083,0.021515));
#1477=CARTESIAN_POINT('',(-0.0005,-0.083,0.018015));
#1478=CARTESIAN_POINT('',(-0.0005,-0.083,0.016765));
#1479=CARTESIAN_POINT('',(-0.006,-0.083,0.016765));
#1480=CARTESIAN_POINT('',(-0.0115,-0.083,0.016765));
#1481=CARTESIAN_POINT('',(-0.0115,-0.083,0.018015));
#1482=CARTESIAN_POINT('',(-0.0115,-0.083,0.021515));
#1483=CARTESIAN_POINT('',(-0.0005,-0.083,0.021515));
#1484=CARTESIAN_POINT('',(-0.04975,-0.081873,0.01919));
#1485=CARTESIAN_POINT('',(-0.04975,-0.082625,0.01919));
#1486=CARTESIAN_POINT('',(-0.024,-0.081873,0.016765));
#1487=CARTESIAN_POINT('',(-0.0295,-0.083,0.016765));
#1488=CARTESIAN_POINT('',(-0.0185,-0.081873,0.016765));
#1489=CARTESIAN_POINT('',(-0.006,-0.081873,0.016765));
#1490=CARTESIAN_POINT('',(-0.0005,-0.081873,0.016765));
#1491=CARTESIAN_POINT('',(-0.0115,-0.083,0.016765));
#1492=CARTESIAN_POINT('',(-0.049375,-0.078125,0.019765));
#1493=CARTESIAN_POINT('',(-0.049375,-0.078125,0.0219835299186623));
#1494=CARTESIAN_POINT('',(-0.049375,-0.078125,0.0219835299186623));
#1495=CARTESIAN_POINT('',(-0.049375,-0.078125,0.0219835299186624));
#1496=CARTESIAN_POINT('',(-0.049375,-0.0774583731657301,0.022102741593882));
#1497=CARTESIAN_POINT('',(-0.049375,-0.0767917009820658,0.0222216996243475));
#1498=CARTESIAN_POINT('',(-0.049375,-0.076125,0.0223404965818031));
#1499=CARTESIAN_POINT('',(-0.049375,-0.076125,0.0223404965818032));
#1500=CARTESIAN_POINT('',(-0.049375,-0.076125,0.0223404965818031));
#1501=CARTESIAN_POINT('',(-0.049375,-0.0756862421219038,0.0222216920979074));
#1502=CARTESIAN_POINT('',(-0.049375,-0.0752475264010547,0.0221027327930411));
#1503=CARTESIAN_POINT('',(-0.049375,-0.0748088774985016,0.0219835299186624));
#1504=CARTESIAN_POINT('',(-0.049375,-0.0748088774985016,0.0219835299186623));
#1505=CARTESIAN_POINT('',(-0.049375,-0.0748088774985016,0.019765));
#1506=CARTESIAN_POINT('',(-0.049375000000006,-0.0748088774985242,0.0175464700813305));
#1507=CARTESIAN_POINT('',(-0.049375,-0.0748088774985245,0.0175464700813314));
#1508=CARTESIAN_POINT('',(-0.049375,-0.075247527155201,0.0174272670020196));
#1509=CARTESIAN_POINT('',(-0.049375,-0.0756862426606776,0.0173083077562065));
#1510=CARTESIAN_POINT('',(-0.049375,-0.076125,0.0171895034181969));
#1511=CARTESIAN_POINT('',(-0.049375,-0.076125,0.017189503418197));
#1512=CARTESIAN_POINT('',(-0.049375,-0.076125,0.0171895034181969));
#1513=CARTESIAN_POINT('',(-0.049375,-0.0767917011000791,0.0173083003966808));
#1514=CARTESIAN_POINT('',(-0.049375,-0.0774583734824416,0.017427258462755));
#1515=CARTESIAN_POINT('',(-0.049375,-0.078125,0.0175464700813376));
#1516=CARTESIAN_POINT('',(-0.049375,-0.078125,0.0175464700813376));
#1517=CARTESIAN_POINT('',(-0.049375,-0.078125,0.0175464700813376));
#1518=CARTESIAN_POINT('',(-0.04975,-0.078125,0.019765));
#1519=CARTESIAN_POINT('',(-0.04975,-0.078125,0.019765));
#1520=CARTESIAN_POINT('',(0.00425,-0.078125,0.01919));
#1521=CARTESIAN_POINT('',(0.003875,-0.078125,0.0214085299186624));
#1522=CARTESIAN_POINT('',(0.003875,-0.078125,0.0169714700813376));
#1523=CARTESIAN_POINT('',(0.003875,-0.078125,0.01919));
#1524=CARTESIAN_POINT('',(0.004625,-0.078125,0.01919));
#1525=CARTESIAN_POINT('',(0.004625,-0.078125,0.0214085299186624));
#1526=CARTESIAN_POINT('',(0.004625,-0.078125,0.0214085299186624));
#1527=CARTESIAN_POINT('',(0.004625,-0.078125,0.0214085299186624));
#1528=CARTESIAN_POINT('',(0.004625,-0.0774583731657301,0.021527741593882));
#1529=CARTESIAN_POINT('',(0.004625,-0.0767917009820658,0.0216466996243475));
#1530=CARTESIAN_POINT('',(0.004625,-0.076125,0.0217654965818031));
#1531=CARTESIAN_POINT('',(0.004625,-0.076125,0.0217654965818031));
#1532=CARTESIAN_POINT('',(0.004625,-0.076125,0.0217654965818031));
#1533=CARTESIAN_POINT('',(0.004625,-0.0756862421219038,0.0216466920979074));
#1534=CARTESIAN_POINT('',(0.004625,-0.0752475264010547,0.0215277327930411));
#1535=CARTESIAN_POINT('',(0.004625,-0.0748088774985016,0.0214085299186624));
#1536=CARTESIAN_POINT('',(0.004625,-0.0748088774985016,0.0214085299186624));
#1537=CARTESIAN_POINT('',(0.004625,-0.0748088774985016,0.01919));
#1538=CARTESIAN_POINT('',(0.00462499999999396,-0.0748088774985241,0.0169714700813305));
#1539=CARTESIAN_POINT('',(0.004625,-0.0748088774985244,0.0169714700813315));
#1540=CARTESIAN_POINT('',(0.004625,-0.0752475271552009,0.0168522670020196));
#1541=CARTESIAN_POINT('',(0.004625,-0.0756862426606776,0.0167333077562065));
#1542=CARTESIAN_POINT('',(0.004625,-0.076125,0.0166145034181969));
#1543=CARTESIAN_POINT('',(0.004625,-0.076125,0.0166145034181969));
#1544=CARTESIAN_POINT('',(0.004625,-0.076125,0.0166145034181969));
#1545=CARTESIAN_POINT('',(0.004625,-0.0767917011000791,0.0167333003966808));
#1546=CARTESIAN_POINT('',(0.004625,-0.0774583734824416,0.016852258462755));
#1547=CARTESIAN_POINT('',(0.004625,-0.078125,0.0169714700813376));
#1548=CARTESIAN_POINT('',(0.004625,-0.078125,0.0169714700813376));
#1549=CARTESIAN_POINT('',(0.004625,-0.078125,0.0169714700813376));
#1550=CARTESIAN_POINT('',(0.00425,-0.078125,0.01919));
#1551=CARTESIAN_POINT('',(0.00425,-0.078125,0.01919));
#1552=CARTESIAN_POINT('',(-0.04975,-0.078125,0.019765));
#1553=CARTESIAN_POINT('',(-0.050125,-0.078125,0.0219835299186623));
#1554=CARTESIAN_POINT('',(-0.050125,-0.078125,0.0175464700813376));
#1555=CARTESIAN_POINT('',(-0.050125,-0.078125,0.019765));
#1556=CARTESIAN_POINT('',(0.00425,-0.078125,0.01919));
#1557=CARTESIAN_POINT('',(0.00425,-0.076125,0.01919));
#1558=CARTESIAN_POINT('',(-0.04975,-0.078125,0.019765));
#1559=CARTESIAN_POINT('',(-0.04975,-0.076125,0.019765));
#1560=CARTESIAN_POINT('',(-0.0497276539614169,-0.076125,0.019765));
#1561=CARTESIAN_POINT('',(-0.0486558571916924,-0.072125,0.0186943108497846));
#1562=CARTESIAN_POINT('',(-0.0487666749794497,-0.0725385776142925,0.0184226197685735));
#1563=CARTESIAN_POINT('',(-0.0490036937533508,-0.0734231437208393,0.0180161500528508));
#1564=CARTESIAN_POINT('',(-0.0492505539851738,-0.0743444386483709,0.0176937165918172));
#1565=CARTESIAN_POINT('',(-0.049375000000006,-0.0748088774985242,0.0175464700813305));
#1566=CARTESIAN_POINT('',(-0.0486558571916924,-0.072125,0.0186943108497846));
#1567=CARTESIAN_POINT('',(-0.0486558571916924,-0.072125,0.0208356891502154));
#1568=CARTESIAN_POINT('',(-0.0487666749794488,-0.0725385776142891,0.0211073802314243));
#1569=CARTESIAN_POINT('',(-0.0490036937533479,-0.0734231437208284,0.0215138499471446));
#1570=CARTESIAN_POINT('',(-0.0492505539851688,-0.0743444386483522,0.0218362834081763));
#1571=CARTESIAN_POINT('',(-0.049375,-0.0748088774985016,0.0219835299186624));
#1572=CARTESIAN_POINT('',(-0.0486558571916924,-0.072125,0.0208356891502154));
#1573=CARTESIAN_POINT('',(-0.0486558571916924,-0.072125,0.013095));
#1574=CARTESIAN_POINT('',(-0.04975,-0.076125,0.019765));
#1575=CARTESIAN_POINT('',(-0.04975,-0.072125,0.019765));
#1576=CARTESIAN_POINT('',(-0.0377750603854657,-0.072125,0.013095));
#1577=CARTESIAN_POINT('',(-0.0377750603854657,-0.072125,0.013095));
#1578=CARTESIAN_POINT('',(0.00427234603858308,-0.076125,0.01919));
#1579=CARTESIAN_POINT('',(0.00534414280830757,-0.072125,0.0181193108497846));
#1580=CARTESIAN_POINT('',(0.0052333250205503,-0.0725385776142925,0.0178476197685735));
#1581=CARTESIAN_POINT('',(0.00499630624664916,-0.0734231437208392,0.0174411500528507));
#1582=CARTESIAN_POINT('',(0.00474944601482619,-0.0743444386483708,0.0171187165918173));
#1583=CARTESIAN_POINT('',(0.00462499999999397,-0.0748088774985241,0.0169714700813305));
#1584=CARTESIAN_POINT('',(0.00534414280830757,-0.072125,0.0181193108497846));
#1585=CARTESIAN_POINT('',(0.00534414280830757,-0.072125,0.0202606891502155));
#1586=CARTESIAN_POINT('',(0.0052333250205512,-0.0725385776142892,0.0205323802314243));
#1587=CARTESIAN_POINT('',(0.00499630624665207,-0.0734231437208284,0.0209388499471446));
#1588=CARTESIAN_POINT('',(0.00474944601483118,-0.0743444386483522,0.0212612834081764));
#1589=CARTESIAN_POINT('',(0.00462500000000001,-0.0748088774985016,0.0214085299186624));
#1590=CARTESIAN_POINT('',(0.00534414280830757,-0.072125,0.0202606891502155));
#1591=CARTESIAN_POINT('',(0.00534414280830757,-0.072125,0.013095));
#1592=CARTESIAN_POINT('',(0.00425,-0.076125,0.01919));
#1593=CARTESIAN_POINT('',(0.00425,-0.072125,0.01919));
#1594=CARTESIAN_POINT('',(-0.0377750603854657,-0.072125,0.013095));
#1595=CARTESIAN_POINT('',(-0.0377750603854657,-0.072125,0.013095));
#1596=CARTESIAN_POINT('',(-0.04975,-0.081875,0.01919));
#1597=CARTESIAN_POINT('',(-0.04975,-0.081875,0.02544));
#1598=CARTESIAN_POINT('',(-0.04975,-0.082625,0.01219));
#1599=CARTESIAN_POINT('',(-0.02275,-0.082625,0.01219));
#1600=CARTESIAN_POINT('',(0.00425,-0.082625,0.01219));
#1601=CARTESIAN_POINT('',(-0.02275,-0.082625,0.02619));
#1602=CARTESIAN_POINT('',(0.00425,-0.081875,0.02544));
#1603=CARTESIAN_POINT('',(0.00425,-0.082625,0.01919));
#1604=CARTESIAN_POINT('',(-0.0185,-0.081873,0.021515));
#1605=CARTESIAN_POINT('',(-0.0005,-0.081873,0.021515));
#1606=CARTESIAN_POINT('',(-0.0005,-0.081873,0.018015));
#1607=CARTESIAN_POINT('',(-0.0115,-0.081873,0.018015));
#1608=CARTESIAN_POINT('',(-0.0295,-0.081873,0.018015));
#1609=CARTESIAN_POINT('',(-0.0185,-0.081873,0.018015));
#1610=CARTESIAN_POINT('',(-0.0115,-0.081873,0.021515));
#1611=CARTESIAN_POINT('',(-0.0295,-0.081873,0.021515));
#1612=MECHANICAL_DESIGN_GEOMETRIC_PRESENTATION_REPRESENTATION('',(#911),
#1613);
#1613=(
GEOMETRIC_REPRESENTATION_CONTEXT(3)
GLOBAL_UNCERTAINTY_ASSIGNED_CONTEXT((#1614))
GLOBAL_UNIT_ASSIGNED_CONTEXT((#1617,#1616,#1615))
REPRESENTATION_CONTEXT('Front Port Cover','TOP_LEVEL_ASSEMBLY_PART')
);
#1614=UNCERTAINTY_MEASURE_WITH_UNIT(LENGTH_MEASURE(2.E-5),#1617,
'DISTANCE_ACCURACY_VALUE','Maximum Tolerance applied to model');
#1615=(
NAMED_UNIT(*)
SI_UNIT($,.STERADIAN.)
SOLID_ANGLE_UNIT()
);
#1616=(
NAMED_UNIT(*)
PLANE_ANGLE_UNIT()
SI_UNIT($,.RADIAN.)
);
#1617=(
LENGTH_UNIT()
NAMED_UNIT(*)
SI_UNIT($,.METRE.)
);
#1618=PRODUCT_DEFINITION_SHAPE('','',#1619);
#1619=PRODUCT_DEFINITION('','',#1621,#1620);
#1620=PRODUCT_DEFINITION_CONTEXT('',#1627,'design');
#1621=PRODUCT_DEFINITION_FORMATION_WITH_SPECIFIED_SOURCE('','',#1623,
 .NOT_KNOWN.);
#1622=PRODUCT_RELATED_PRODUCT_CATEGORY('','',(#1623));
#1623=PRODUCT('Front Port Cover','Front Port Cover','Front Port Cover',
(#1625));
#1624=PRODUCT_CATEGORY('','');
#1625=PRODUCT_CONTEXT('',#1627,'mechanical');
#1626=APPLICATION_PROTOCOL_DEFINITION('international standard',
'ap242_managed_model_based_3d_engineering',2020,#1627);
#1627=APPLICATION_CONTEXT('managed model based 3d engineering');
ENDSEC;
END-ISO-10303-21;
