ISO-10303-21;
HEADER;
/* Generated by software containing ST-Developer
 * from STEP Tools, Inc. (www.steptools.com) 
 */
/* OPTION: using custom renumber hook */

FILE_DESCRIPTION(
/* description */ ('STEP AP242 Edition 2',
'CAx-IF Rec.Pracs.---Representation and Presentation of Product Manufa
cturing Information (PMI)---4.0---2014-10-13',
'CAx-IF Rec.Pracs.---3D Tessellated Geometry---0.4---2014-09-14','2;1',
'CAx-IF Rec.Pracs.---User Defined Attributes---1.5---2016-08-15'),
/* implementation_level */ '2;1');

FILE_NAME(
/* name */ 'Chassis - Power Button Mount',
/* time_stamp */ '2026-07-28T04:29:04Z',
/* author */ (''),
/* organization */ (''),
/* preprocessor_version */ 'ST-DEVELOPER v20',
/* originating_system */ 'ONSHAPE BY PTC INC, 1.218',
/* authorisation */ '  ');

FILE_SCHEMA (('AP242_MANAGED_MODEL_BASED_3D_ENGINEERING_MIM_LF { 1 0 10303 442 3 1 4 }'));
ENDSEC;

DATA;
#10=SHAPE_REPRESENTATION_RELATIONSHIP('','',#948,#11);
#11=ADVANCED_BREP_SHAPE_REPRESENTATION('',(#946),#1576);
#12=CONICAL_SURFACE('',#1029,0.00215,0.785398163397448);
#13=B_SPLINE_CURVE_WITH_KNOTS('',3,(#1506,#1507,#1508,#1509),
 .UNSPECIFIED.,.F.,.F.,(4,4),(0.,0.000325556189469936),.UNSPECIFIED.);
#14=B_SPLINE_CURVE_WITH_KNOTS('',3,(#1512,#1513,#1514,#1515),
 .UNSPECIFIED.,.F.,.F.,(4,4),(0.,0.000196439840379324),.UNSPECIFIED.);
#15=B_SPLINE_CURVE_WITH_KNOTS('',3,(#1518,#1519,#1520,#1521),
 .UNSPECIFIED.,.F.,.F.,(4,4),(0.,0.00118872235782357),.UNSPECIFIED.);
#16=B_SPLINE_CURVE_WITH_KNOTS('',3,(#1548,#1549,#1550,#1551,#1552),
 .UNSPECIFIED.,.F.,.F.,(4,1,4),(0.,0.00255304555403368,0.00510609110806736),
 .UNSPECIFIED.);
#17=CYLINDRICAL_SURFACE('',#962,0.004);
#18=CYLINDRICAL_SURFACE('',#989,0.00215);
#19=CYLINDRICAL_SURFACE('',#1004,0.0015);
#20=CYLINDRICAL_SURFACE('',#1005,0.0015);
#21=CYLINDRICAL_SURFACE('',#1006,0.0045);
#22=CYLINDRICAL_SURFACE('',#1007,0.0045);
#23=CYLINDRICAL_SURFACE('',#1008,0.0045);
#24=CYLINDRICAL_SURFACE('',#1009,0.0045);
#25=CYLINDRICAL_SURFACE('',#1010,0.0045);
#26=CYLINDRICAL_SURFACE('',#1011,0.0045);
#27=CYLINDRICAL_SURFACE('',#1014,0.005);
#28=CYLINDRICAL_SURFACE('',#1015,0.002);
#29=CYLINDRICAL_SURFACE('',#1017,0.002);
#30=ELLIPSE('',#960,0.00636396103067893,0.0045);
#31=ELLIPSE('',#961,0.00212132034355965,0.0015);
#32=ELLIPSE('',#966,0.00212132034355964,0.0015);
#33=ELLIPSE('',#967,0.00636396103067893,0.0045);
#34=ELLIPSE('',#974,0.00212132034355964,0.0015);
#35=ELLIPSE('',#975,0.00636396103067893,0.0045);
#36=ELLIPSE('',#977,0.00240682494479459,0.002);
#37=ELLIPSE('',#982,0.00636396103067893,0.0045);
#38=ELLIPSE('',#983,0.00212132034355965,0.0015);
#39=ELLIPSE('',#1016,0.00282842712474619,0.002);
#40=CIRCLE('',#952,0.005);
#41=CIRCLE('',#953,0.0045);
#42=CIRCLE('',#954,0.0045);
#43=CIRCLE('',#955,0.004);
#44=CIRCLE('',#956,0.004);
#45=CIRCLE('',#957,0.0045);
#46=CIRCLE('',#958,0.0045);
#47=CIRCLE('',#963,0.004);
#48=CIRCLE('',#964,0.004);
#49=CIRCLE('',#969,0.0045);
#50=CIRCLE('',#972,0.0045);
#51=CIRCLE('',#985,0.0045);
#52=CIRCLE('',#988,0.0045);
#53=CIRCLE('',#990,0.00215);
#54=CIRCLE('',#991,0.00215);
#55=CIRCLE('',#993,0.00365);
#56=CIRCLE('',#994,0.005);
#57=CIRCLE('',#995,0.0045);
#58=CIRCLE('',#996,0.0045);
#59=CIRCLE('',#997,0.0045);
#60=CIRCLE('',#998,0.0045);
#61=ORIENTED_EDGE('',*,*,#327,.F.);
#62=ORIENTED_EDGE('',*,*,#328,.T.);
#63=ORIENTED_EDGE('',*,*,#329,.F.);
#64=ORIENTED_EDGE('',*,*,#330,.T.);
#65=ORIENTED_EDGE('',*,*,#331,.T.);
#66=ORIENTED_EDGE('',*,*,#332,.T.);
#67=ORIENTED_EDGE('',*,*,#333,.T.);
#68=ORIENTED_EDGE('',*,*,#334,.F.);
#69=ORIENTED_EDGE('',*,*,#335,.T.);
#70=ORIENTED_EDGE('',*,*,#336,.T.);
#71=ORIENTED_EDGE('',*,*,#337,.T.);
#72=ORIENTED_EDGE('',*,*,#338,.T.);
#73=ORIENTED_EDGE('',*,*,#339,.T.);
#74=ORIENTED_EDGE('',*,*,#340,.T.);
#75=ORIENTED_EDGE('',*,*,#341,.T.);
#76=ORIENTED_EDGE('',*,*,#342,.F.);
#77=ORIENTED_EDGE('',*,*,#343,.T.);
#78=ORIENTED_EDGE('',*,*,#344,.T.);
#79=ORIENTED_EDGE('',*,*,#345,.T.);
#80=ORIENTED_EDGE('',*,*,#346,.T.);
#81=ORIENTED_EDGE('',*,*,#342,.T.);
#82=ORIENTED_EDGE('',*,*,#347,.T.);
#83=ORIENTED_EDGE('',*,*,#348,.F.);
#84=ORIENTED_EDGE('',*,*,#349,.T.);
#85=ORIENTED_EDGE('',*,*,#350,.T.);
#86=ORIENTED_EDGE('',*,*,#351,.T.);
#87=ORIENTED_EDGE('',*,*,#352,.F.);
#88=ORIENTED_EDGE('',*,*,#353,.T.);
#89=ORIENTED_EDGE('',*,*,#340,.F.);
#90=ORIENTED_EDGE('',*,*,#339,.F.);
#91=ORIENTED_EDGE('',*,*,#354,.T.);
#92=ORIENTED_EDGE('',*,*,#355,.T.);
#93=ORIENTED_EDGE('',*,*,#356,.T.);
#94=ORIENTED_EDGE('',*,*,#357,.T.);
#95=ORIENTED_EDGE('',*,*,#337,.F.);
#96=ORIENTED_EDGE('',*,*,#358,.T.);
#97=ORIENTED_EDGE('',*,*,#359,.F.);
#98=ORIENTED_EDGE('',*,*,#360,.T.);
#99=ORIENTED_EDGE('',*,*,#361,.T.);
#100=ORIENTED_EDGE('',*,*,#362,.T.);
#101=ORIENTED_EDGE('',*,*,#363,.F.);
#102=ORIENTED_EDGE('',*,*,#364,.T.);
#103=ORIENTED_EDGE('',*,*,#359,.T.);
#104=ORIENTED_EDGE('',*,*,#365,.F.);
#105=ORIENTED_EDGE('',*,*,#363,.T.);
#106=ORIENTED_EDGE('',*,*,#366,.T.);
#107=ORIENTED_EDGE('',*,*,#367,.F.);
#108=ORIENTED_EDGE('',*,*,#368,.T.);
#109=ORIENTED_EDGE('',*,*,#367,.T.);
#110=ORIENTED_EDGE('',*,*,#369,.T.);
#111=ORIENTED_EDGE('',*,*,#370,.F.);
#112=ORIENTED_EDGE('',*,*,#371,.T.);
#113=ORIENTED_EDGE('',*,*,#372,.F.);
#114=ORIENTED_EDGE('',*,*,#373,.T.);
#115=ORIENTED_EDGE('',*,*,#374,.T.);
#116=ORIENTED_EDGE('',*,*,#375,.T.);
#117=ORIENTED_EDGE('',*,*,#376,.T.);
#118=ORIENTED_EDGE('',*,*,#372,.T.);
#119=ORIENTED_EDGE('',*,*,#377,.F.);
#120=ORIENTED_EDGE('',*,*,#378,.T.);
#121=ORIENTED_EDGE('',*,*,#379,.F.);
#122=ORIENTED_EDGE('',*,*,#380,.T.);
#123=ORIENTED_EDGE('',*,*,#334,.T.);
#124=ORIENTED_EDGE('',*,*,#381,.T.);
#125=ORIENTED_EDGE('',*,*,#382,.F.);
#126=ORIENTED_EDGE('',*,*,#383,.T.);
#127=ORIENTED_EDGE('',*,*,#384,.F.);
#128=ORIENTED_EDGE('',*,*,#385,.T.);
#129=ORIENTED_EDGE('',*,*,#327,.T.);
#130=ORIENTED_EDGE('',*,*,#386,.T.);
#131=ORIENTED_EDGE('',*,*,#387,.T.);
#132=ORIENTED_EDGE('',*,*,#388,.T.);
#133=ORIENTED_EDGE('',*,*,#389,.F.);
#134=ORIENTED_EDGE('',*,*,#390,.F.);
#135=ORIENTED_EDGE('',*,*,#391,.F.);
#136=ORIENTED_EDGE('',*,*,#392,.T.);
#137=ORIENTED_EDGE('',*,*,#393,.T.);
#138=ORIENTED_EDGE('',*,*,#394,.T.);
#139=ORIENTED_EDGE('',*,*,#395,.T.);
#140=ORIENTED_EDGE('',*,*,#396,.T.);
#141=ORIENTED_EDGE('',*,*,#397,.T.);
#142=ORIENTED_EDGE('',*,*,#398,.F.);
#143=ORIENTED_EDGE('',*,*,#391,.T.);
#144=ORIENTED_EDGE('',*,*,#399,.T.);
#145=ORIENTED_EDGE('',*,*,#400,.T.);
#146=ORIENTED_EDGE('',*,*,#401,.T.);
#147=ORIENTED_EDGE('',*,*,#346,.F.);
#148=ORIENTED_EDGE('',*,*,#402,.T.);
#149=ORIENTED_EDGE('',*,*,#403,.T.);
#150=ORIENTED_EDGE('',*,*,#404,.T.);
#151=ORIENTED_EDGE('',*,*,#344,.F.);
#152=ORIENTED_EDGE('',*,*,#405,.T.);
#153=ORIENTED_EDGE('',*,*,#406,.F.);
#154=ORIENTED_EDGE('',*,*,#407,.T.);
#155=ORIENTED_EDGE('',*,*,#408,.T.);
#156=ORIENTED_EDGE('',*,*,#409,.F.);
#157=ORIENTED_EDGE('',*,*,#410,.T.);
#158=ORIENTED_EDGE('',*,*,#406,.T.);
#159=ORIENTED_EDGE('',*,*,#411,.F.);
#160=ORIENTED_EDGE('',*,*,#409,.T.);
#161=ORIENTED_EDGE('',*,*,#412,.T.);
#162=ORIENTED_EDGE('',*,*,#413,.F.);
#163=ORIENTED_EDGE('',*,*,#414,.T.);
#164=ORIENTED_EDGE('',*,*,#413,.T.);
#165=ORIENTED_EDGE('',*,*,#415,.T.);
#166=ORIENTED_EDGE('',*,*,#416,.F.);
#167=ORIENTED_EDGE('',*,*,#417,.T.);
#168=ORIENTED_EDGE('',*,*,#350,.F.);
#169=ORIENTED_EDGE('',*,*,#418,.T.);
#170=ORIENTED_EDGE('',*,*,#419,.T.);
#171=ORIENTED_EDGE('',*,*,#420,.F.);
#172=ORIENTED_EDGE('',*,*,#421,.T.);
#173=ORIENTED_EDGE('',*,*,#379,.T.);
#174=ORIENTED_EDGE('',*,*,#422,.T.);
#175=ORIENTED_EDGE('',*,*,#392,.F.);
#176=ORIENTED_EDGE('',*,*,#398,.T.);
#177=ORIENTED_EDGE('',*,*,#423,.T.);
#178=ORIENTED_EDGE('',*,*,#400,.F.);
#179=ORIENTED_EDGE('',*,*,#424,.T.);
#180=ORIENTED_EDGE('',*,*,#425,.T.);
#181=ORIENTED_EDGE('',*,*,#348,.T.);
#182=ORIENTED_EDGE('',*,*,#426,.T.);
#183=ORIENTED_EDGE('',*,*,#352,.T.);
#184=ORIENTED_EDGE('',*,*,#427,.T.);
#185=ORIENTED_EDGE('',*,*,#356,.F.);
#186=ORIENTED_EDGE('',*,*,#428,.T.);
#187=ORIENTED_EDGE('',*,*,#429,.T.);
#188=ORIENTED_EDGE('',*,*,#420,.T.);
#189=ORIENTED_EDGE('',*,*,#355,.F.);
#190=ORIENTED_EDGE('',*,*,#365,.T.);
#191=ORIENTED_EDGE('',*,*,#430,.T.);
#192=ORIENTED_EDGE('',*,*,#371,.F.);
#193=ORIENTED_EDGE('',*,*,#431,.T.);
#194=ORIENTED_EDGE('',*,*,#370,.T.);
#195=ORIENTED_EDGE('',*,*,#432,.T.);
#196=ORIENTED_EDGE('',*,*,#361,.F.);
#197=ORIENTED_EDGE('',*,*,#431,.F.);
#198=ORIENTED_EDGE('',*,*,#411,.T.);
#199=ORIENTED_EDGE('',*,*,#433,.T.);
#200=ORIENTED_EDGE('',*,*,#417,.F.);
#201=ORIENTED_EDGE('',*,*,#434,.T.);
#202=ORIENTED_EDGE('',*,*,#416,.T.);
#203=ORIENTED_EDGE('',*,*,#435,.T.);
#204=ORIENTED_EDGE('',*,*,#407,.F.);
#205=ORIENTED_EDGE('',*,*,#434,.F.);
#206=ORIENTED_EDGE('',*,*,#374,.F.);
#207=ORIENTED_EDGE('',*,*,#430,.F.);
#208=ORIENTED_EDGE('',*,*,#358,.F.);
#209=ORIENTED_EDGE('',*,*,#336,.F.);
#210=ORIENTED_EDGE('',*,*,#436,.T.);
#211=ORIENTED_EDGE('',*,*,#351,.F.);
#212=ORIENTED_EDGE('',*,*,#433,.F.);
#213=ORIENTED_EDGE('',*,*,#405,.F.);
#214=ORIENTED_EDGE('',*,*,#343,.F.);
#215=ORIENTED_EDGE('',*,*,#425,.F.);
#216=ORIENTED_EDGE('',*,*,#437,.F.);
#217=ORIENTED_EDGE('',*,*,#403,.F.);
#218=ORIENTED_EDGE('',*,*,#410,.F.);
#219=ORIENTED_EDGE('',*,*,#414,.F.);
#220=ORIENTED_EDGE('',*,*,#418,.F.);
#221=ORIENTED_EDGE('',*,*,#349,.F.);
#222=ORIENTED_EDGE('',*,*,#424,.F.);
#223=ORIENTED_EDGE('',*,*,#402,.F.);
#224=ORIENTED_EDGE('',*,*,#345,.F.);
#225=ORIENTED_EDGE('',*,*,#404,.F.);
#226=ORIENTED_EDGE('',*,*,#437,.T.);
#227=ORIENTED_EDGE('',*,*,#373,.F.);
#228=ORIENTED_EDGE('',*,*,#376,.F.);
#229=ORIENTED_EDGE('',*,*,#438,.F.);
#230=ORIENTED_EDGE('',*,*,#428,.F.);
#231=ORIENTED_EDGE('',*,*,#360,.F.);
#232=ORIENTED_EDGE('',*,*,#364,.F.);
#233=ORIENTED_EDGE('',*,*,#368,.F.);
#234=ORIENTED_EDGE('',*,*,#438,.T.);
#235=ORIENTED_EDGE('',*,*,#375,.F.);
#236=ORIENTED_EDGE('',*,*,#436,.F.);
#237=ORIENTED_EDGE('',*,*,#335,.F.);
#238=ORIENTED_EDGE('',*,*,#380,.F.);
#239=ORIENTED_EDGE('',*,*,#429,.F.);
#240=ORIENTED_EDGE('',*,*,#426,.F.);
#241=ORIENTED_EDGE('',*,*,#347,.F.);
#242=ORIENTED_EDGE('',*,*,#341,.F.);
#243=ORIENTED_EDGE('',*,*,#353,.F.);
#244=ORIENTED_EDGE('',*,*,#427,.F.);
#245=ORIENTED_EDGE('',*,*,#354,.F.);
#246=ORIENTED_EDGE('',*,*,#338,.F.);
#247=ORIENTED_EDGE('',*,*,#357,.F.);
#248=ORIENTED_EDGE('',*,*,#439,.T.);
#249=ORIENTED_EDGE('',*,*,#440,.T.);
#250=ORIENTED_EDGE('',*,*,#441,.F.);
#251=ORIENTED_EDGE('',*,*,#442,.T.);
#252=ORIENTED_EDGE('',*,*,#329,.T.);
#253=ORIENTED_EDGE('',*,*,#443,.T.);
#254=ORIENTED_EDGE('',*,*,#444,.T.);
#255=ORIENTED_EDGE('',*,*,#445,.T.);
#256=ORIENTED_EDGE('',*,*,#446,.T.);
#257=ORIENTED_EDGE('',*,*,#447,.T.);
#258=ORIENTED_EDGE('',*,*,#377,.T.);
#259=ORIENTED_EDGE('',*,*,#448,.T.);
#260=ORIENTED_EDGE('',*,*,#395,.F.);
#261=ORIENTED_EDGE('',*,*,#449,.T.);
#262=ORIENTED_EDGE('',*,*,#390,.T.);
#263=ORIENTED_EDGE('',*,*,#450,.T.);
#264=ORIENTED_EDGE('',*,*,#449,.F.);
#265=ORIENTED_EDGE('',*,*,#399,.F.);
#266=ORIENTED_EDGE('',*,*,#423,.F.);
#267=ORIENTED_EDGE('',*,*,#397,.F.);
#268=ORIENTED_EDGE('',*,*,#451,.T.);
#269=ORIENTED_EDGE('',*,*,#331,.F.);
#270=ORIENTED_EDGE('',*,*,#401,.F.);
#271=ORIENTED_EDGE('',*,*,#381,.F.);
#272=ORIENTED_EDGE('',*,*,#333,.F.);
#273=ORIENTED_EDGE('',*,*,#452,.F.);
#274=ORIENTED_EDGE('',*,*,#448,.F.);
#275=ORIENTED_EDGE('',*,*,#452,.T.);
#276=ORIENTED_EDGE('',*,*,#332,.F.);
#277=ORIENTED_EDGE('',*,*,#451,.F.);
#278=ORIENTED_EDGE('',*,*,#396,.F.);
#279=ORIENTED_EDGE('',*,*,#369,.F.);
#280=ORIENTED_EDGE('',*,*,#366,.F.);
#281=ORIENTED_EDGE('',*,*,#362,.F.);
#282=ORIENTED_EDGE('',*,*,#432,.F.);
#283=ORIENTED_EDGE('',*,*,#415,.F.);
#284=ORIENTED_EDGE('',*,*,#412,.F.);
#285=ORIENTED_EDGE('',*,*,#408,.F.);
#286=ORIENTED_EDGE('',*,*,#435,.F.);
#287=ORIENTED_EDGE('',*,*,#387,.F.);
#288=ORIENTED_EDGE('',*,*,#453,.T.);
#289=ORIENTED_EDGE('',*,*,#441,.T.);
#290=ORIENTED_EDGE('',*,*,#454,.T.);
#291=ORIENTED_EDGE('',*,*,#389,.T.);
#292=ORIENTED_EDGE('',*,*,#455,.T.);
#293=ORIENTED_EDGE('',*,*,#439,.F.);
#294=ORIENTED_EDGE('',*,*,#450,.F.);
#295=ORIENTED_EDGE('',*,*,#444,.F.);
#296=ORIENTED_EDGE('',*,*,#456,.T.);
#297=ORIENTED_EDGE('',*,*,#384,.T.);
#298=ORIENTED_EDGE('',*,*,#457,.T.);
#299=ORIENTED_EDGE('',*,*,#446,.F.);
#300=ORIENTED_EDGE('',*,*,#458,.T.);
#301=ORIENTED_EDGE('',*,*,#382,.T.);
#302=ORIENTED_EDGE('',*,*,#459,.T.);
#303=ORIENTED_EDGE('',*,*,#394,.F.);
#304=ORIENTED_EDGE('',*,*,#393,.F.);
#305=ORIENTED_EDGE('',*,*,#422,.F.);
#306=ORIENTED_EDGE('',*,*,#378,.F.);
#307=ORIENTED_EDGE('',*,*,#447,.F.);
#308=ORIENTED_EDGE('',*,*,#459,.F.);
#309=ORIENTED_EDGE('',*,*,#385,.F.);
#310=ORIENTED_EDGE('',*,*,#456,.F.);
#311=ORIENTED_EDGE('',*,*,#443,.F.);
#312=ORIENTED_EDGE('',*,*,#328,.F.);
#313=ORIENTED_EDGE('',*,*,#386,.F.);
#314=ORIENTED_EDGE('',*,*,#330,.F.);
#315=ORIENTED_EDGE('',*,*,#442,.F.);
#316=ORIENTED_EDGE('',*,*,#453,.F.);
#317=ORIENTED_EDGE('',*,*,#383,.F.);
#318=ORIENTED_EDGE('',*,*,#458,.F.);
#319=ORIENTED_EDGE('',*,*,#445,.F.);
#320=ORIENTED_EDGE('',*,*,#457,.F.);
#321=ORIENTED_EDGE('',*,*,#388,.F.);
#322=ORIENTED_EDGE('',*,*,#454,.F.);
#323=ORIENTED_EDGE('',*,*,#440,.F.);
#324=ORIENTED_EDGE('',*,*,#455,.F.);
#325=ORIENTED_EDGE('',*,*,#421,.F.);
#326=ORIENTED_EDGE('',*,*,#419,.F.);
#327=EDGE_CURVE('',#460,#461,#549,.T.);
#328=EDGE_CURVE('',#460,#462,#550,.T.);
#329=EDGE_CURVE('',#463,#462,#551,.T.);
#330=EDGE_CURVE('',#463,#461,#552,.T.);
#331=EDGE_CURVE('',#464,#465,#40,.T.);
#332=EDGE_CURVE('',#465,#466,#553,.F.);
#333=EDGE_CURVE('',#466,#467,#554,.T.);
#334=EDGE_CURVE('',#468,#467,#555,.T.);
#335=EDGE_CURVE('',#468,#469,#41,.T.);
#336=EDGE_CURVE('',#469,#470,#556,.T.);
#337=EDGE_CURVE('',#470,#471,#557,.T.);
#338=EDGE_CURVE('',#471,#472,#42,.T.);
#339=EDGE_CURVE('',#472,#473,#43,.T.);
#340=EDGE_CURVE('',#473,#474,#44,.T.);
#341=EDGE_CURVE('',#474,#475,#45,.T.);
#342=EDGE_CURVE('',#476,#475,#558,.T.);
#343=EDGE_CURVE('',#476,#477,#559,.T.);
#344=EDGE_CURVE('',#477,#478,#560,.T.);
#345=EDGE_CURVE('',#478,#479,#46,.T.);
#346=EDGE_CURVE('',#479,#464,#561,.T.);
#347=EDGE_CURVE('',#475,#480,#562,.T.);
#348=EDGE_CURVE('',#481,#480,#563,.T.);
#349=EDGE_CURVE('',#481,#482,#30,.F.);
#350=EDGE_CURVE('',#482,#483,#564,.T.);
#351=EDGE_CURVE('',#483,#476,#31,.T.);
#352=EDGE_CURVE('',#484,#485,#47,.T.);
#353=EDGE_CURVE('',#484,#474,#565,.T.);
#354=EDGE_CURVE('',#472,#485,#566,.F.);
#355=EDGE_CURVE('',#486,#486,#48,.T.);
#356=EDGE_CURVE('',#487,#488,#567,.T.);
#357=EDGE_CURVE('',#488,#471,#568,.T.);
#358=EDGE_CURVE('',#470,#489,#32,.F.);
#359=EDGE_CURVE('',#490,#489,#569,.T.);
#360=EDGE_CURVE('',#490,#487,#33,.T.);
#361=EDGE_CURVE('',#491,#492,#570,.T.);
#362=EDGE_CURVE('',#492,#493,#571,.T.);
#363=EDGE_CURVE('',#494,#493,#572,.T.);
#364=EDGE_CURVE('',#494,#490,#49,.F.);
#365=EDGE_CURVE('',#491,#489,#573,.T.);
#366=EDGE_CURVE('',#493,#495,#574,.T.);
#367=EDGE_CURVE('',#496,#495,#575,.T.);
#368=EDGE_CURVE('',#496,#494,#576,.T.);
#369=EDGE_CURVE('',#495,#497,#577,.T.);
#370=EDGE_CURVE('',#498,#497,#578,.T.);
#371=EDGE_CURVE('',#498,#499,#579,.T.);
#372=EDGE_CURVE('',#500,#499,#580,.T.);
#373=EDGE_CURVE('',#500,#496,#50,.T.);
#374=EDGE_CURVE('',#499,#501,#34,.T.);
#375=EDGE_CURVE('',#501,#502,#581,.F.);
#376=EDGE_CURVE('',#502,#500,#35,.F.);
#377=EDGE_CURVE('',#503,#504,#582,.T.);
#378=EDGE_CURVE('',#503,#505,#583,.F.);
#379=EDGE_CURVE('',#506,#505,#584,.T.);
#380=EDGE_CURVE('',#506,#468,#585,.T.);
#381=EDGE_CURVE('',#467,#504,#36,.T.);
#382=EDGE_CURVE('',#507,#508,#586,.T.);
#383=EDGE_CURVE('',#507,#509,#587,.F.);
#384=EDGE_CURVE('',#510,#509,#588,.T.);
#385=EDGE_CURVE('',#510,#460,#589,.F.);
#386=EDGE_CURVE('',#461,#511,#590,.T.);
#387=EDGE_CURVE('',#511,#512,#591,.T.);
#388=EDGE_CURVE('',#512,#513,#592,.T.);
#389=EDGE_CURVE('',#514,#513,#593,.T.);
#390=EDGE_CURVE('',#515,#514,#594,.T.);
#391=EDGE_CURVE('',#516,#515,#595,.T.);
#392=EDGE_CURVE('',#516,#517,#596,.T.);
#393=EDGE_CURVE('',#517,#518,#597,.F.);
#394=EDGE_CURVE('',#518,#508,#598,.T.);
#395=EDGE_CURVE('',#519,#520,#599,.T.);
#396=EDGE_CURVE('',#520,#521,#600,.T.);
#397=EDGE_CURVE('',#521,#522,#601,.F.);
#398=EDGE_CURVE('',#516,#522,#602,.T.);
#399=EDGE_CURVE('',#515,#519,#603,.T.);
#400=EDGE_CURVE('',#523,#524,#604,.T.);
#401=EDGE_CURVE('',#524,#464,#605,.T.);
#402=EDGE_CURVE('',#479,#523,#606,.F.);
#403=EDGE_CURVE('',#525,#526,#37,.T.);
#404=EDGE_CURVE('',#526,#478,#607,.T.);
#405=EDGE_CURVE('',#477,#527,#38,.F.);
#406=EDGE_CURVE('',#525,#527,#608,.T.);
#407=EDGE_CURVE('',#528,#529,#609,.T.);
#408=EDGE_CURVE('',#529,#530,#610,.T.);
#409=EDGE_CURVE('',#531,#530,#611,.T.);
#410=EDGE_CURVE('',#531,#525,#51,.F.);
#411=EDGE_CURVE('',#528,#527,#612,.T.);
#412=EDGE_CURVE('',#530,#532,#613,.T.);
#413=EDGE_CURVE('',#533,#532,#614,.T.);
#414=EDGE_CURVE('',#533,#531,#615,.T.);
#415=EDGE_CURVE('',#532,#534,#616,.T.);
#416=EDGE_CURVE('',#535,#534,#617,.T.);
#417=EDGE_CURVE('',#535,#483,#618,.T.);
#418=EDGE_CURVE('',#482,#533,#52,.T.);
#419=EDGE_CURVE('',#536,#536,#53,.T.);
#420=EDGE_CURVE('',#537,#537,#54,.T.);
#421=EDGE_CURVE('',#538,#538,#55,.F.);
#422=EDGE_CURVE('',#505,#517,#619,.T.);
#423=EDGE_CURVE('',#522,#524,#56,.F.);
#424=EDGE_CURVE('',#523,#539,#57,.F.);
#425=EDGE_CURVE('',#539,#481,#620,.F.);
#426=EDGE_CURVE('',#480,#484,#58,.F.);
#427=EDGE_CURVE('',#485,#488,#59,.F.);
#428=EDGE_CURVE('',#487,#540,#621,.F.);
#429=EDGE_CURVE('',#540,#506,#60,.F.);
#430=EDGE_CURVE('',#489,#499,#622,.F.);
#431=EDGE_CURVE('',#498,#491,#623,.T.);
#432=EDGE_CURVE('',#497,#492,#624,.T.);
#433=EDGE_CURVE('',#527,#483,#625,.F.);
#434=EDGE_CURVE('',#535,#528,#626,.T.);
#435=EDGE_CURVE('',#534,#529,#627,.T.);
#436=EDGE_CURVE('',#469,#501,#13,.T.);
#437=EDGE_CURVE('',#526,#539,#14,.F.);
#438=EDGE_CURVE('',#540,#502,#15,.F.);
#439=EDGE_CURVE('',#541,#542,#628,.T.);
#440=EDGE_CURVE('',#542,#543,#629,.T.);
#441=EDGE_CURVE('',#544,#543,#630,.T.);
#442=EDGE_CURVE('',#544,#463,#631,.T.);
#443=EDGE_CURVE('',#462,#545,#632,.F.);
#444=EDGE_CURVE('',#545,#546,#633,.T.);
#445=EDGE_CURVE('',#546,#547,#634,.F.);
#446=EDGE_CURVE('',#547,#548,#635,.T.);
#447=EDGE_CURVE('',#548,#503,#636,.T.);
#448=EDGE_CURVE('',#504,#520,#637,.F.);
#449=EDGE_CURVE('',#519,#541,#638,.T.);
#450=EDGE_CURVE('',#514,#541,#639,.T.);
#451=EDGE_CURVE('',#521,#465,#16,.F.);
#452=EDGE_CURVE('',#520,#466,#39,.T.);
#453=EDGE_CURVE('',#511,#544,#640,.T.);
#454=EDGE_CURVE('',#543,#512,#641,.T.);
#455=EDGE_CURVE('',#513,#542,#642,.T.);
#456=EDGE_CURVE('',#545,#510,#643,.T.);
#457=EDGE_CURVE('',#509,#546,#644,.T.);
#458=EDGE_CURVE('',#547,#507,#645,.T.);
#459=EDGE_CURVE('',#508,#548,#646,.T.);
#460=VERTEX_POINT('',#1293);
#461=VERTEX_POINT('',#1294);
#462=VERTEX_POINT('',#1296);
#463=VERTEX_POINT('',#1298);
#464=VERTEX_POINT('',#1302);
#465=VERTEX_POINT('',#1303);
#466=VERTEX_POINT('',#1305);
#467=VERTEX_POINT('',#1307);
#468=VERTEX_POINT('',#1309);
#469=VERTEX_POINT('',#1311);
#470=VERTEX_POINT('',#1313);
#471=VERTEX_POINT('',#1315);
#472=VERTEX_POINT('',#1317);
#473=VERTEX_POINT('',#1319);
#474=VERTEX_POINT('',#1321);
#475=VERTEX_POINT('',#1323);
#476=VERTEX_POINT('',#1325);
#477=VERTEX_POINT('',#1327);
#478=VERTEX_POINT('',#1329);
#479=VERTEX_POINT('',#1331);
#480=VERTEX_POINT('',#1335);
#481=VERTEX_POINT('',#1337);
#482=VERTEX_POINT('',#1339);
#483=VERTEX_POINT('',#1341);
#484=VERTEX_POINT('',#1345);
#485=VERTEX_POINT('',#1346);
#486=VERTEX_POINT('',#1350);
#487=VERTEX_POINT('',#1353);
#488=VERTEX_POINT('',#1354);
#489=VERTEX_POINT('',#1357);
#490=VERTEX_POINT('',#1359);
#491=VERTEX_POINT('',#1363);
#492=VERTEX_POINT('',#1364);
#493=VERTEX_POINT('',#1366);
#494=VERTEX_POINT('',#1368);
#495=VERTEX_POINT('',#1373);
#496=VERTEX_POINT('',#1375);
#497=VERTEX_POINT('',#1379);
#498=VERTEX_POINT('',#1381);
#499=VERTEX_POINT('',#1383);
#500=VERTEX_POINT('',#1385);
#501=VERTEX_POINT('',#1389);
#502=VERTEX_POINT('',#1391);
#503=VERTEX_POINT('',#1395);
#504=VERTEX_POINT('',#1396);
#505=VERTEX_POINT('',#1398);
#506=VERTEX_POINT('',#1400);
#507=VERTEX_POINT('',#1405);
#508=VERTEX_POINT('',#1406);
#509=VERTEX_POINT('',#1408);
#510=VERTEX_POINT('',#1410);
#511=VERTEX_POINT('',#1413);
#512=VERTEX_POINT('',#1415);
#513=VERTEX_POINT('',#1417);
#514=VERTEX_POINT('',#1419);
#515=VERTEX_POINT('',#1421);
#516=VERTEX_POINT('',#1423);
#517=VERTEX_POINT('',#1425);
#518=VERTEX_POINT('',#1427);
#519=VERTEX_POINT('',#1431);
#520=VERTEX_POINT('',#1432);
#521=VERTEX_POINT('',#1434);
#522=VERTEX_POINT('',#1436);
#523=VERTEX_POINT('',#1441);
#524=VERTEX_POINT('',#1442);
#525=VERTEX_POINT('',#1447);
#526=VERTEX_POINT('',#1448);
#527=VERTEX_POINT('',#1451);
#528=VERTEX_POINT('',#1455);
#529=VERTEX_POINT('',#1456);
#530=VERTEX_POINT('',#1458);
#531=VERTEX_POINT('',#1460);
#532=VERTEX_POINT('',#1465);
#533=VERTEX_POINT('',#1467);
#534=VERTEX_POINT('',#1471);
#535=VERTEX_POINT('',#1473);
#536=VERTEX_POINT('',#1478);
#537=VERTEX_POINT('',#1480);
#538=VERTEX_POINT('',#1483);
#539=VERTEX_POINT('',#1487);
#540=VERTEX_POINT('',#1492);
#541=VERTEX_POINT('',#1527);
#542=VERTEX_POINT('',#1528);
#543=VERTEX_POINT('',#1530);
#544=VERTEX_POINT('',#1532);
#545=VERTEX_POINT('',#1535);
#546=VERTEX_POINT('',#1537);
#547=VERTEX_POINT('',#1539);
#548=VERTEX_POINT('',#1541);
#549=LINE('',#1292,#647);
#550=LINE('',#1295,#648);
#551=LINE('',#1297,#649);
#552=LINE('',#1299,#650);
#553=LINE('',#1304,#651);
#554=LINE('',#1306,#652);
#555=LINE('',#1308,#653);
#556=LINE('',#1312,#654);
#557=LINE('',#1314,#655);
#558=LINE('',#1324,#656);
#559=LINE('',#1326,#657);
#560=LINE('',#1328,#658);
#561=LINE('',#1332,#659);
#562=LINE('',#1334,#660);
#563=LINE('',#1336,#661);
#564=LINE('',#1340,#662);
#565=LINE('',#1347,#663);
#566=LINE('',#1348,#664);
#567=LINE('',#1352,#665);
#568=LINE('',#1355,#666);
#569=LINE('',#1358,#667);
#570=LINE('',#1362,#668);
#571=LINE('',#1365,#669);
#572=LINE('',#1367,#670);
#573=LINE('',#1370,#671);
#574=LINE('',#1372,#672);
#575=LINE('',#1374,#673);
#576=LINE('',#1376,#674);
#577=LINE('',#1378,#675);
#578=LINE('',#1380,#676);
#579=LINE('',#1382,#677);
#580=LINE('',#1384,#678);
#581=LINE('',#1390,#679);
#582=LINE('',#1394,#680);
#583=LINE('',#1397,#681);
#584=LINE('',#1399,#682);
#585=LINE('',#1401,#683);
#586=LINE('',#1404,#684);
#587=LINE('',#1407,#685);
#588=LINE('',#1409,#686);
#589=LINE('',#1411,#687);
#590=LINE('',#1412,#688);
#591=LINE('',#1414,#689);
#592=LINE('',#1416,#690);
#593=LINE('',#1418,#691);
#594=LINE('',#1420,#692);
#595=LINE('',#1422,#693);
#596=LINE('',#1424,#694);
#597=LINE('',#1426,#695);
#598=LINE('',#1428,#696);
#599=LINE('',#1430,#697);
#600=LINE('',#1433,#698);
#601=LINE('',#1435,#699);
#602=LINE('',#1437,#700);
#603=LINE('',#1438,#701);
#604=LINE('',#1440,#702);
#605=LINE('',#1443,#703);
#606=LINE('',#1444,#704);
#607=LINE('',#1449,#705);
#608=LINE('',#1452,#706);
#609=LINE('',#1454,#707);
#610=LINE('',#1457,#708);
#611=LINE('',#1459,#709);
#612=LINE('',#1462,#710);
#613=LINE('',#1464,#711);
#614=LINE('',#1466,#712);
#615=LINE('',#1468,#713);
#616=LINE('',#1470,#714);
#617=LINE('',#1472,#715);
#618=LINE('',#1474,#716);
#619=LINE('',#1484,#717);
#620=LINE('',#1488,#718);
#621=LINE('',#1491,#719);
#622=LINE('',#1496,#720);
#623=LINE('',#1497,#721);
#624=LINE('',#1499,#722);
#625=LINE('',#1501,#723);
#626=LINE('',#1502,#724);
#627=LINE('',#1504,#725);
#628=LINE('',#1526,#726);
#629=LINE('',#1529,#727);
#630=LINE('',#1531,#728);
#631=LINE('',#1533,#729);
#632=LINE('',#1534,#730);
#633=LINE('',#1536,#731);
#634=LINE('',#1538,#732);
#635=LINE('',#1540,#733);
#636=LINE('',#1542,#734);
#637=LINE('',#1543,#735);
#638=LINE('',#1544,#736);
#639=LINE('',#1546,#737);
#640=LINE('',#1559,#738);
#641=LINE('',#1560,#739);
#642=LINE('',#1562,#740);
#643=LINE('',#1564,#741);
#644=LINE('',#1565,#742);
#645=LINE('',#1567,#743);
#646=LINE('',#1568,#744);
#647=VECTOR('',#1034,1.);
#648=VECTOR('',#1035,1.);
#649=VECTOR('',#1036,1.);
#650=VECTOR('',#1037,1.);
#651=VECTOR('',#1042,1.);
#652=VECTOR('',#1043,1.);
#653=VECTOR('',#1044,1.);
#654=VECTOR('',#1047,1.);
#655=VECTOR('',#1048,1.);
#656=VECTOR('',#1057,1.);
#657=VECTOR('',#1058,1.);
#658=VECTOR('',#1059,1.);
#659=VECTOR('',#1062,1.);
#660=VECTOR('',#1065,1.);
#661=VECTOR('',#1066,1.);
#662=VECTOR('',#1069,1.);
#663=VECTOR('',#1076,1.);
#664=VECTOR('',#1077,1.);
#665=VECTOR('',#1082,1.);
#666=VECTOR('',#1083,1.);
#667=VECTOR('',#1086,1.);
#668=VECTOR('',#1091,1.);
#669=VECTOR('',#1092,1.);
#670=VECTOR('',#1093,1.);
#671=VECTOR('',#1096,1.);
#672=VECTOR('',#1099,1.);
#673=VECTOR('',#1100,1.);
#674=VECTOR('',#1101,1.);
#675=VECTOR('',#1104,1.);
#676=VECTOR('',#1105,1.);
#677=VECTOR('',#1106,1.);
#678=VECTOR('',#1107,1.);
#679=VECTOR('',#1114,1.);
#680=VECTOR('',#1119,1.);
#681=VECTOR('',#1120,1.);
#682=VECTOR('',#1121,1.);
#683=VECTOR('',#1122,1.);
#684=VECTOR('',#1127,1.);
#685=VECTOR('',#1128,1.);
#686=VECTOR('',#1129,1.);
#687=VECTOR('',#1130,1.);
#688=VECTOR('',#1131,1.);
#689=VECTOR('',#1132,1.);
#690=VECTOR('',#1133,1.);
#691=VECTOR('',#1134,1.);
#692=VECTOR('',#1135,1.);
#693=VECTOR('',#1136,1.);
#694=VECTOR('',#1137,1.);
#695=VECTOR('',#1138,1.);
#696=VECTOR('',#1139,1.);
#697=VECTOR('',#1142,1.);
#698=VECTOR('',#1143,1.);
#699=VECTOR('',#1144,1.);
#700=VECTOR('',#1145,1.);
#701=VECTOR('',#1146,1.);
#702=VECTOR('',#1149,1.);
#703=VECTOR('',#1150,1.);
#704=VECTOR('',#1151,1.);
#705=VECTOR('',#1156,1.);
#706=VECTOR('',#1159,1.);
#707=VECTOR('',#1162,1.);
#708=VECTOR('',#1163,1.);
#709=VECTOR('',#1164,1.);
#710=VECTOR('',#1167,1.);
#711=VECTOR('',#1170,1.);
#712=VECTOR('',#1171,1.);
#713=VECTOR('',#1172,1.);
#714=VECTOR('',#1175,1.);
#715=VECTOR('',#1176,1.);
#716=VECTOR('',#1177,1.);
#717=VECTOR('',#1190,1.);
#718=VECTOR('',#1195,1.);
#719=VECTOR('',#1200,1.);
#720=VECTOR('',#1207,1.);
#721=VECTOR('',#1208,1.);
#722=VECTOR('',#1211,1.);
#723=VECTOR('',#1214,1.);
#724=VECTOR('',#1215,1.);
#725=VECTOR('',#1218,1.);
#726=VECTOR('',#1237,1.);
#727=VECTOR('',#1238,1.);
#728=VECTOR('',#1239,1.);
#729=VECTOR('',#1240,1.);
#730=VECTOR('',#1241,1.);
#731=VECTOR('',#1242,1.);
#732=VECTOR('',#1243,1.);
#733=VECTOR('',#1244,1.);
#734=VECTOR('',#1245,1.);
#735=VECTOR('',#1246,1.);
#736=VECTOR('',#1247,1.);
#737=VECTOR('',#1250,1.);
#738=VECTOR('',#1265,1.);
#739=VECTOR('',#1266,1.);
#740=VECTOR('',#1269,1.);
#741=VECTOR('',#1272,1.);
#742=VECTOR('',#1273,1.);
#743=VECTOR('',#1276,1.);
#744=VECTOR('',#1277,1.);
#745=EDGE_LOOP('',(#61,#62,#63,#64));
#746=EDGE_LOOP('',(#65,#66,#67,#68,#69,#70,#71,#72,#73,#74,#75,#76,#77,
#78,#79,#80));
#747=EDGE_LOOP('',(#81,#82,#83,#84,#85,#86));
#748=EDGE_LOOP('',(#87,#88,#89,#90,#91));
#749=EDGE_LOOP('',(#92));
#750=EDGE_LOOP('',(#93,#94,#95,#96,#97,#98));
#751=EDGE_LOOP('',(#99,#100,#101,#102,#103,#104));
#752=EDGE_LOOP('',(#105,#106,#107,#108));
#753=EDGE_LOOP('',(#109,#110,#111,#112,#113,#114));
#754=EDGE_LOOP('',(#115,#116,#117,#118));
#755=EDGE_LOOP('',(#119,#120,#121,#122,#123,#124));
#756=EDGE_LOOP('',(#125,#126,#127,#128,#129,#130,#131,#132,#133,#134,#135,
#136,#137,#138));
#757=EDGE_LOOP('',(#139,#140,#141,#142,#143,#144));
#758=EDGE_LOOP('',(#145,#146,#147,#148));
#759=EDGE_LOOP('',(#149,#150,#151,#152,#153));
#760=EDGE_LOOP('',(#154,#155,#156,#157,#158,#159));
#761=EDGE_LOOP('',(#160,#161,#162,#163));
#762=EDGE_LOOP('',(#164,#165,#166,#167,#168,#169));
#763=EDGE_LOOP('',(#170));
#764=EDGE_LOOP('',(#171));
#765=EDGE_LOOP('',(#172));
#766=EDGE_LOOP('',(#173,#174,#175,#176,#177,#178,#179,#180,#181,#182,#183,
#184,#185,#186,#187));
#767=EDGE_LOOP('',(#188));
#768=EDGE_LOOP('',(#189));
#769=EDGE_LOOP('',(#190,#191,#192,#193));
#770=EDGE_LOOP('',(#194,#195,#196,#197));
#771=EDGE_LOOP('',(#198,#199,#200,#201));
#772=EDGE_LOOP('',(#202,#203,#204,#205));
#773=EDGE_LOOP('',(#206,#207,#208,#209,#210));
#774=EDGE_LOOP('',(#211,#212,#213,#214));
#775=EDGE_LOOP('',(#215,#216,#217,#218,#219,#220,#221));
#776=EDGE_LOOP('',(#222,#223,#224,#225,#226));
#777=EDGE_LOOP('',(#227,#228,#229,#230,#231,#232,#233));
#778=EDGE_LOOP('',(#234,#235,#236,#237,#238,#239));
#779=EDGE_LOOP('',(#240,#241,#242,#243));
#780=EDGE_LOOP('',(#244,#245,#246,#247));
#781=EDGE_LOOP('',(#248,#249,#250,#251,#252,#253,#254,#255,#256,#257,#258,
#259,#260,#261));
#782=EDGE_LOOP('',(#262,#263,#264,#265));
#783=EDGE_LOOP('',(#266,#267,#268,#269,#270));
#784=EDGE_LOOP('',(#271,#272,#273,#274));
#785=EDGE_LOOP('',(#275,#276,#277,#278));
#786=EDGE_LOOP('',(#279,#280,#281,#282));
#787=EDGE_LOOP('',(#283,#284,#285,#286));
#788=EDGE_LOOP('',(#287,#288,#289,#290));
#789=EDGE_LOOP('',(#291,#292,#293,#294));
#790=EDGE_LOOP('',(#295,#296,#297,#298));
#791=EDGE_LOOP('',(#299,#300,#301,#302));
#792=EDGE_LOOP('',(#303,#304,#305,#306,#307,#308));
#793=EDGE_LOOP('',(#309,#310,#311,#312));
#794=EDGE_LOOP('',(#313,#314,#315,#316));
#795=EDGE_LOOP('',(#317,#318,#319,#320));
#796=EDGE_LOOP('',(#321,#322,#323,#324));
#797=EDGE_LOOP('',(#325));
#798=EDGE_LOOP('',(#326));
#799=FACE_BOUND('',#745,.T.);
#800=FACE_BOUND('',#746,.T.);
#801=FACE_BOUND('',#747,.T.);
#802=FACE_BOUND('',#748,.T.);
#803=FACE_BOUND('',#749,.T.);
#804=FACE_BOUND('',#750,.T.);
#805=FACE_BOUND('',#751,.T.);
#806=FACE_BOUND('',#752,.T.);
#807=FACE_BOUND('',#753,.T.);
#808=FACE_BOUND('',#754,.T.);
#809=FACE_BOUND('',#755,.T.);
#810=FACE_BOUND('',#756,.T.);
#811=FACE_BOUND('',#757,.T.);
#812=FACE_BOUND('',#758,.T.);
#813=FACE_BOUND('',#759,.T.);
#814=FACE_BOUND('',#760,.T.);
#815=FACE_BOUND('',#761,.T.);
#816=FACE_BOUND('',#762,.T.);
#817=FACE_BOUND('',#763,.T.);
#818=FACE_BOUND('',#764,.T.);
#819=FACE_BOUND('',#765,.T.);
#820=FACE_BOUND('',#766,.T.);
#821=FACE_BOUND('',#767,.T.);
#822=FACE_BOUND('',#768,.T.);
#823=FACE_BOUND('',#769,.T.);
#824=FACE_BOUND('',#770,.T.);
#825=FACE_BOUND('',#771,.T.);
#826=FACE_BOUND('',#772,.T.);
#827=FACE_BOUND('',#773,.T.);
#828=FACE_BOUND('',#774,.T.);
#829=FACE_BOUND('',#775,.T.);
#830=FACE_BOUND('',#776,.T.);
#831=FACE_BOUND('',#777,.T.);
#832=FACE_BOUND('',#778,.T.);
#833=FACE_BOUND('',#779,.T.);
#834=FACE_BOUND('',#780,.T.);
#835=FACE_BOUND('',#781,.T.);
#836=FACE_BOUND('',#782,.T.);
#837=FACE_BOUND('',#783,.T.);
#838=FACE_BOUND('',#784,.T.);
#839=FACE_BOUND('',#785,.T.);
#840=FACE_BOUND('',#786,.T.);
#841=FACE_BOUND('',#787,.T.);
#842=FACE_BOUND('',#788,.T.);
#843=FACE_BOUND('',#789,.T.);
#844=FACE_BOUND('',#790,.T.);
#845=FACE_BOUND('',#791,.T.);
#846=FACE_BOUND('',#792,.T.);
#847=FACE_BOUND('',#793,.T.);
#848=FACE_BOUND('',#794,.T.);
#849=FACE_BOUND('',#795,.T.);
#850=FACE_BOUND('',#796,.T.);
#851=FACE_BOUND('',#797,.T.);
#852=FACE_BOUND('',#798,.T.);
#853=PLANE('',#950);
#854=PLANE('',#951);
#855=PLANE('',#959);
#856=PLANE('',#965);
#857=PLANE('',#968);
#858=PLANE('',#970);
#859=PLANE('',#971);
#860=PLANE('',#973);
#861=PLANE('',#976);
#862=PLANE('',#978);
#863=PLANE('',#979);
#864=PLANE('',#980);
#865=PLANE('',#981);
#866=PLANE('',#984);
#867=PLANE('',#986);
#868=PLANE('',#987);
#869=PLANE('',#992);
#870=PLANE('',#999);
#871=PLANE('',#1000);
#872=PLANE('',#1001);
#873=PLANE('',#1002);
#874=PLANE('',#1003);
#875=PLANE('',#1012);
#876=PLANE('',#1013);
#877=PLANE('',#1018);
#878=PLANE('',#1019);
#879=PLANE('',#1020);
#880=PLANE('',#1021);
#881=PLANE('',#1022);
#882=PLANE('',#1023);
#883=PLANE('',#1024);
#884=PLANE('',#1025);
#885=PLANE('',#1026);
#886=PLANE('',#1027);
#887=PLANE('',#1028);
#888=ADVANCED_FACE('',(#799),#853,.T.);
#889=ADVANCED_FACE('',(#800),#854,.F.);
#890=ADVANCED_FACE('',(#801),#855,.F.);
#891=ADVANCED_FACE('',(#802,#803),#17,.T.);
#892=ADVANCED_FACE('',(#804),#856,.T.);
#893=ADVANCED_FACE('',(#805),#857,.F.);
#894=ADVANCED_FACE('',(#806),#858,.T.);
#895=ADVANCED_FACE('',(#807),#859,.T.);
#896=ADVANCED_FACE('',(#808),#860,.F.);
#897=ADVANCED_FACE('',(#809),#861,.F.);
#898=ADVANCED_FACE('',(#810),#862,.T.);
#899=ADVANCED_FACE('',(#811),#863,.F.);
#900=ADVANCED_FACE('',(#812),#864,.T.);
#901=ADVANCED_FACE('',(#813),#865,.T.);
#902=ADVANCED_FACE('',(#814),#866,.F.);
#903=ADVANCED_FACE('',(#815),#867,.T.);
#904=ADVANCED_FACE('',(#816),#868,.T.);
#905=ADVANCED_FACE('',(#817,#818),#18,.F.);
#906=ADVANCED_FACE('',(#819,#820),#869,.T.);
#907=ADVANCED_FACE('',(#821,#822),#870,.F.);
#908=ADVANCED_FACE('',(#823),#871,.T.);
#909=ADVANCED_FACE('',(#824),#872,.F.);
#910=ADVANCED_FACE('',(#825),#873,.T.);
#911=ADVANCED_FACE('',(#826),#874,.F.);
#912=ADVANCED_FACE('',(#827),#19,.F.);
#913=ADVANCED_FACE('',(#828),#20,.F.);
#914=ADVANCED_FACE('',(#829),#21,.T.);
#915=ADVANCED_FACE('',(#830),#22,.F.);
#916=ADVANCED_FACE('',(#831),#23,.T.);
#917=ADVANCED_FACE('',(#832),#24,.F.);
#918=ADVANCED_FACE('',(#833),#25,.F.);
#919=ADVANCED_FACE('',(#834),#26,.F.);
#920=ADVANCED_FACE('',(#835),#875,.T.);
#921=ADVANCED_FACE('',(#836),#876,.F.);
#922=ADVANCED_FACE('',(#837),#27,.F.);
#923=ADVANCED_FACE('',(#838),#28,.F.);
#924=ADVANCED_FACE('',(#839),#29,.F.);
#925=ADVANCED_FACE('',(#840),#877,.T.);
#926=ADVANCED_FACE('',(#841),#878,.T.);
#927=ADVANCED_FACE('',(#842),#879,.F.);
#928=ADVANCED_FACE('',(#843),#880,.T.);
#929=ADVANCED_FACE('',(#844),#881,.T.);
#930=ADVANCED_FACE('',(#845),#882,.T.);
#931=ADVANCED_FACE('',(#846),#883,.F.);
#932=ADVANCED_FACE('',(#847),#884,.T.);
#933=ADVANCED_FACE('',(#848),#885,.F.);
#934=ADVANCED_FACE('',(#849),#886,.F.);
#935=ADVANCED_FACE('',(#850),#887,.T.);
#936=ADVANCED_FACE('',(#851,#852),#12,.F.);
#937=CLOSED_SHELL('',(#888,#889,#890,#891,#892,#893,#894,#895,#896,#897,
#898,#899,#900,#901,#902,#903,#904,#905,#906,#907,#908,#909,#910,#911,#912,
#913,#914,#915,#916,#917,#918,#919,#920,#921,#922,#923,#924,#925,#926,#927,
#928,#929,#930,#931,#932,#933,#934,#935,#936));
#938=STYLED_ITEM('',(#939),#946);
#939=PRESENTATION_STYLE_ASSIGNMENT((#940));
#940=SURFACE_STYLE_USAGE(.BOTH.,#941);
#941=SURFACE_SIDE_STYLE('',(#942));
#942=SURFACE_STYLE_FILL_AREA(#943);
#943=FILL_AREA_STYLE('',(#944));
#944=FILL_AREA_STYLE_COLOUR('',#945);
#945=COLOUR_RGB('',0.729411764705882,0.250980392156863,0.105882352941176);
#946=MANIFOLD_SOLID_BREP('Power Button Mount',#937);
#947=SHAPE_DEFINITION_REPRESENTATION(#1581,#948);
#948=SHAPE_REPRESENTATION('Power Button Mount',(#949),#1576);
#949=AXIS2_PLACEMENT_3D('',#1290,#1030,#1031);
#950=AXIS2_PLACEMENT_3D('',#1291,#1032,#1033);
#951=AXIS2_PLACEMENT_3D('',#1300,#1038,#1039);
#952=AXIS2_PLACEMENT_3D('',#1301,#1040,#1041);
#953=AXIS2_PLACEMENT_3D('',#1310,#1045,#1046);
#954=AXIS2_PLACEMENT_3D('',#1316,#1049,#1050);
#955=AXIS2_PLACEMENT_3D('',#1318,#1051,#1052);
#956=AXIS2_PLACEMENT_3D('',#1320,#1053,#1054);
#957=AXIS2_PLACEMENT_3D('',#1322,#1055,#1056);
#958=AXIS2_PLACEMENT_3D('',#1330,#1060,#1061);
#959=AXIS2_PLACEMENT_3D('',#1333,#1063,#1064);
#960=AXIS2_PLACEMENT_3D('',#1338,#1067,#1068);
#961=AXIS2_PLACEMENT_3D('',#1342,#1070,#1071);
#962=AXIS2_PLACEMENT_3D('',#1343,#1072,#1073);
#963=AXIS2_PLACEMENT_3D('',#1344,#1074,#1075);
#964=AXIS2_PLACEMENT_3D('',#1349,#1078,#1079);
#965=AXIS2_PLACEMENT_3D('',#1351,#1080,#1081);
#966=AXIS2_PLACEMENT_3D('',#1356,#1084,#1085);
#967=AXIS2_PLACEMENT_3D('',#1360,#1087,#1088);
#968=AXIS2_PLACEMENT_3D('',#1361,#1089,#1090);
#969=AXIS2_PLACEMENT_3D('',#1369,#1094,#1095);
#970=AXIS2_PLACEMENT_3D('',#1371,#1097,#1098);
#971=AXIS2_PLACEMENT_3D('',#1377,#1102,#1103);
#972=AXIS2_PLACEMENT_3D('',#1386,#1108,#1109);
#973=AXIS2_PLACEMENT_3D('',#1387,#1110,#1111);
#974=AXIS2_PLACEMENT_3D('',#1388,#1112,#1113);
#975=AXIS2_PLACEMENT_3D('',#1392,#1115,#1116);
#976=AXIS2_PLACEMENT_3D('',#1393,#1117,#1118);
#977=AXIS2_PLACEMENT_3D('',#1402,#1123,#1124);
#978=AXIS2_PLACEMENT_3D('',#1403,#1125,#1126);
#979=AXIS2_PLACEMENT_3D('',#1429,#1140,#1141);
#980=AXIS2_PLACEMENT_3D('',#1439,#1147,#1148);
#981=AXIS2_PLACEMENT_3D('',#1445,#1152,#1153);
#982=AXIS2_PLACEMENT_3D('',#1446,#1154,#1155);
#983=AXIS2_PLACEMENT_3D('',#1450,#1157,#1158);
#984=AXIS2_PLACEMENT_3D('',#1453,#1160,#1161);
#985=AXIS2_PLACEMENT_3D('',#1461,#1165,#1166);
#986=AXIS2_PLACEMENT_3D('',#1463,#1168,#1169);
#987=AXIS2_PLACEMENT_3D('',#1469,#1173,#1174);
#988=AXIS2_PLACEMENT_3D('',#1475,#1178,#1179);
#989=AXIS2_PLACEMENT_3D('',#1476,#1180,#1181);
#990=AXIS2_PLACEMENT_3D('',#1477,#1182,#1183);
#991=AXIS2_PLACEMENT_3D('',#1479,#1184,#1185);
#992=AXIS2_PLACEMENT_3D('',#1481,#1186,#1187);
#993=AXIS2_PLACEMENT_3D('',#1482,#1188,#1189);
#994=AXIS2_PLACEMENT_3D('',#1485,#1191,#1192);
#995=AXIS2_PLACEMENT_3D('',#1486,#1193,#1194);
#996=AXIS2_PLACEMENT_3D('',#1489,#1196,#1197);
#997=AXIS2_PLACEMENT_3D('',#1490,#1198,#1199);
#998=AXIS2_PLACEMENT_3D('',#1493,#1201,#1202);
#999=AXIS2_PLACEMENT_3D('',#1494,#1203,#1204);
#1000=AXIS2_PLACEMENT_3D('',#1495,#1205,#1206);
#1001=AXIS2_PLACEMENT_3D('',#1498,#1209,#1210);
#1002=AXIS2_PLACEMENT_3D('',#1500,#1212,#1213);
#1003=AXIS2_PLACEMENT_3D('',#1503,#1216,#1217);
#1004=AXIS2_PLACEMENT_3D('',#1505,#1219,#1220);
#1005=AXIS2_PLACEMENT_3D('',#1510,#1221,#1222);
#1006=AXIS2_PLACEMENT_3D('',#1511,#1223,#1224);
#1007=AXIS2_PLACEMENT_3D('',#1516,#1225,#1226);
#1008=AXIS2_PLACEMENT_3D('',#1517,#1227,#1228);
#1009=AXIS2_PLACEMENT_3D('',#1522,#1229,#1230);
#1010=AXIS2_PLACEMENT_3D('',#1523,#1231,#1232);
#1011=AXIS2_PLACEMENT_3D('',#1524,#1233,#1234);
#1012=AXIS2_PLACEMENT_3D('',#1525,#1235,#1236);
#1013=AXIS2_PLACEMENT_3D('',#1545,#1248,#1249);
#1014=AXIS2_PLACEMENT_3D('',#1547,#1251,#1252);
#1015=AXIS2_PLACEMENT_3D('',#1553,#1253,#1254);
#1016=AXIS2_PLACEMENT_3D('',#1554,#1255,#1256);
#1017=AXIS2_PLACEMENT_3D('',#1555,#1257,#1258);
#1018=AXIS2_PLACEMENT_3D('',#1556,#1259,#1260);
#1019=AXIS2_PLACEMENT_3D('',#1557,#1261,#1262);
#1020=AXIS2_PLACEMENT_3D('',#1558,#1263,#1264);
#1021=AXIS2_PLACEMENT_3D('',#1561,#1267,#1268);
#1022=AXIS2_PLACEMENT_3D('',#1563,#1270,#1271);
#1023=AXIS2_PLACEMENT_3D('',#1566,#1274,#1275);
#1024=AXIS2_PLACEMENT_3D('',#1569,#1278,#1279);
#1025=AXIS2_PLACEMENT_3D('',#1570,#1280,#1281);
#1026=AXIS2_PLACEMENT_3D('',#1571,#1282,#1283);
#1027=AXIS2_PLACEMENT_3D('',#1572,#1284,#1285);
#1028=AXIS2_PLACEMENT_3D('',#1573,#1286,#1287);
#1029=AXIS2_PLACEMENT_3D('',#1574,#1288,#1289);
#1030=DIRECTION('',(0.,0.,1.));
#1031=DIRECTION('',(1.,0.,0.));
#1032=DIRECTION('',(2.89120579329468E-16,1.,0.));
#1033=DIRECTION('',(-1.,2.89120579329468E-16,0.));
#1034=DIRECTION('',(0.,0.,-1.));
#1035=DIRECTION('',(1.,-2.89120579329468E-16,0.));
#1036=DIRECTION('',(0.,0.,1.));
#1037=DIRECTION('',(-1.,2.89120579329468E-16,0.));
#1038=DIRECTION('',(0.,0.,1.));
#1039=DIRECTION('',(1.,0.,0.));
#1040=DIRECTION('',(0.,0.,1.));
#1041=DIRECTION('',(1.,0.,0.));
#1042=DIRECTION('',(-1.,1.44560289664734E-16,0.));
#1043=DIRECTION('',(0.,1.,0.));
#1044=DIRECTION('',(-0.830970280711747,0.556316809537372,0.));
#1045=DIRECTION('',(0.,0.,1.));
#1046=DIRECTION('',(1.,0.,0.));
#1047=DIRECTION('',(1.,0.,0.));
#1048=DIRECTION('',(-0.707106781186547,-0.707106781186548,0.));
#1049=DIRECTION('',(0.,0.,1.));
#1050=DIRECTION('',(1.,0.,0.));
#1051=DIRECTION('',(0.,0.,1.));
#1052=DIRECTION('',(1.,0.,0.));
#1053=DIRECTION('',(0.,0.,1.));
#1054=DIRECTION('',(1.,0.,0.));
#1055=DIRECTION('',(0.,0.,1.));
#1056=DIRECTION('',(1.,0.,0.));
#1057=DIRECTION('',(0.707106781186547,0.707106781186548,0.));
#1058=DIRECTION('',(0.,1.,0.));
#1059=DIRECTION('',(0.707106781186547,0.707106781186548,0.));
#1060=DIRECTION('',(0.,0.,1.));
#1061=DIRECTION('',(1.,0.,0.));
#1062=DIRECTION('',(-0.380523074028944,0.92477142588402,0.));
#1063=DIRECTION('',(-0.707106781186548,0.707106781186547,0.));
#1064=DIRECTION('',(-0.707106781186547,-0.707106781186548,0.));
#1065=DIRECTION('',(0.,0.,1.));
#1066=DIRECTION('',(0.707106781186547,0.707106781186548,0.));
#1067=DIRECTION('',(-0.707106781186548,0.707106781186547,0.));
#1068=DIRECTION('',(0.707106781186547,0.707106781186548,0.));
#1069=DIRECTION('',(0.,0.,-1.));
#1070=DIRECTION('',(-0.707106781186548,0.707106781186547,0.));
#1071=DIRECTION('',(0.707106781186547,0.707106781186548,0.));
#1072=DIRECTION('',(0.,0.,-1.));
#1073=DIRECTION('',(-1.,0.,0.));
#1074=DIRECTION('',(0.,0.,1.));
#1075=DIRECTION('',(1.,0.,0.));
#1076=DIRECTION('',(0.,0.,-1.));
#1077=DIRECTION('',(0.,0.,-1.));
#1078=DIRECTION('',(0.,0.,1.));
#1079=DIRECTION('',(1.,0.,0.));
#1080=DIRECTION('',(0.707106781186548,-0.707106781186547,0.));
#1081=DIRECTION('',(0.707106781186547,0.707106781186548,0.));
#1082=DIRECTION('',(-0.707106781186547,-0.707106781186548,0.));
#1083=DIRECTION('',(0.,0.,-1.));
#1084=DIRECTION('',(0.707106781186548,-0.707106781186547,0.));
#1085=DIRECTION('',(0.707106781186547,0.707106781186548,0.));
#1086=DIRECTION('',(0.,0.,-1.));
#1087=DIRECTION('',(0.707106781186548,-0.707106781186547,0.));
#1088=DIRECTION('',(0.707106781186547,0.707106781186548,0.));
#1089=DIRECTION('',(-1.,0.,0.));
#1090=DIRECTION('',(0.,0.,1.));
#1091=DIRECTION('',(0.,1.,0.));
#1092=DIRECTION('',(0.,0.707106781186548,0.707106781186548));
#1093=DIRECTION('',(0.,0.,-1.));
#1094=DIRECTION('',(-1.,0.,0.));
#1095=DIRECTION('',(0.,0.,1.));
#1096=DIRECTION('',(0.,0.,1.));
#1097=DIRECTION('',(0.,1.,0.));
#1098=DIRECTION('',(0.,0.,1.));
#1099=DIRECTION('',(-1.,0.,0.));
#1100=DIRECTION('',(0.,0.,-1.));
#1101=DIRECTION('',(1.,0.,0.));
#1102=DIRECTION('',(-1.,0.,0.));
#1103=DIRECTION('',(0.,0.,1.));
#1104=DIRECTION('',(0.,-0.707106781186548,-0.707106781186548));
#1105=DIRECTION('',(0.,1.,0.));
#1106=DIRECTION('',(0.,0.,1.));
#1107=DIRECTION('',(0.,0.,-1.));
#1108=DIRECTION('',(-1.,0.,0.));
#1109=DIRECTION('',(0.,0.,1.));
#1110=DIRECTION('',(0.707106781186548,-0.707106781186547,0.));
#1111=DIRECTION('',(0.707106781186547,0.707106781186548,0.));
#1112=DIRECTION('',(0.707106781186548,-0.707106781186547,0.));
#1113=DIRECTION('',(0.707106781186547,0.707106781186548,0.));
#1114=DIRECTION('',(0.,0.,-1.));
#1115=DIRECTION('',(0.707106781186548,-0.707106781186547,0.));
#1116=DIRECTION('',(0.707106781186547,0.707106781186548,0.));
#1117=DIRECTION('',(-0.556316809537372,-0.830970280711747,0.));
#1118=DIRECTION('',(0.830970280711747,-0.556316809537372,0.));
#1119=DIRECTION('',(0.,0.,-1.));
#1120=DIRECTION('',(-0.726163917105114,0.486151193300272,-0.486151193300273));
#1121=DIRECTION('',(-0.830970280711747,0.556316809537372,0.));
#1122=DIRECTION('',(0.,0.,-1.));
#1123=DIRECTION('',(-0.556316809537372,-0.830970280711747,0.));
#1124=DIRECTION('',(-0.830970280711747,0.556316809537372,0.));
#1125=DIRECTION('',(-1.,0.,0.));
#1126=DIRECTION('',(0.,0.,1.));
#1127=DIRECTION('',(0.,-9.6373526443156E-16,1.));
#1128=DIRECTION('',(0.,0.707106781186551,0.707106781186545));
#1129=DIRECTION('',(0.,1.,0.));
#1130=DIRECTION('',(0.,0.707106781186546,0.707106781186549));
#1131=DIRECTION('',(0.,0.707106781186547,-0.707106781186549));
#1132=DIRECTION('',(0.,1.,0.));
#1133=DIRECTION('',(0.,0.707106781186548,-0.707106781186548));
#1134=DIRECTION('',(0.,0.,1.));
#1135=DIRECTION('',(0.,1.,0.));
#1136=DIRECTION('',(0.,0.,-1.));
#1137=DIRECTION('',(0.,1.,0.));
#1138=DIRECTION('',(0.,-0.707106781186546,0.707106781186549));
#1139=DIRECTION('',(0.,0.707106781186547,-0.707106781186548));
#1140=DIRECTION('',(1.44560289664734E-16,1.,0.));
#1141=DIRECTION('',(-1.,1.44560289664734E-16,0.));
#1142=DIRECTION('',(0.,0.,1.));
#1143=DIRECTION('',(-1.,1.44560289664734E-16,0.));
#1144=DIRECTION('',(0.,0.,-1.));
#1145=DIRECTION('',(1.,-1.44560289664734E-16,0.));
#1146=DIRECTION('',(1.,-1.44560289664734E-16,0.));
#1147=DIRECTION('',(-0.92477142588402,-0.380523074028944,0.));
#1148=DIRECTION('',(0.380523074028944,-0.92477142588402,0.));
#1149=DIRECTION('',(-0.380523074028944,0.92477142588402,0.));
#1150=DIRECTION('',(0.,0.,-1.));
#1151=DIRECTION('',(0.,0.,-1.));
#1152=DIRECTION('',(-0.707106781186548,0.707106781186547,0.));
#1153=DIRECTION('',(-0.707106781186547,-0.707106781186548,0.));
#1154=DIRECTION('',(-0.707106781186548,0.707106781186547,0.));
#1155=DIRECTION('',(0.707106781186547,0.707106781186548,0.));
#1156=DIRECTION('',(0.,0.,-1.));
#1157=DIRECTION('',(-0.707106781186548,0.707106781186547,0.));
#1158=DIRECTION('',(0.707106781186547,0.707106781186548,0.));
#1159=DIRECTION('',(0.,0.,-1.));
#1160=DIRECTION('',(0.,-1.,0.));
#1161=DIRECTION('',(0.,0.,-1.));
#1162=DIRECTION('',(-1.,0.,0.));
#1163=DIRECTION('',(-0.707106781186548,0.,0.707106781186548));
#1164=DIRECTION('',(0.,0.,-1.));
#1165=DIRECTION('',(0.,-1.,0.));
#1166=DIRECTION('',(0.,0.,-1.));
#1167=DIRECTION('',(0.,0.,1.));
#1168=DIRECTION('',(-1.,0.,0.));
#1169=DIRECTION('',(0.,0.,1.));
#1170=DIRECTION('',(0.,-1.,0.));
#1171=DIRECTION('',(0.,0.,-1.));
#1172=DIRECTION('',(0.,1.,0.));
#1173=DIRECTION('',(0.,-1.,0.));
#1174=DIRECTION('',(0.,0.,-1.));
#1175=DIRECTION('',(0.707106781186548,0.,-0.707106781186548));
#1176=DIRECTION('',(-1.,0.,0.));
#1177=DIRECTION('',(0.,0.,1.));
#1178=DIRECTION('',(0.,-1.,0.));
#1179=DIRECTION('',(0.,0.,-1.));
#1180=DIRECTION('',(0.,0.,-1.));
#1181=DIRECTION('',(-1.,0.,0.));
#1182=DIRECTION('',(0.,0.,1.));
#1183=DIRECTION('',(1.,0.,0.));
#1184=DIRECTION('',(0.,0.,1.));
#1185=DIRECTION('',(1.,0.,0.));
#1186=DIRECTION('',(0.,0.,1.));
#1187=DIRECTION('',(1.,0.,0.));
#1188=DIRECTION('',(0.,0.,1.));
#1189=DIRECTION('',(1.,0.,0.));
#1190=DIRECTION('',(-1.,2.89120579329468E-16,0.));
#1191=DIRECTION('',(0.,0.,1.));
#1192=DIRECTION('',(1.,0.,0.));
#1193=DIRECTION('',(0.,0.,1.));
#1194=DIRECTION('',(1.,0.,0.));
#1195=DIRECTION('',(0.,1.,0.));
#1196=DIRECTION('',(0.,0.,1.));
#1197=DIRECTION('',(1.,0.,0.));
#1198=DIRECTION('',(0.,0.,1.));
#1199=DIRECTION('',(1.,0.,0.));
#1200=DIRECTION('',(1.,0.,0.));
#1201=DIRECTION('',(0.,0.,1.));
#1202=DIRECTION('',(1.,0.,0.));
#1203=DIRECTION('',(0.,0.,1.));
#1204=DIRECTION('',(1.,0.,0.));
#1205=DIRECTION('',(0.,-1.,0.));
#1206=DIRECTION('',(0.,0.,-1.));
#1207=DIRECTION('',(1.,0.,0.));
#1208=DIRECTION('',(1.,0.,0.));
#1209=DIRECTION('',(0.,0.,1.));
#1210=DIRECTION('',(1.,0.,0.));
#1211=DIRECTION('',(1.,0.,0.));
#1212=DIRECTION('',(1.,0.,0.));
#1213=DIRECTION('',(0.,0.,-1.));
#1214=DIRECTION('',(0.,1.,0.));
#1215=DIRECTION('',(0.,1.,0.));
#1216=DIRECTION('',(0.,0.,1.));
#1217=DIRECTION('',(1.,0.,0.));
#1218=DIRECTION('',(0.,1.,0.));
#1219=DIRECTION('',(1.,0.,0.));
#1220=DIRECTION('',(0.,0.,-1.));
#1221=DIRECTION('',(0.,1.,0.));
#1222=DIRECTION('',(0.,0.,1.));
#1223=DIRECTION('',(0.,1.,0.));
#1224=DIRECTION('',(0.,0.,1.));
#1225=DIRECTION('',(0.,0.,1.));
#1226=DIRECTION('',(1.,0.,0.));
#1227=DIRECTION('',(1.,0.,0.));
#1228=DIRECTION('',(0.,0.,-1.));
#1229=DIRECTION('',(0.,0.,1.));
#1230=DIRECTION('',(1.,0.,0.));
#1231=DIRECTION('',(0.,0.,-1.));
#1232=DIRECTION('',(-1.,0.,0.));
#1233=DIRECTION('',(0.,0.,-1.));
#1234=DIRECTION('',(-1.,0.,0.));
#1235=DIRECTION('',(1.,0.,0.));
#1236=DIRECTION('',(0.,0.,-1.));
#1237=DIRECTION('',(0.,0.,1.));
#1238=DIRECTION('',(0.,-0.707106781186548,0.707106781186548));
#1239=DIRECTION('',(0.,1.,0.));
#1240=DIRECTION('',(0.,-0.707106781186547,0.707106781186549));
#1241=DIRECTION('',(0.,-0.707106781186546,-0.707106781186549));
#1242=DIRECTION('',(0.,1.,0.));
#1243=DIRECTION('',(0.,-0.707106781186551,-0.707106781186545));
#1244=DIRECTION('',(0.,-9.6373526443156E-16,1.));
#1245=DIRECTION('',(0.,-0.707106781186547,0.707106781186548));
#1246=DIRECTION('',(0.,1.,0.));
#1247=DIRECTION('',(0.,1.,0.));
#1248=DIRECTION('',(0.,0.,1.));
#1249=DIRECTION('',(1.,0.,0.));
#1250=DIRECTION('',(1.,0.,0.));
#1251=DIRECTION('',(0.,0.,-1.));
#1252=DIRECTION('',(-1.,0.,0.));
#1253=DIRECTION('',(0.,1.,0.));
#1254=DIRECTION('',(0.,0.,1.));
#1255=DIRECTION('',(0.707106781186548,0.707106781186548,0.));
#1256=DIRECTION('',(-0.707106781186548,0.707106781186548,0.));
#1257=DIRECTION('',(1.,-1.44560289664734E-16,0.));
#1258=DIRECTION('',(1.44560289664734E-16,1.,0.));
#1259=DIRECTION('',(0.,0.707106781186548,-0.707106781186548));
#1260=DIRECTION('',(-1.,0.,0.));
#1261=DIRECTION('',(-0.707106781186548,0.,-0.707106781186548));
#1262=DIRECTION('',(0.,-1.,0.));
#1263=DIRECTION('',(0.,0.,-1.));
#1264=DIRECTION('',(-1.,0.,0.));
#1265=DIRECTION('',(1.,-2.89120579329468E-16,0.));
#1266=DIRECTION('',(-1.,0.,0.));
#1267=DIRECTION('',(0.,1.,0.));
#1268=DIRECTION('',(0.,0.,1.));
#1269=DIRECTION('',(1.,0.,0.));
#1270=DIRECTION('',(0.,0.,-1.));
#1271=DIRECTION('',(-1.,0.,0.));
#1272=DIRECTION('',(-1.,2.89120579329468E-16,0.));
#1273=DIRECTION('',(1.,0.,0.));
#1274=DIRECTION('',(0.,1.,9.6373526443156E-16));
#1275=DIRECTION('',(0.,-9.6373526443156E-16,1.));
#1276=DIRECTION('',(-1.,0.,0.));
#1277=DIRECTION('',(1.,0.,0.));
#1278=DIRECTION('',(-2.0443912222445E-16,-0.707106781186548,-0.707106781186547));
#1279=DIRECTION('',(1.,-2.89120579329468E-16,0.));
#1280=DIRECTION('',(2.0443912222445E-16,0.707106781186549,-0.707106781186546));
#1281=DIRECTION('',(-1.,2.89120579329468E-16,0.));
#1282=DIRECTION('',(-2.0443912222445E-16,-0.707106781186549,-0.707106781186547));
#1283=DIRECTION('',(1.,-2.89120579329468E-16,0.));
#1284=DIRECTION('',(0.,-0.707106781186545,0.707106781186551));
#1285=DIRECTION('',(1.,0.,0.));
#1286=DIRECTION('',(0.,0.707106781186548,0.707106781186548));
#1287=DIRECTION('',(-1.,0.,0.));
#1288=DIRECTION('',(0.,0.,1.));
#1289=DIRECTION('',(1.,0.,0.));
#1290=CARTESIAN_POINT('',(0.,0.,0.));
#1291=CARTESIAN_POINT('',(-0.01,0.0095,0.003));
#1292=CARTESIAN_POINT('',(-0.013,0.0095,0.003));
#1293=CARTESIAN_POINT('',(-0.013,0.0095,-0.0022));
#1294=CARTESIAN_POINT('',(-0.013,0.0095,-0.00785));
#1295=CARTESIAN_POINT('',(-0.007,0.0095,-0.0022));
#1296=CARTESIAN_POINT('',(-0.007,0.0095,-0.0022));
#1297=CARTESIAN_POINT('',(-0.007,0.0095,-0.01));
#1298=CARTESIAN_POINT('',(-0.007,0.0095,-0.00785));
#1299=CARTESIAN_POINT('',(-0.01,0.0095,-0.00785));
#1300=CARTESIAN_POINT('',(-0.00136091270347399,0.,0.));
#1301=CARTESIAN_POINT('',(-0.0103493515728975,0.0015,0.));
#1302=CARTESIAN_POINT('',(-0.00572549444347737,0.00340261537014472,0.));
#1303=CARTESIAN_POINT('',(-0.00634935157289747,0.0045,0.));
#1304=CARTESIAN_POINT('',(-0.007,0.0045,0.));
#1305=CARTESIAN_POINT('',(-0.005,0.0045,0.));
#1306=CARTESIAN_POINT('',(-0.005,0.,0.));
#1307=CARTESIAN_POINT('',(-0.005,0.00816104282559692,0.));
#1308=CARTESIAN_POINT('',(-0.0028070741046558,0.0066929258953442,0.));
#1309=CARTESIAN_POINT('',(-0.00168577814796812,0.00594224226242613,0.));
#1310=CARTESIAN_POINT('',(0.000817647494950051,0.00968160852562899,0.));
#1311=CARTESIAN_POINT('',(0.00376156282433531,0.00627817459305203,0.));
#1312=CARTESIAN_POINT('',(-0.00136091270347399,0.00627817459305203,0.));
#1313=CARTESIAN_POINT('',(0.00877817459305202,0.00627817459305203,0.));
#1314=CARTESIAN_POINT('',(0.00703269874216254,0.00453269874216255,0.));
#1315=CARTESIAN_POINT('',(0.00530987052892716,0.00280987052892717,0.));
#1316=CARTESIAN_POINT('',(0.00849185104426663,-0.00037210998641229,0.));
#1317=CARTESIAN_POINT('',(0.00399616519730194,-0.000175110581841078,0.));
#1318=CARTESIAN_POINT('',(1.7347234759768E-18,2.05998412772246E-18,0.));
#1319=CARTESIAN_POINT('',(-0.00378661756972052,-0.00128900247504953,0.));
#1320=CARTESIAN_POINT('',(1.7347234759768E-18,2.05998412772246E-18,0.));
#1321=CARTESIAN_POINT('',(0.00017511058184108,-0.00399616519730194,0.));
#1322=CARTESIAN_POINT('',(0.000372109986412297,-0.00849185104426663,0.));
#1323=CARTESIAN_POINT('',(-0.00280987052892717,-0.00530987052892717,0.));
#1324=CARTESIAN_POINT('',(-0.00453269874216254,-0.00703269874216254,0.));
#1325=CARTESIAN_POINT('',(-0.00627817459305202,-0.00877817459305202,0.));
#1326=CARTESIAN_POINT('',(-0.00627817459305202,0.,0.));
#1327=CARTESIAN_POINT('',(-0.00627817459305202,-0.00377817459305202,0.));
#1328=CARTESIAN_POINT('',(-0.00578571203730386,-0.00328571203730386,0.));
#1329=CARTESIAN_POINT('',(-0.00591400640581771,-0.00341400640581771,0.));
#1330=CARTESIAN_POINT('',(-0.00909598692115718,-0.000232025890478246,0.));
#1331=CARTESIAN_POINT('',(-0.00493451550467909,0.001480327942652,0.));
#1332=CARTESIAN_POINT('',(-0.00539662474077785,0.00260337525922215,0.));
#1333=CARTESIAN_POINT('',(-0.00453269874216254,-0.00703269874216254,0.003));
#1334=CARTESIAN_POINT('',(-0.00280987052892716,-0.00530987052892717,0.003));
#1335=CARTESIAN_POINT('',(-0.00280987052892717,-0.00530987052892717,0.003));
#1336=CARTESIAN_POINT('',(-0.00453269874216254,-0.00703269874216254,0.003));
#1337=CARTESIAN_POINT('',(-0.00577817459305202,-0.00827817459305202,0.003));
#1338=CARTESIAN_POINT('',(-0.00577817459305202,-0.00827817459305202,-0.0015));
#1339=CARTESIAN_POINT('',(-0.00777817459305203,-0.010278174593052,0.00253112887414927));
#1340=CARTESIAN_POINT('',(-0.00777817459305203,-0.010278174593052,0.003));
#1341=CARTESIAN_POINT('',(-0.00777817459305203,-0.010278174593052,-0.0015));
#1342=CARTESIAN_POINT('',(-0.00627817459305202,-0.00877817459305203,-0.0015));
#1343=CARTESIAN_POINT('',(-1.95156391047391E-18,-1.7347234759768E-18,0.003));
#1344=CARTESIAN_POINT('',(-1.95156391047391E-18,-1.7347234759768E-18,0.003));
#1345=CARTESIAN_POINT('',(0.00017511058184108,-0.00399616519730195,0.003));
#1346=CARTESIAN_POINT('',(0.00399616519730194,-0.000175110581841078,0.003));
#1347=CARTESIAN_POINT('',(0.00017511058184108,-0.00399616519730195,0.003));
#1348=CARTESIAN_POINT('',(0.00399616519730195,-0.000175110581841078,0.003));
#1349=CARTESIAN_POINT('',(1.7347234759768E-18,2.05998412772246E-18,-0.0015));
#1350=CARTESIAN_POINT('',(0.004,2.05998412772246E-18,-0.0015));
#1351=CARTESIAN_POINT('',(0.00703269874216254,0.00453269874216255,0.003));
#1352=CARTESIAN_POINT('',(0.00703269874216254,0.00453269874216255,0.003));
#1353=CARTESIAN_POINT('',(0.00827817459305202,0.00577817459305203,0.003));
#1354=CARTESIAN_POINT('',(0.00530987052892716,0.00280987052892717,0.003));
#1355=CARTESIAN_POINT('',(0.00530987052892717,0.00280987052892717,0.003));
#1356=CARTESIAN_POINT('',(0.00877817459305202,0.00627817459305203,-0.0015));
#1357=CARTESIAN_POINT('',(0.010278174593052,0.00777817459305203,-0.0015));
#1358=CARTESIAN_POINT('',(0.010278174593052,0.00777817459305203,0.003));
#1359=CARTESIAN_POINT('',(0.010278174593052,0.00777817459305203,0.00253112887414928));
#1360=CARTESIAN_POINT('',(0.00827817459305202,0.00577817459305203,-0.0015));
#1361=CARTESIAN_POINT('',(0.010278174593052,0.00902817459305203,0.003));
#1362=CARTESIAN_POINT('',(0.010278174593052,0.00902817459305203,-0.005));
#1363=CARTESIAN_POINT('',(0.010278174593052,0.00777817459305203,-0.005));
#1364=CARTESIAN_POINT('',(0.010278174593052,0.00827817459305203,-0.005));
#1365=CARTESIAN_POINT('',(0.010278174593052,0.00827817459305203,-0.005));
#1366=CARTESIAN_POINT('',(0.010278174593052,0.010278174593052,-0.003));
#1367=CARTESIAN_POINT('',(0.010278174593052,0.010278174593052,0.003));
#1368=CARTESIAN_POINT('',(0.010278174593052,0.010278174593052,-0.0015));
#1369=CARTESIAN_POINT('',(0.010278174593052,0.00577817459305203,-0.0015));
#1370=CARTESIAN_POINT('',(0.010278174593052,0.00777817459305203,-0.005));
#1371=CARTESIAN_POINT('',(0.00777817459305202,0.010278174593052,0.003));
#1372=CARTESIAN_POINT('',(0.00527817459305202,0.010278174593052,-0.003));
#1373=CARTESIAN_POINT('',(0.00527817459305202,0.010278174593052,-0.003));
#1374=CARTESIAN_POINT('',(0.00527817459305202,0.010278174593052,0.003));
#1375=CARTESIAN_POINT('',(0.00527817459305202,0.010278174593052,-0.0015));
#1376=CARTESIAN_POINT('',(0.00777817459305202,0.010278174593052,-0.0015));
#1377=CARTESIAN_POINT('',(0.00527817459305202,0.00902817459305203,0.003));
#1378=CARTESIAN_POINT('',(0.00527817459305202,0.012653174593052,-0.000625));
#1379=CARTESIAN_POINT('',(0.00527817459305202,0.00827817459305203,-0.005));
#1380=CARTESIAN_POINT('',(0.00527817459305202,0.00902817459305203,-0.005));
#1381=CARTESIAN_POINT('',(0.00527817459305202,0.00777817459305203,-0.005));
#1382=CARTESIAN_POINT('',(0.00527817459305202,0.00777817459305203,-0.005));
#1383=CARTESIAN_POINT('',(0.00527817459305202,0.00777817459305203,-0.0015));
#1384=CARTESIAN_POINT('',(0.00527817459305202,0.00777817459305203,0.003));
#1385=CARTESIAN_POINT('',(0.00527817459305202,0.00777817459305203,0.00253112887414928));
#1386=CARTESIAN_POINT('',(0.00527817459305202,0.00577817459305203,-0.0015));
#1387=CARTESIAN_POINT('',(0.00333201319187021,0.00583201319187021,0.003));
#1388=CARTESIAN_POINT('',(0.00377817459305202,0.00627817459305203,-0.0015));
#1389=CARTESIAN_POINT('',(0.00399962801028951,0.00649962801028953,-1.64372665795915E-5));
#1390=CARTESIAN_POINT('',(0.00399962801028951,0.00649962801028953,0.003));
#1391=CARTESIAN_POINT('',(0.00399962801028951,0.00649962801028953,0.00294179073873999));
#1392=CARTESIAN_POINT('',(0.00327817459305202,0.00577817459305203,-0.0015));
#1393=CARTESIAN_POINT('',(-0.0028070741046558,0.0066929258953442,0.003));
#1394=CARTESIAN_POINT('',(-0.007,0.0095,-0.00095));
#1395=CARTESIAN_POINT('',(-0.007,0.0095,0.00265));
#1396=CARTESIAN_POINT('',(-0.007,0.0095,-0.002));
#1397=CARTESIAN_POINT('',(-0.00858194210351632,0.0105590763644968,0.00159092363550325));
#1398=CARTESIAN_POINT('',(-0.00647720508662865,0.00915,0.003));
#1399=CARTESIAN_POINT('',(-0.0028070741046558,0.0066929258953442,0.003));
#1400=CARTESIAN_POINT('',(-0.00168577814796812,0.00594224226242613,0.003));
#1401=CARTESIAN_POINT('',(-0.00168577814796812,0.00594224226242613,0.));
#1402=CARTESIAN_POINT('',(-0.005,0.00816104282559692,-0.002));
#1403=CARTESIAN_POINT('',(-0.013,0.008,0.003));
#1404=CARTESIAN_POINT('',(-0.013,0.0122,-0.00095));
#1405=CARTESIAN_POINT('',(-0.013,0.0122,-0.0015));
#1406=CARTESIAN_POINT('',(-0.013,0.0122,-5.00000000000032E-5));
#1407=CARTESIAN_POINT('',(-0.013,0.01235,-0.00135000000000002));
#1408=CARTESIAN_POINT('',(-0.013,0.01185,-0.00185));
#1409=CARTESIAN_POINT('',(-0.013,0.01085,-0.00185));
#1410=CARTESIAN_POINT('',(-0.013,0.00985,-0.00185));
#1411=CARTESIAN_POINT('',(-0.013,0.0095,-0.0022));
#1412=CARTESIAN_POINT('',(-0.013,0.00985,-0.0082));
#1413=CARTESIAN_POINT('',(-0.013,0.00985,-0.0082));
#1414=CARTESIAN_POINT('',(-0.013,0.01085,-0.0082));
#1415=CARTESIAN_POINT('',(-0.013,0.01185,-0.0082));
#1416=CARTESIAN_POINT('',(-0.013,0.004325,-0.000675));
#1417=CARTESIAN_POINT('',(-0.013,0.0122,-0.00855));
#1418=CARTESIAN_POINT('',(-0.013,0.0122,-0.0091));
#1419=CARTESIAN_POINT('',(-0.013,0.0122,-0.01));
#1420=CARTESIAN_POINT('',(-0.013,0.008,-0.01));
#1421=CARTESIAN_POINT('',(-0.013,0.0065,-0.01));
#1422=CARTESIAN_POINT('',(-0.013,0.0065,0.003));
#1423=CARTESIAN_POINT('',(-0.013,0.0065,0.003));
#1424=CARTESIAN_POINT('',(-0.013,0.008,0.003));
#1425=CARTESIAN_POINT('',(-0.013,0.00915,0.003));
#1426=CARTESIAN_POINT('',(-0.013,0.008575,0.003575));
#1427=CARTESIAN_POINT('',(-0.013,0.0095,0.00265));
#1428=CARTESIAN_POINT('',(-0.013,0.0122,-5.00000000000032E-5));
#1429=CARTESIAN_POINT('',(-0.01,0.0065,0.003));
#1430=CARTESIAN_POINT('',(-0.007,0.0065,-0.01));
#1431=CARTESIAN_POINT('',(-0.007,0.0065,-0.01));
#1432=CARTESIAN_POINT('',(-0.007,0.0065,-0.002));
#1433=CARTESIAN_POINT('',(-0.0103493515728975,0.0065,-0.002));
#1434=CARTESIAN_POINT('',(-0.0103493515728975,0.0065,-0.002));
#1435=CARTESIAN_POINT('',(-0.0103493515728975,0.0065,0.003));
#1436=CARTESIAN_POINT('',(-0.0103493515728975,0.0065,0.003));
#1437=CARTESIAN_POINT('',(-0.01,0.0065,0.003));
#1438=CARTESIAN_POINT('',(-0.01,0.0065,-0.01));
#1439=CARTESIAN_POINT('',(-0.00539662474077785,0.00260337525922215,0.003));
#1440=CARTESIAN_POINT('',(-0.00539662474077785,0.00260337525922215,0.003));
#1441=CARTESIAN_POINT('',(-0.00493451550467909,0.001480327942652,0.003));
#1442=CARTESIAN_POINT('',(-0.00572549444347737,0.00340261537014472,0.003));
#1443=CARTESIAN_POINT('',(-0.00572549444347737,0.00340261537014472,0.003));
#1444=CARTESIAN_POINT('',(-0.00493451550467909,0.001480327942652,0.003));
#1445=CARTESIAN_POINT('',(-0.00578571203730386,-0.00328571203730386,0.003));
#1446=CARTESIAN_POINT('',(-0.00577817459305202,-0.00327817459305202,-0.0015));
#1447=CARTESIAN_POINT('',(-0.00777817459305202,-0.00527817459305202,0.00253112887414928));
#1448=CARTESIAN_POINT('',(-0.00591400640581771,-0.00341400640581771,0.00299794950156633));
#1449=CARTESIAN_POINT('',(-0.00591400640581771,-0.00341400640581771,0.));
#1450=CARTESIAN_POINT('',(-0.00627817459305202,-0.00377817459305202,-0.0015));
#1451=CARTESIAN_POINT('',(-0.00777817459305202,-0.00527817459305202,-0.0015));
#1452=CARTESIAN_POINT('',(-0.00777817459305202,-0.00527817459305202,0.003));
#1453=CARTESIAN_POINT('',(-0.00902817459305202,-0.00527817459305202,0.003));
#1454=CARTESIAN_POINT('',(-0.00902817459305202,-0.00527817459305202,-0.005));
#1455=CARTESIAN_POINT('',(-0.00777817459305202,-0.00527817459305202,-0.005));
#1456=CARTESIAN_POINT('',(-0.00827817459305202,-0.00527817459305202,-0.005));
#1457=CARTESIAN_POINT('',(-0.00827817459305202,-0.00527817459305202,-0.005));
#1458=CARTESIAN_POINT('',(-0.010278174593052,-0.00527817459305202,-0.003));
#1459=CARTESIAN_POINT('',(-0.010278174593052,-0.00527817459305202,0.003));
#1460=CARTESIAN_POINT('',(-0.010278174593052,-0.00527817459305202,-0.0015));
#1461=CARTESIAN_POINT('',(-0.00577817459305202,-0.00527817459305202,-0.0015));
#1462=CARTESIAN_POINT('',(-0.00777817459305202,-0.00527817459305202,-0.005));
#1463=CARTESIAN_POINT('',(-0.010278174593052,-0.00777817459305202,0.003));
#1464=CARTESIAN_POINT('',(-0.010278174593052,-0.010278174593052,-0.003));
#1465=CARTESIAN_POINT('',(-0.010278174593052,-0.010278174593052,-0.003));
#1466=CARTESIAN_POINT('',(-0.010278174593052,-0.010278174593052,0.003));
#1467=CARTESIAN_POINT('',(-0.010278174593052,-0.010278174593052,-0.0015));
#1468=CARTESIAN_POINT('',(-0.010278174593052,-0.00777817459305202,-0.0015));
#1469=CARTESIAN_POINT('',(-0.00902817459305202,-0.010278174593052,0.003));
#1470=CARTESIAN_POINT('',(-0.012653174593052,-0.010278174593052,-0.000625));
#1471=CARTESIAN_POINT('',(-0.00827817459305202,-0.010278174593052,-0.005));
#1472=CARTESIAN_POINT('',(-0.00902817459305202,-0.010278174593052,-0.005));
#1473=CARTESIAN_POINT('',(-0.00777817459305203,-0.010278174593052,-0.005));
#1474=CARTESIAN_POINT('',(-0.00777817459305203,-0.010278174593052,-0.005));
#1475=CARTESIAN_POINT('',(-0.00577817459305202,-0.010278174593052,-0.0015));
#1476=CARTESIAN_POINT('',(0.,1.3164953090834E-19,0.003));
#1477=CARTESIAN_POINT('',(0.,1.3164953090834E-19,0.0015));
#1478=CARTESIAN_POINT('',(0.00215,1.3164953090834E-19,0.0015));
#1479=CARTESIAN_POINT('',(0.,1.3164953090834E-19,-0.0015));
#1480=CARTESIAN_POINT('',(0.00215,1.3164953090834E-19,-0.0015));
#1481=CARTESIAN_POINT('',(-0.00136091270347399,0.,0.003));
#1482=CARTESIAN_POINT('',(0.,1.3164953090834E-19,0.003));
#1483=CARTESIAN_POINT('',(0.00365,1.3164953090834E-19,0.003));
#1484=CARTESIAN_POINT('',(-0.00136091270347399,0.00915,0.003));
#1485=CARTESIAN_POINT('',(-0.0103493515728975,0.0015,0.003));
#1486=CARTESIAN_POINT('',(-0.00909598692115718,-0.000232025890478246,0.003));
#1487=CARTESIAN_POINT('',(-0.00577817459305202,-0.00327211163852443,0.003));
#1488=CARTESIAN_POINT('',(-0.00577817459305202,0.,0.003));
#1489=CARTESIAN_POINT('',(0.000372109986412297,-0.00849185104426663,0.003));
#1490=CARTESIAN_POINT('',(0.00849185104426663,-0.00037210998641229,0.003));
#1491=CARTESIAN_POINT('',(-0.00136091270347399,0.00577817459305203,0.003));
#1492=CARTESIAN_POINT('',(0.00305666592587173,0.00577817459305203,0.003));
#1493=CARTESIAN_POINT('',(0.000817647494950051,0.00968160852562899,0.003));
#1494=CARTESIAN_POINT('',(-0.00136091270347399,0.,-0.0015));
#1495=CARTESIAN_POINT('',(0.00777817459305202,0.00777817459305203,-0.005));
#1496=CARTESIAN_POINT('',(0.00777817459305202,0.00777817459305203,-0.0015));
#1497=CARTESIAN_POINT('',(0.00777817459305202,0.00777817459305203,-0.005));
#1498=CARTESIAN_POINT('',(-0.00136091270347399,0.,-0.005));
#1499=CARTESIAN_POINT('',(0.010278174593052,0.00827817459305203,-0.005));
#1500=CARTESIAN_POINT('',(-0.00777817459305202,-0.00777817459305202,-0.005));
#1501=CARTESIAN_POINT('',(-0.00777817459305202,-0.00777817459305202,-0.0015));
#1502=CARTESIAN_POINT('',(-0.00777817459305202,-0.00777817459305202,-0.005));
#1503=CARTESIAN_POINT('',(-0.00136091270347399,0.,-0.005));
#1504=CARTESIAN_POINT('',(-0.00827817459305202,-0.00527817459305202,-0.005));
#1505=CARTESIAN_POINT('',(-0.00136091270347399,0.00627817459305203,-0.0015));
#1506=CARTESIAN_POINT('',(0.00376156282433531,0.00627817459305203,0.));
#1507=CARTESIAN_POINT('',(0.00384379605808993,0.00634930501080979,0.));
#1508=CARTESIAN_POINT('',(0.00392315383516204,0.00642315383516205,-5.02186294960575E-6));
#1509=CARTESIAN_POINT('',(0.00399962801028951,0.00649962801028953,-1.64372665795912E-5));
#1510=CARTESIAN_POINT('',(-0.00627817459305202,0.,-0.0015));
#1511=CARTESIAN_POINT('',(-0.00577817459305202,-0.00777817459305202,-0.0015));
#1512=CARTESIAN_POINT('',(-0.00577817459305202,-0.00327211163852443,0.003));
#1513=CARTESIAN_POINT('',(-0.00582242413318445,-0.00332040358879548,0.003));
#1514=CARTESIAN_POINT('',(-0.00586770186048347,-0.00336770186048347,0.00299934783436883));
#1515=CARTESIAN_POINT('',(-0.00591400640581771,-0.00341400640581771,0.00299794950156633));
#1516=CARTESIAN_POINT('',(-0.00909598692115718,-0.000232025890478246,0.003));
#1517=CARTESIAN_POINT('',(0.00777817459305202,0.00577817459305203,-0.0015));
#1518=CARTESIAN_POINT('',(0.00399962801028951,0.00649962801028953,0.00294179073873999));
#1519=CARTESIAN_POINT('',(0.00371823204879728,0.0062182320487973,0.00298749619628097));
#1520=CARTESIAN_POINT('',(0.00340382392189005,0.00597730519573493,0.003));
#1521=CARTESIAN_POINT('',(0.00305666592587172,0.00577817459305205,0.003));
#1522=CARTESIAN_POINT('',(0.000817647494950051,0.00968160852562899,0.003));
#1523=CARTESIAN_POINT('',(0.000372109986412297,-0.00849185104426663,0.003));
#1524=CARTESIAN_POINT('',(0.00849185104426663,-0.00037210998641229,0.003));
#1525=CARTESIAN_POINT('',(-0.007,0.008,-0.01));
#1526=CARTESIAN_POINT('',(-0.007,0.0122,-0.0091));
#1527=CARTESIAN_POINT('',(-0.007,0.0122,-0.01));
#1528=CARTESIAN_POINT('',(-0.007,0.0122,-0.00855));
#1529=CARTESIAN_POINT('',(-0.007,0.010825,-0.007175));
#1530=CARTESIAN_POINT('',(-0.007,0.01185,-0.0082));
#1531=CARTESIAN_POINT('',(-0.007,0.01085,-0.0082));
#1532=CARTESIAN_POINT('',(-0.007,0.00985,-0.0082));
#1533=CARTESIAN_POINT('',(-0.007,0.00985,-0.0082));
#1534=CARTESIAN_POINT('',(-0.007,0.0095,-0.0022));
#1535=CARTESIAN_POINT('',(-0.007,0.00985,-0.00185));
#1536=CARTESIAN_POINT('',(-0.007,0.01085,-0.00185));
#1537=CARTESIAN_POINT('',(-0.007,0.01185,-0.00185));
#1538=CARTESIAN_POINT('',(-0.007,0.010525,-0.003175));
#1539=CARTESIAN_POINT('',(-0.007,0.0122,-0.0015));
#1540=CARTESIAN_POINT('',(-0.007,0.0122,-0.00095));
#1541=CARTESIAN_POINT('',(-0.007,0.0122,-5.00000000000032E-5));
#1542=CARTESIAN_POINT('',(-0.007,0.0122,-5.0000000000004E-5));
#1543=CARTESIAN_POINT('',(-0.007,0.008,-0.002));
#1544=CARTESIAN_POINT('',(-0.007,0.008,-0.01));
#1545=CARTESIAN_POINT('',(-0.00136091270347399,0.,-0.01));
#1546=CARTESIAN_POINT('',(-0.013002,0.0122,-0.01));
#1547=CARTESIAN_POINT('',(-0.0103493515728975,0.0015,0.003));
#1548=CARTESIAN_POINT('',(-0.00634935157289747,0.0045,0.));
#1549=CARTESIAN_POINT('',(-0.0068676341522475,0.00519104343913337,-1.8234521561466E-19));
#1550=CARTESIAN_POINT('',(-0.00819317485001149,0.00620328404904836,-0.000638083669620628));
#1551=CARTESIAN_POINT('',(-0.00963011188187365,0.0065,-0.0015451133653114));
#1552=CARTESIAN_POINT('',(-0.0103493515728975,0.0065,-0.002));
#1553=CARTESIAN_POINT('',(-0.005,0.,-0.002));
#1554=CARTESIAN_POINT('',(-0.005,0.0045,-0.002));
#1555=CARTESIAN_POINT('',(-0.01,0.0045,-0.002));
#1556=CARTESIAN_POINT('',(-0.00136091270347399,0.00827817459305203,-0.005));
#1557=CARTESIAN_POINT('',(-0.00827817459305202,0.,-0.005));
#1558=CARTESIAN_POINT('',(-0.013002,0.01085,-0.0082));
#1559=CARTESIAN_POINT('',(-0.013002,0.00985,-0.0082));
#1560=CARTESIAN_POINT('',(-0.013,0.01185,-0.0082));
#1561=CARTESIAN_POINT('',(-0.013002,0.0122,-0.0091));
#1562=CARTESIAN_POINT('',(-0.007,0.0122,-0.00855));
#1563=CARTESIAN_POINT('',(-0.013002,0.01085,-0.00185));
#1564=CARTESIAN_POINT('',(-0.013,0.00985,-0.00185));
#1565=CARTESIAN_POINT('',(-0.013002,0.01185,-0.00185));
#1566=CARTESIAN_POINT('',(-0.013002,0.0122,-0.00095));
#1567=CARTESIAN_POINT('',(-0.013002,0.0122,-0.0015));
#1568=CARTESIAN_POINT('',(-0.013002,0.0122,-5.00000000000032E-5));
#1569=CARTESIAN_POINT('',(-0.013002,0.0122,-5.00000000000032E-5));
#1570=CARTESIAN_POINT('',(-0.01,0.0095,-0.0022));
#1571=CARTESIAN_POINT('',(-0.013002,0.00985,-0.0082));
#1572=CARTESIAN_POINT('',(-0.013002,0.01185,-0.00185));
#1573=CARTESIAN_POINT('',(-0.013002,0.0122,-0.00855));
#1574=CARTESIAN_POINT('',(0.,1.3164953090834E-19,0.0015));
#1575=MECHANICAL_DESIGN_GEOMETRIC_PRESENTATION_REPRESENTATION('',(#938),
#1576);
#1576=(
GEOMETRIC_REPRESENTATION_CONTEXT(3)
GLOBAL_UNCERTAINTY_ASSIGNED_CONTEXT((#1577))
GLOBAL_UNIT_ASSIGNED_CONTEXT((#1580,#1579,#1578))
REPRESENTATION_CONTEXT('Power Button Mount','TOP_LEVEL_ASSEMBLY_PART')
);
#1577=UNCERTAINTY_MEASURE_WITH_UNIT(LENGTH_MEASURE(2.37594320871192E-5),
#1580,'DISTANCE_ACCURACY_VALUE','Maximum Tolerance applied to model');
#1578=(
NAMED_UNIT(*)
SI_UNIT($,.STERADIAN.)
SOLID_ANGLE_UNIT()
);
#1579=(
NAMED_UNIT(*)
PLANE_ANGLE_UNIT()
SI_UNIT($,.RADIAN.)
);
#1580=(
LENGTH_UNIT()
NAMED_UNIT(*)
SI_UNIT($,.METRE.)
);
#1581=PRODUCT_DEFINITION_SHAPE('','',#1582);
#1582=PRODUCT_DEFINITION('','',#1584,#1583);
#1583=PRODUCT_DEFINITION_CONTEXT('',#1590,'design');
#1584=PRODUCT_DEFINITION_FORMATION_WITH_SPECIFIED_SOURCE('','',#1586,
 .NOT_KNOWN.);
#1585=PRODUCT_RELATED_PRODUCT_CATEGORY('','',(#1586));
#1586=PRODUCT('Power Button Mount','Power Button Mount',
'Power Button Mount',(#1588));
#1587=PRODUCT_CATEGORY('','');
#1588=PRODUCT_CONTEXT('',#1590,'mechanical');
#1589=APPLICATION_PROTOCOL_DEFINITION('international standard',
'ap242_managed_model_based_3d_engineering',2020,#1590);
#1590=APPLICATION_CONTEXT('managed model based 3d engineering');
ENDSEC;
END-ISO-10303-21;
